<svg width="630" height="683" viewBox="0 0 630 683" fill="none" xmlns="http://www.w3.org/2000/svg">
<g clip-path="url(#clip0_220_7290)">
<path d="M243.025 24.6375L620.525 298.037L338.925 673.938L243.025 24.6375Z" stroke="url(#paint0_linear_220_7290)" stroke-width="1.1984" stroke-miterlimit="10"/>
<path d="M7.72461 236.337L615.925 474.738L399.425 9.53751L7.72461 236.337Z" stroke="url(#paint1_linear_220_7290)" stroke-width="1.1984" stroke-miterlimit="10"/>
<path d="M288.825 334.738L282.025 289.437L243.025 24.6375" stroke="#F3F3F5" stroke-width="1.6958" stroke-miterlimit="10"/>
<path d="M292.325 358.238C290.125 358.338 288.025 357.738 286.325 356.538C284.425 355.038 283.225 352.938 282.925 350.738C282.725 348.338 283.125 346.038 284.525 344.238C286.125 342.238 288.325 340.938 290.925 340.638C293.125 340.538 295.225 341.138 296.925 342.338C298.825 343.838 300.025 345.938 300.325 348.138C300.525 350.538 300.125 352.838 298.725 354.638C297.225 356.838 294.925 358.038 292.325 358.238Z" fill="#2AA7FF"/>
<path d="M291.025 341.138C293.025 341.038 294.925 341.537 296.625 342.837C300.225 345.537 301.125 350.837 298.325 354.437C296.825 356.437 294.625 357.538 292.425 357.738C290.425 357.838 288.525 357.337 286.825 356.037C283.225 353.337 282.325 348.037 285.125 344.437C286.525 342.337 288.725 341.238 291.025 341.138ZM290.925 339.937C288.225 340.137 285.725 341.538 284.125 343.738C280.925 347.938 281.925 353.837 286.025 357.037C287.825 358.437 290.125 359.137 292.425 358.837C295.125 358.637 297.625 357.237 299.225 355.037C302.425 350.837 301.425 344.938 297.325 341.738C295.625 340.338 293.225 339.737 290.925 339.937Z" fill="black"/>
<path d="M339.125 682.237C336.925 682.337 334.825 681.737 333.125 680.537C329.225 677.537 328.425 671.937 331.325 668.037C332.925 666.037 335.125 664.738 337.725 664.438C339.925 664.338 342.025 664.937 343.725 666.137C347.625 669.137 348.425 674.737 345.525 678.637C343.925 680.837 341.625 682.037 339.125 682.237Z" fill="#2AA7FF"/>
<path d="M337.824 665.037C339.824 664.937 341.724 665.437 343.424 666.737C347.024 669.437 347.924 674.737 345.124 678.337C343.624 680.337 341.424 681.437 339.224 681.637C337.224 681.737 335.324 681.237 333.624 679.937C330.024 677.237 329.124 671.937 331.924 668.337C333.224 666.437 335.524 665.237 337.824 665.037ZM337.724 663.837C335.024 664.037 332.524 665.437 330.924 667.637C329.324 669.637 328.724 672.037 329.124 674.637C329.324 677.237 330.824 679.437 332.924 680.837C334.724 682.237 337.024 682.937 339.324 682.637C342.024 682.437 344.524 681.037 346.124 678.837C347.724 676.837 348.324 674.437 347.924 671.837C347.624 669.337 346.224 667.037 344.124 665.637C342.324 664.337 340.024 663.737 337.724 663.837Z" fill="black"/>
<path d="M620.425 306.838C618.225 306.938 616.125 306.338 614.425 305.138C610.525 302.138 609.725 296.538 612.625 292.638C614.225 290.638 616.426 289.338 619.026 289.038C621.226 288.938 623.326 289.538 625.026 290.738C628.926 293.738 629.726 299.338 626.826 303.238C625.326 305.238 623.025 306.638 620.425 306.838Z" fill="#2AA7FF"/>
<path d="M619.125 289.538C621.125 289.438 623.025 289.938 624.725 291.238C628.325 293.938 629.224 299.238 626.424 302.838C624.924 304.838 622.725 305.938 620.525 306.138C618.525 306.238 616.624 305.738 614.924 304.438C611.324 301.738 610.425 296.438 613.225 292.838C614.625 290.838 616.825 289.738 619.125 289.538ZM619.025 288.338C616.325 288.538 613.825 289.938 612.225 292.138C609.025 296.338 610.025 302.238 614.125 305.438C615.925 306.838 618.225 307.538 620.525 307.238C623.225 307.038 625.725 305.638 627.325 303.438C628.925 301.438 629.525 299.038 629.125 296.438C628.725 293.838 627.425 291.638 625.325 290.238C623.625 288.838 621.225 288.138 619.025 288.338Z" fill="black"/>
<path d="M400.125 18.5375C397.925 18.6375 395.825 18.0375 394.125 16.8375C390.225 13.8375 389.425 8.2375 392.325 4.3375C393.925 2.3375 396.125 1.0375 398.725 0.737497C400.925 0.637497 403.025 1.2375 404.725 2.4375C408.625 5.4375 409.425 11.0375 406.525 14.9375C405.125 16.9375 402.725 18.1375 400.125 18.5375Z" fill="#2AA7FF"/>
<path d="M398.924 1.2375C400.924 1.1375 402.824 1.6375 404.524 2.9375C408.124 5.6375 409.024 10.9375 406.224 14.5375C404.724 16.5375 402.524 17.6375 400.324 17.8375C398.324 17.9375 396.424 17.4375 394.724 16.1375C391.124 13.4375 390.224 8.1375 393.024 4.5375C394.424 2.6375 396.624 1.3375 398.924 1.2375ZM398.724 0.0375C396.024 0.2375 393.524 1.6375 391.924 3.8375C390.324 5.8375 389.724 8.2375 390.124 10.8375C390.324 13.4375 391.824 15.6375 393.924 17.0375C395.724 18.4375 398.024 19.1375 400.324 18.8375C403.024 18.6375 405.524 17.2375 407.124 15.0375C408.724 13.0375 409.324 10.6375 408.924 8.0375C408.724 5.4375 407.224 3.2375 405.124 1.8375C403.324 0.437499 401.124 -0.1625 398.724 0.0375Z" fill="black"/>
<path d="M317.562 190.817C317.562 190.817 327.775 187.62 333.641 190.817C339.506 194.015 451.255 260.356 453.803 265.972C456.351 271.588 455.901 419.19 455.901 419.19L497.121 387.923C497.121 387.923 458.839 240.221 458.319 237.033C457.8 233.846 333.661 178.676 333.661 178.676L317.562 190.817Z" fill="black"/>
<path d="M330.232 564.224C306.25 564.224 298.885 562.315 295.348 561.396C294.499 561.148 293.719 560.71 293.066 560.114C292.413 559.518 291.905 558.781 291.581 557.958L279.739 523.524C278.917 521.439 277.455 519.668 275.562 518.467L275.433 518.357C266.193 515.636 257.173 512.215 248.452 508.125C248.396 508.134 248.339 508.134 248.282 508.125C247.883 508.014 247.467 507.97 247.053 507.995C245.29 508.016 243.554 508.425 241.967 509.194L210.05 526.631C209.305 527.047 208.466 527.267 207.612 527.271C206.729 527.262 205.859 527.046 205.074 526.641L204.804 526.491C201.287 524.583 193.962 520.596 175.825 503.968C158.338 488.339 152.952 480.985 151.184 478.557C151.157 478.508 151.127 478.461 151.094 478.417L150.784 477.797C150.752 477.728 150.735 477.653 150.734 477.577C150.734 477.487 150.734 477.457 150.574 477.317C150.066 476.582 149.759 475.727 149.684 474.836C149.609 473.946 149.767 473.051 150.144 472.241L164.484 439.045C165.331 437.166 165.545 435.062 165.093 433.05C160.857 425.942 157.069 418.576 153.752 410.996C152.318 409.24 150.343 408.007 148.136 407.489L112.782 399.494C111.931 399.254 111.148 398.821 110.493 398.228C109.838 397.635 109.328 396.899 109.004 396.077L108.865 395.697C107.565 391.94 104.867 384.136 102.269 359.943C99.3715 335.122 100.361 326.858 100.83 322.891V322.591C100.957 321.724 101.286 320.9 101.792 320.184C102.297 319.469 102.964 318.883 103.738 318.474L136.494 303.195C137.938 302.57 139.192 301.578 140.132 300.317L140.441 298.528C141.371 293.402 142.62 288.016 144.438 281.071C144.812 278.404 144.111 275.698 142.49 273.547L120.056 245.048C119.496 244.359 119.122 243.538 118.969 242.663C118.817 241.788 118.892 240.889 119.187 240.051C120.396 236.414 122.914 228.879 137.174 208.075C150.714 186.84 156.789 181.094 159.717 178.356L159.837 178.246C160.291 177.752 160.847 177.363 161.467 177.104C162.086 176.845 162.754 176.724 163.425 176.748C163.834 176.748 164.242 176.788 164.644 176.867L199.728 185.911C200.434 186.061 201.154 186.134 201.876 186.131C204.017 186.134 206.109 185.486 207.872 184.272C210 182.433 214.987 178.067 214.987 178.067C216.218 177.127 217.219 175.918 217.911 174.533C218.604 173.147 218.971 171.621 218.984 170.072V133.979C218.973 133.09 219.189 132.213 219.613 131.431C220.036 130.65 220.652 129.989 221.402 129.512C224.76 127.424 231.585 123.187 255.167 115.123C279.919 106.489 287.883 105.859 291.281 105.59H291.731C292.534 105.618 293.323 105.816 294.045 106.171C294.766 106.525 295.405 107.029 295.918 107.648L318.171 136.437C319.778 138.458 322.099 139.786 324.657 140.144C326.026 140.144 327.305 140.064 328.534 140.044C329.343 140.044 330.133 140.044 330.912 140.044C332.761 140.044 334.569 140.044 336.588 140.164C338.839 139.642 340.855 138.392 342.324 136.607L364.597 107.938C365.064 107.279 365.685 106.745 366.406 106.382C367.128 106.02 367.927 105.84 368.734 105.859C368.904 105.85 369.074 105.85 369.244 105.859L370.013 105.949C374.251 106.456 378.445 107.271 382.564 108.388C388.68 109.986 396.134 112.385 404.738 115.383C429.52 123.696 436.255 128.173 439.133 130.082C439.676 130.454 440.144 130.925 440.512 131.471C440.615 131.659 440.692 131.861 440.742 132.07L440.861 132.3C440.893 132.373 440.91 132.451 440.911 132.53C440.921 132.66 440.948 132.787 440.991 132.91C441.03 133.04 441.053 133.174 441.061 133.309V134.708L442.62 169.913C442.617 171.486 442.958 173.041 443.619 174.469L443.859 174.709C448.931 178.201 453.799 181.981 458.439 186.031L458.688 186.151C459.604 186.436 460.557 186.584 461.516 186.59C462.286 186.589 463.052 186.485 463.795 186.281L499.179 177.547C499.507 177.477 499.842 177.44 500.178 177.437C501.604 177.455 502.975 177.991 504.035 178.946L504.365 179.276C507.213 182.124 513.139 188.049 526.249 208.514C540.119 229.499 542.837 237.323 544.136 241.06L544.226 241.33C544.542 242.153 544.646 243.042 544.527 243.916C544.408 244.789 544.071 245.618 543.546 246.327L520.773 274.716C519.611 276.145 518.888 277.88 518.694 279.712V279.912C520.603 286.837 521.892 292.383 522.741 297.349V297.459C523.711 299.305 525.259 300.783 527.148 301.666L559.994 316.905C560.749 317.334 561.402 317.921 561.907 318.627C562.413 319.332 562.759 320.139 562.922 320.992V321.252V321.422C563.412 325.419 564.421 333.723 561.973 358.235C561.603 361.512 561.273 364.35 560.973 366.898C558.475 386.174 556.117 392.34 555.108 394.978C554.814 395.771 554.334 396.482 553.708 397.05C553.082 397.619 552.328 398.029 551.51 398.245L515.797 406.24C513.473 406.802 511.423 408.168 510.011 410.097L509.871 410.237C506.445 417.946 502.543 425.434 498.189 432.66C497.65 433.989 497.86 435.898 498.849 438.286L513.498 471.462C513.837 472.272 513.966 473.154 513.873 474.028C513.781 474.901 513.47 475.737 512.969 476.458L512.859 476.628C511.19 479.066 508.092 483.623 498.429 493.096C495.122 496.344 491.434 499.781 487.497 503.328L486.548 504.188L486.498 504.248C468.181 520.816 461.017 524.773 457.959 526.461C457.211 526.881 456.368 527.101 455.511 527.101C454.627 527.092 453.758 526.876 452.973 526.471L420.996 509.004C419.555 508.263 417.96 507.869 416.339 507.855C415.864 507.857 415.39 507.894 414.92 507.965H414.811C407.233 511.595 399.441 514.758 391.478 517.438C390.182 517.787 388.979 518.415 387.952 519.278C386.925 520.141 386.099 521.219 385.532 522.434C385.472 522.614 385.392 522.814 385.322 523.004C385.252 523.194 385.162 523.394 385.082 523.624L384.463 525.352L376.988 547.336L373.391 557.928C373.128 558.757 372.661 559.507 372.032 560.108C371.404 560.709 370.634 561.141 369.793 561.366C366.096 562.285 358.432 564.194 332.881 564.194L330.232 564.224ZM330.982 186.7C329.282 186.7 327.613 187.151 326.145 188.009L210.01 256.259C207.995 257.449 206.317 259.134 205.135 261.154C203.953 263.173 203.306 265.461 203.255 267.801L201.257 390.401C201.164 395.451 202.452 400.431 204.983 404.802C207.513 409.173 211.19 412.769 215.616 415.203L293.739 458.251L331.162 478.726L458.858 404.711H458.918V270.879C458.911 267.801 458.104 264.779 456.576 262.107C455.049 259.436 452.853 257.207 450.205 255.64L386.711 218.217L335.848 188.039C334.376 187.164 332.695 186.702 330.982 186.7Z" fill="#B0E1FF"/>
<path d="M291.832 105.999C292.563 106.029 293.281 106.213 293.937 106.538C294.592 106.864 295.173 107.323 295.639 107.888L317.763 136.717C319.461 138.85 321.916 140.246 324.618 140.614C325.997 140.614 327.296 140.534 328.535 140.514C329.344 140.514 330.134 140.514 330.913 140.514C332.842 140.514 334.69 140.514 336.619 140.634C339.006 140.105 341.146 138.788 342.695 136.897L349.39 128.283L364.978 108.218C365.4 107.62 365.963 107.135 366.616 106.806C367.27 106.477 367.994 106.313 368.726 106.329C368.879 106.319 369.032 106.319 369.185 106.329C373.657 106.824 378.084 107.666 382.425 108.847C387.652 110.206 394.766 112.355 404.559 115.842C428.712 123.946 435.537 128.313 438.844 130.491C439.334 130.827 439.758 131.25 440.093 131.74C440.167 131.888 440.218 132.047 440.243 132.21L440.403 132.52C440.439 132.782 440.489 133.042 440.553 133.299V134.698L442.082 169.952C442.086 171.622 442.458 173.27 443.171 174.779L443.331 174.939L443.491 175.089C448.579 178.606 453.467 182.406 458.13 186.47L458.45 186.62C459.418 186.935 460.429 187.1 461.448 187.11C462.262 187.11 463.072 186.999 463.856 186.78L499.23 178.057C499.528 177.988 499.833 177.954 500.139 177.957C501.414 177.977 502.64 178.452 503.597 179.296L503.907 179.605C506.714 182.413 512.64 188.339 525.721 208.754C539.91 230.258 542.398 237.893 543.647 241.47C543.932 242.217 544.023 243.023 543.913 243.814C543.803 244.605 543.495 245.356 543.018 245.997L520.275 274.356C519.044 275.87 518.283 277.711 518.086 279.652V279.962C519.805 286.197 521.204 291.953 522.143 297.419V297.569C523.159 299.553 524.804 301.145 526.82 302.096L559.696 317.364C560.381 317.759 560.972 318.298 561.429 318.943C561.886 319.588 562.198 320.325 562.344 321.102V321.262C562.813 325.159 563.903 333.253 561.414 358.235C561.065 361.382 560.725 364.23 560.415 366.888C557.977 385.744 555.679 391.98 554.579 394.868C554.316 395.594 553.882 396.245 553.313 396.767C552.744 397.289 552.058 397.666 551.312 397.866L515.628 405.81C513.189 406.4 511.037 407.834 509.552 409.857L509.393 410.017C505.962 417.732 502.058 425.227 497.701 432.46C496.932 434.329 497.551 436.667 498.331 438.536L513.03 471.622C513.342 472.354 513.462 473.154 513.38 473.946C513.298 474.737 513.016 475.495 512.56 476.148C511.001 478.427 507.964 483.003 498.071 492.736C495.073 495.644 491.516 499.031 487.159 502.949L486.16 503.858C467.903 520.376 460.778 524.313 457.72 526.002C457.046 526.381 456.286 526.581 455.512 526.581C454.705 526.572 453.911 526.373 453.194 526.002L421.217 508.545C419.702 507.764 418.025 507.349 416.321 507.335C415.819 507.335 415.317 507.375 414.822 507.455H414.672C407.082 511.097 399.276 514.27 391.299 516.958C389.933 517.328 388.665 517.995 387.587 518.913C386.509 519.83 385.647 520.975 385.064 522.264C384.904 522.724 384.754 523.034 384.594 523.504L383.974 525.222L376.5 547.206L372.902 557.798C372.665 558.551 372.24 559.232 371.669 559.777C371.098 560.322 370.398 560.714 369.635 560.916C365.898 561.845 358.103 563.724 332.862 563.724H330.214C306.521 563.724 299.047 561.845 295.459 560.916C294.689 560.69 293.98 560.292 293.386 559.752C292.793 559.212 292.329 558.544 292.032 557.798L280.2 523.364C279.346 521.176 277.816 519.317 275.834 518.058L275.674 517.908C266.387 515.18 257.323 511.742 248.564 507.625H248.404C247.95 507.493 247.477 507.439 247.005 507.465C245.169 507.49 243.361 507.916 241.709 508.714L209.732 526.162C209.061 526.541 208.304 526.741 207.534 526.741C206.726 526.732 205.932 526.533 205.215 526.162C201.788 524.293 194.613 520.556 176.077 503.568C158.459 487.83 153.163 480.505 151.455 478.167L151.145 477.547C151.143 477.426 151.113 477.308 151.057 477.2C151.002 477.093 150.922 477 150.825 476.928C150.393 476.262 150.137 475.497 150.083 474.705C150.029 473.912 150.178 473.12 150.515 472.401L164.855 439.215C165.76 437.21 165.978 434.962 165.474 432.82C161.221 425.693 157.422 418.303 154.103 410.696C152.598 408.826 150.513 407.511 148.177 406.959L112.803 398.965C112.031 398.742 111.321 398.345 110.726 397.805C110.132 397.264 109.67 396.594 109.375 395.847C108.136 392.27 105.328 384.785 102.68 359.873C99.6825 334.472 100.812 326.528 101.271 322.631C101.387 321.843 101.688 321.094 102.148 320.445C102.608 319.796 103.215 319.264 103.919 318.893L136.646 303.625C138.2 302.953 139.546 301.876 140.543 300.507L140.872 298.598C141.942 292.713 143.361 286.947 144.869 281.181C145.08 279.79 145.012 278.372 144.668 277.008C144.325 275.644 143.714 274.362 142.871 273.237L138.704 267.941L120.427 244.718C119.925 244.093 119.59 243.35 119.453 242.56C119.317 241.77 119.384 240.958 119.648 240.201C120.897 236.454 123.545 228.819 137.575 208.404C151.285 186.9 157.36 181.294 160.168 178.646C160.578 178.197 161.081 177.843 161.642 177.609C162.203 177.374 162.808 177.264 163.416 177.287C163.792 177.289 164.166 177.325 164.535 177.397L179.844 181.344L199.589 186.44C200.339 186.596 201.102 186.673 201.868 186.67C204.115 186.672 206.31 185.992 208.163 184.722C210.341 182.853 215.328 178.486 215.328 178.486C216.63 177.503 217.688 176.232 218.418 174.772C219.147 173.313 219.53 171.704 219.535 170.072V133.979C219.521 133.173 219.715 132.377 220.098 131.668C220.482 130.959 221.041 130.361 221.723 129.932C224.991 127.933 231.716 123.696 255.379 115.592C279.531 107.178 287.485 106.399 291.352 106.089C291.489 106.079 291.626 106.079 291.762 106.089M331.163 479.256L403.11 437.547L459.069 405.09L459.379 404.93V270.879C459.374 267.71 458.542 264.597 456.964 261.849C455.387 259.101 453.119 256.813 450.386 255.21L386.882 217.787L385.323 216.858L336.029 187.61C334.479 186.695 332.713 186.212 330.913 186.211C329.125 186.21 327.37 186.686 325.827 187.59L263.223 224.383L209.692 255.84C207.595 257.07 205.849 258.819 204.624 260.919C203.399 263.019 202.735 265.4 202.697 267.831L200.619 390.431C200.531 395.57 201.845 400.635 204.421 405.083C206.997 409.53 210.737 413.192 215.238 415.673L293.451 458.741L331.163 479.256ZM291.832 105H291.322C287.925 105.27 279.911 105.909 255.099 114.553C231.476 122.647 224.611 126.904 221.313 128.952H221.244C220.419 129.473 219.742 130.197 219.276 131.054C218.811 131.911 218.573 132.874 218.586 133.849V170.002C218.576 171.478 218.228 172.932 217.568 174.252C216.908 175.573 215.953 176.724 214.778 177.617L214.718 177.667C214.668 177.667 209.722 181.994 207.603 183.852C205.93 184.999 203.947 185.609 201.918 185.601C201.22 185.601 200.523 185.531 199.839 185.391L180.144 180.305L164.835 176.358C164.401 176.27 163.959 176.226 163.516 176.228C162.77 176.203 162.027 176.338 161.338 176.624C160.648 176.91 160.028 177.341 159.519 177.887L159.439 177.967C156.501 180.735 150.385 186.49 136.805 207.805C122.516 228.599 119.988 236.184 118.769 239.781C118.456 240.704 118.383 241.691 118.558 242.649C118.733 243.607 119.149 244.505 119.768 245.257L138.024 268.46L142.191 273.756C142.952 274.761 143.505 275.906 143.821 277.125C144.137 278.344 144.208 279.614 144.03 280.861C142.171 287.856 140.922 293.202 140.033 298.318L139.743 299.987C138.874 301.125 137.728 302.023 136.416 302.595L103.69 317.864H103.62C102.776 318.316 102.052 318.961 101.505 319.745C100.958 320.53 100.604 321.433 100.472 322.381V322.661C100.002 326.658 99.0131 334.962 101.921 359.833C104.489 384.066 107.227 391.91 108.536 395.687L108.666 396.047C109.014 396.937 109.563 397.735 110.27 398.378C110.978 399.021 111.824 399.492 112.743 399.754H112.803L148.177 407.748C150.243 408.243 152.094 409.393 153.453 411.026C156.754 418.583 160.525 425.925 164.745 433.01C165.165 434.895 164.962 436.866 164.165 438.626L149.816 471.831C149.409 472.712 149.235 473.683 149.31 474.65C149.386 475.618 149.708 476.55 150.246 477.357C150.28 477.405 150.32 477.449 150.365 477.487C150.376 477.603 150.41 477.715 150.465 477.817L150.775 478.437C150.798 478.485 150.825 478.532 150.855 478.576L150.905 478.636C152.684 481.065 158.08 488.459 175.617 504.128C193.804 520.796 201.168 524.803 204.706 526.721L204.945 526.861C205.811 527.309 206.769 527.549 207.743 527.561C208.685 527.559 209.611 527.314 210.431 526.851L242.338 509.424C243.85 508.693 245.505 508.304 247.185 508.285C247.544 508.263 247.905 508.297 248.254 508.385C248.338 508.415 248.425 508.435 248.514 508.445C257.138 512.56 266.06 516.02 275.204 518.797L275.304 518.877C277.118 520.013 278.519 521.701 279.301 523.693L291.132 558.118C291.484 559.013 292.035 559.817 292.743 560.468C293.451 561.118 294.298 561.6 295.219 561.875C298.817 562.805 306.211 564.723 330.264 564.723H332.912C358.513 564.723 366.227 562.805 369.885 561.885C370.819 561.642 371.676 561.164 372.375 560.498C373.074 559.832 373.593 559 373.882 558.078L377.469 547.526L384.944 525.542L385.553 523.843C385.633 523.604 385.713 523.414 385.783 523.224C385.853 523.034 385.933 522.854 386.013 522.644C386.534 521.493 387.305 520.471 388.269 519.654C389.233 518.836 390.367 518.243 391.589 517.918C399.532 515.236 407.307 512.079 414.872 508.465H414.942C415.388 508.393 415.839 508.357 416.291 508.355C417.841 508.37 419.367 508.747 420.747 509.454L452.644 526.901C453.51 527.349 454.468 527.588 455.442 527.601C456.384 527.599 457.31 527.354 458.13 526.891C461.208 525.192 468.413 521.215 486.759 504.617L486.849 504.527L487.229 504.188L487.768 503.698C491.765 500.151 495.403 496.703 498.76 493.456C508.463 483.913 511.571 479.356 513.25 476.908L513.38 476.718C513.932 475.927 514.274 475.008 514.372 474.048C514.47 473.087 514.321 472.118 513.939 471.232L499.29 438.036C498.371 435.848 498.151 434.039 498.64 432.82C502.968 425.625 506.852 418.174 510.272 410.506L510.352 410.406C511.691 408.573 513.633 407.271 515.838 406.729L551.542 398.735H551.612C552.504 398.492 553.326 398.038 554.007 397.412C554.689 396.786 555.21 396.006 555.529 395.138C556.528 392.48 558.926 386.254 561.414 366.978C561.744 364.46 562.084 361.622 562.414 358.305C564.872 333.733 563.863 325.329 563.413 321.332V321.162V321.062C563.418 320.995 563.418 320.928 563.413 320.862C563.24 319.943 562.87 319.072 562.328 318.31C561.787 317.547 561.086 316.911 560.275 316.445H560.205L527.329 301.176C525.59 300.352 524.156 298.998 523.232 297.309C523.228 297.286 523.228 297.262 523.232 297.239C522.373 292.243 521.084 286.717 519.185 279.812V279.682C519.38 277.949 520.075 276.311 521.184 274.966L543.927 246.606C543.932 246.583 543.932 246.559 543.927 246.536C544.498 245.764 544.865 244.859 544.992 243.907C545.12 242.955 545.004 241.986 544.657 241.09L544.577 240.861C543.268 237.103 540.58 229.269 526.64 208.194C513.5 187.699 507.554 181.744 504.656 178.886L504.346 178.576C503.203 177.581 501.745 177.021 500.229 176.997C499.85 176.996 499.471 177.036 499.1 177.117L463.706 185.851C463 186.05 462.271 186.151 461.538 186.151C460.628 186.143 459.726 185.998 458.86 185.721L458.73 185.661C454.088 181.625 449.228 177.849 444.17 174.349L444.06 174.249C443.428 172.904 443.094 171.439 443.081 169.952L441.522 134.678V133.329C441.516 133.146 441.486 132.965 441.432 132.79C441.406 132.711 441.386 132.631 441.372 132.55C441.373 132.39 441.335 132.232 441.262 132.09L441.172 131.92C441.126 131.716 441.055 131.518 440.963 131.331L440.893 131.211C440.482 130.611 439.964 130.092 439.364 129.682C436.476 127.763 429.701 123.267 404.849 114.923C396.255 111.925 388.781 109.517 382.645 107.928C378.507 106.804 374.292 105.986 370.035 105.48L369.285 105.39H368.696C367.807 105.374 366.927 105.575 366.133 105.976C365.339 106.376 364.655 106.964 364.139 107.688L348.57 127.723L341.875 136.337C340.503 138.012 338.617 139.189 336.509 139.685C334.511 139.605 332.712 139.575 330.883 139.575C330.104 139.575 329.304 139.575 328.485 139.575C327.116 139.575 325.857 139.625 324.658 139.675C322.24 139.325 320.046 138.067 318.522 136.157L296.398 107.338C296.403 107.322 296.403 107.305 296.398 107.288C295.84 106.615 295.145 106.069 294.36 105.685C293.574 105.301 292.716 105.088 291.842 105.06L291.832 105ZM331.163 478.107L293.94 457.812L215.818 414.773C211.471 412.384 207.859 408.853 205.373 404.561C202.886 400.27 201.619 395.38 201.708 390.421L203.786 267.821C203.826 265.569 204.441 263.366 205.572 261.419C206.704 259.472 208.315 257.847 210.252 256.699L263.782 225.232L326.387 188.439C327.775 187.627 329.355 187.199 330.963 187.2C332.583 187.203 334.173 187.638 335.57 188.459L384.864 217.707L386.423 218.637L449.926 256.059C452.503 257.583 454.639 259.75 456.127 262.348C457.614 264.945 458.401 267.885 458.41 270.879V404.331L402.611 436.677L331.163 478.107Z" fill="black"/>
<path d="M330.235 564.124C306.182 564.124 298.888 562.225 295.38 561.306C294.542 561.067 293.771 560.638 293.126 560.053C292.481 559.467 291.98 558.74 291.663 557.929L279.822 523.494C279 521.389 277.526 519.603 275.615 518.397L275.475 518.268C266.233 515.548 257.213 512.124 248.494 508.025H248.365H248.295C247.881 507.915 247.453 507.871 247.026 507.895C245.249 507.915 243.498 508.328 241.899 509.104L209.983 526.541C209.251 526.956 208.425 527.176 207.584 527.181C206.714 527.167 205.859 526.951 205.086 526.551L204.826 526.412C201.309 524.493 194.004 520.516 175.848 503.888C170.941 499.501 166.554 495.374 162.857 491.647L162.438 491.227L267.89 444.132L293.691 458.351L331.164 478.786L458.071 405.26C458.37 405.088 458.619 404.84 458.795 404.543C458.97 404.245 459.065 403.907 459.07 403.562V267.661C459.069 265.539 458.515 263.454 457.464 261.611C456.413 259.768 454.9 258.23 453.075 257.149L402.312 227.231L418.5 180.485L406.309 146.4L441.283 140.334L442.592 169.903C442.586 171.493 442.927 173.065 443.592 174.509L443.851 174.769C448.918 178.269 453.785 182.049 458.431 186.091L458.701 186.231C459.623 186.515 460.583 186.663 461.548 186.67C462.332 186.671 463.112 186.563 463.867 186.351L499.251 177.627C499.578 177.549 499.914 177.512 500.25 177.517C501.609 177.547 502.913 178.053 503.937 178.946L504.267 179.276C507.115 182.124 513.021 188.029 526.141 208.484C540.031 229.549 542.719 237.313 544.018 241.051L544.098 241.3C544.41 242.103 544.512 242.972 544.395 243.825C544.278 244.679 543.945 245.488 543.428 246.177L520.665 274.566C519.482 276.015 518.752 277.781 518.567 279.642V279.872C520.485 286.867 521.764 292.373 522.614 297.309V297.429C523.598 299.294 525.162 300.789 527.07 301.686L559.936 316.955C560.677 317.373 561.318 317.947 561.815 318.637C562.312 319.327 562.653 320.117 562.814 320.952V321.192V321.382C563.294 325.379 564.293 333.683 561.815 358.165C558.997 384.366 556.209 391.79 555 394.948C554.708 395.725 554.234 396.421 553.619 396.979C553.004 397.537 552.265 397.94 551.463 398.155L515.749 406.15C513.399 406.713 511.327 408.095 509.903 410.047L509.763 410.187C506.332 417.888 502.434 425.373 498.092 432.6C497.522 433.969 497.732 435.908 498.741 438.316L513.381 471.502C513.722 472.298 513.855 473.169 513.766 474.031C513.677 474.893 513.369 475.719 512.871 476.428L512.741 476.618C510.692 479.616 505.886 486.611 487.41 503.289C468.303 520.676 460.999 524.693 457.881 526.402C457.155 526.822 456.331 527.042 455.493 527.041C454.619 527.031 453.76 526.815 452.985 526.412L421.008 508.954C419.556 508.204 417.947 507.806 416.312 507.795C415.833 507.797 415.356 507.833 414.883 507.905H414.753C407.174 511.545 399.378 514.716 391.41 517.398C390.099 517.756 388.883 518.397 387.848 519.276C386.812 520.155 385.981 521.25 385.414 522.484C385.344 522.684 385.264 522.884 385.184 523.084C385.104 523.284 385.034 523.464 384.965 523.684L384.335 525.412L373.273 557.968C373.014 558.783 372.554 559.519 371.936 560.109C371.318 560.7 370.561 561.125 369.736 561.346C366.058 562.265 358.444 564.164 332.843 564.164L330.235 564.124Z" fill="black"/>
<path d="M440.823 140.844L442.082 169.953C442.091 171.624 442.463 173.275 443.172 174.789L443.331 174.939L443.491 175.099C448.579 178.618 453.47 182.414 458.141 186.47L458.45 186.63C459.42 186.94 460.43 187.105 461.448 187.12C462.265 187.115 463.078 187.004 463.866 186.79L499.231 178.057C499.526 177.996 499.828 177.966 500.13 177.967C501.408 177.987 502.638 178.461 503.597 179.306L503.907 179.615C506.715 182.423 512.641 188.349 525.731 208.754C539.911 230.258 542.399 237.903 543.648 241.48C543.933 242.227 544.024 243.033 543.914 243.824C543.804 244.616 543.496 245.366 543.018 246.007L520.275 274.366C519.044 275.88 518.284 277.721 518.087 279.662V279.972C519.805 286.207 521.204 291.963 522.144 297.429V297.579C523.162 299.561 524.806 301.152 526.82 302.106L559.696 317.375C560.381 317.769 560.973 318.308 561.43 318.953C561.887 319.598 562.199 320.335 562.344 321.112V321.272C562.814 325.159 563.903 333.263 561.415 358.195C558.607 383.916 555.799 391.55 554.55 394.818C554.29 395.545 553.856 396.199 553.287 396.721C552.718 397.243 552.03 397.619 551.282 397.816L515.599 405.81C513.158 406.396 511.005 407.831 509.523 409.857L509.363 410.017C505.934 417.728 502.033 425.22 497.682 432.45C496.902 434.329 497.522 436.657 498.301 438.536L513.03 471.622C513.342 472.352 513.463 473.151 513.381 473.941C513.298 474.731 513.016 475.487 512.561 476.138C510.562 479.136 506.016 485.961 487.159 502.949C468.173 520.246 460.829 524.293 457.711 526.012C457.04 526.391 456.283 526.591 455.513 526.591C454.705 526.583 453.911 526.385 453.194 526.012L421.218 508.555C419.703 507.774 418.026 507.36 416.321 507.346C415.819 507.346 415.318 507.386 414.822 507.465H414.672C407.083 511.107 399.277 514.28 391.3 516.968C389.935 517.339 388.669 518.006 387.591 518.921C386.513 519.836 385.651 520.978 385.064 522.265C384.904 522.734 384.754 523.044 384.594 523.514L383.975 525.232L372.903 557.799C372.665 558.551 372.241 559.232 371.67 559.777C371.098 560.322 370.399 560.714 369.635 560.916C365.898 561.846 358.104 563.714 332.862 563.714H330.214C306.522 563.714 299.047 561.846 295.46 560.916C294.69 560.69 293.981 560.292 293.387 559.752C292.793 559.212 292.33 558.544 292.032 557.799L280.201 523.364C279.346 521.176 277.817 519.317 275.834 518.058L275.684 517.908C266.395 515.174 257.328 511.733 248.564 507.615H248.414C247.955 507.492 247.48 507.441 247.005 507.465C245.17 507.49 243.362 507.916 241.709 508.715L209.733 526.162C209.063 526.544 208.306 526.747 207.534 526.751C206.726 526.738 205.932 526.537 205.216 526.162C201.788 524.293 194.614 520.556 176.077 503.568C170.661 498.732 166.414 494.685 163.087 491.337L267.81 444.571L293.451 458.741L331.164 479.256L458.231 405.61C458.59 405.402 458.888 405.104 459.095 404.744C459.302 404.384 459.411 403.977 459.41 403.562V267.661C459.411 265.467 458.838 263.311 457.75 261.406C456.662 259.5 455.095 257.913 453.204 256.799L402.721 227.051L418.859 180.475L406.778 146.72L440.823 140.824M441.603 139.825L440.693 139.984L406.638 145.88L405.639 146.05L405.969 146.959L417.96 180.455L401.922 226.751L401.702 227.391L402.282 227.72L452.765 257.468C454.529 258.515 455.992 260.002 457.009 261.783C458.027 263.564 458.565 265.579 458.57 267.631V403.532C458.569 403.805 458.497 404.073 458.36 404.31C458.223 404.546 458.027 404.743 457.791 404.881L331.164 478.327L293.851 457.972L268.21 443.852L267.85 443.662L267.48 443.822L162.757 490.588L161.678 491.077L162.507 491.917C166.244 495.654 170.631 499.781 175.498 504.178C193.684 520.836 201.019 524.833 204.546 526.751L204.796 526.881C205.633 527.318 206.561 527.55 207.504 527.561C208.414 527.558 209.308 527.324 210.102 526.881L242.009 509.444C243.551 508.704 245.235 508.308 246.945 508.285C247.332 508.263 247.719 508.3 248.094 508.395H248.214H248.324C257.007 512.466 265.986 515.874 275.185 518.587H275.235H275.305C277.144 519.745 278.566 521.461 279.362 523.484L291.203 557.908C291.543 558.782 292.081 559.565 292.775 560.196C293.468 560.827 294.298 561.289 295.2 561.546C298.747 562.475 306.082 564.384 330.174 564.384H332.822C358.474 564.384 366.118 562.475 369.795 561.556C370.696 561.318 371.522 560.856 372.196 560.213C372.871 559.57 373.372 558.767 373.652 557.879L384.704 525.342L385.324 523.644C385.404 523.404 385.474 523.224 385.544 523.044C385.614 522.864 385.704 522.654 385.784 522.424C386.318 521.252 387.105 520.213 388.088 519.38C389.071 518.548 390.225 517.942 391.469 517.608C399.436 514.928 407.231 511.765 414.812 508.135H414.912C415.365 508.063 415.823 508.026 416.281 508.025C417.857 508.04 419.407 508.423 420.808 509.144L452.785 526.691C453.623 527.133 454.555 527.369 455.503 527.381C456.404 527.376 457.288 527.138 458.071 526.691C461.198 524.973 468.533 520.946 487.679 503.518C506.185 486.851 511.012 479.786 513.07 476.778L513.2 476.578C513.735 475.811 514.065 474.92 514.16 473.99C514.254 473.06 514.11 472.121 513.74 471.262L499.101 438.076C498.161 435.818 497.942 433.999 498.461 432.69C502.791 425.489 506.679 418.03 510.103 410.357V410.307C511.461 408.435 513.441 407.106 515.689 406.559L551.392 398.565H551.442C552.311 398.331 553.11 397.892 553.774 397.285C554.439 396.678 554.948 395.921 555.26 395.078C556.459 391.93 559.257 384.485 562.154 358.285C564.603 333.763 563.603 325.419 563.154 321.412V321.222V321.032V320.952C562.988 320.058 562.629 319.21 562.103 318.468C561.576 317.726 560.895 317.108 560.106 316.655L527.22 301.376C525.429 300.528 523.958 299.127 523.023 297.379V297.309C522.184 292.373 520.895 286.837 519.026 279.882V279.712C519.208 277.946 519.903 276.272 521.025 274.896L543.768 246.536C544.32 245.787 544.674 244.911 544.796 243.988C544.918 243.066 544.805 242.127 544.467 241.26L544.387 241.05C543.088 237.293 540.39 229.499 526.471 208.384C513.34 187.909 507.405 181.974 504.547 179.116L504.237 178.806C503.133 177.828 501.715 177.278 500.24 177.257C499.88 177.256 499.521 177.296 499.171 177.377L463.737 185.941C463.014 186.144 462.268 186.248 461.518 186.251C460.589 186.243 459.667 186.098 458.78 185.821L458.62 185.741C453.986 181.711 449.132 177.942 444.081 174.449L443.981 174.349L443.931 174.299C443.289 172.932 442.949 171.443 442.932 169.933L441.643 140.804V139.875L441.603 139.825Z" fill="black"/>
<path d="M460.821 403.142H460.671C460.556 403.109 460.455 403.04 460.382 402.944C460.31 402.848 460.271 402.732 460.271 402.612V261.406C460.271 261.308 460.297 261.212 460.346 261.128C460.396 261.043 460.466 260.974 460.551 260.926C460.634 260.879 460.727 260.855 460.821 260.856C460.928 260.856 461.032 260.887 461.121 260.946L521.267 300.527C521.385 300.605 521.468 300.724 521.502 300.861C521.535 300.998 521.515 301.143 521.447 301.266L461.291 402.872C461.242 402.954 461.174 403.021 461.091 403.069C461.009 403.116 460.916 403.141 460.821 403.142Z" fill="#2AA7FF"/>
<path d="M460.82 261.405L520.966 300.986L460.82 402.592V261.405ZM460.82 260.306C460.636 260.31 460.455 260.354 460.291 260.436C460.113 260.535 459.965 260.68 459.863 260.856C459.761 261.032 459.709 261.232 459.711 261.435V402.592C459.712 402.834 459.793 403.069 459.941 403.261C460.089 403.452 460.296 403.59 460.53 403.651C460.626 403.667 460.724 403.667 460.82 403.651C461.01 403.651 461.197 403.601 461.362 403.507C461.526 403.412 461.664 403.276 461.759 403.112L521.915 301.506C522.06 301.263 522.105 300.974 522.042 300.699C521.978 300.423 521.812 300.183 521.576 300.027L461.42 260.446C461.242 260.328 461.033 260.266 460.82 260.266V260.306Z" fill="black"/>
<path d="M329.724 562.725C306.202 562.725 299.237 560.976 295.499 560.047C294.909 559.878 294.362 559.583 293.897 559.183C293.431 558.783 293.057 558.287 292.801 557.729L280.93 523.224L279.401 520.226C279.344 520.111 279.329 519.979 279.358 519.853C279.387 519.727 279.459 519.616 279.561 519.537L329.584 481.674C329.68 481.604 329.795 481.566 329.914 481.565H330.034C330.113 481.583 330.188 481.618 330.251 481.668C330.315 481.718 330.367 481.782 330.404 481.854L370.454 558.798C370.52 558.926 370.533 559.074 370.492 559.212C370.451 559.349 370.359 559.466 370.235 559.537L369.145 560.157C369.086 560.191 369.022 560.214 368.956 560.227C368.496 560.287 367.956 560.417 367.367 560.557C366.577 560.747 365.598 560.976 364.439 561.156L363.01 561.316C353.89 562.375 344.711 562.845 335.53 562.725H329.724Z" fill="#393939"/>
<path d="M329.917 482.064L369.967 559.008L368.878 559.627C367.789 559.787 366.38 560.247 364.361 560.567L362.952 560.716C353.852 561.777 344.693 562.248 335.532 562.125H329.737C306.274 562.125 299.229 560.367 295.642 559.467C295.131 559.322 294.658 559.069 294.254 558.724C293.851 558.379 293.526 557.951 293.303 557.469L281.462 523.024L280.213 520.536L279.903 519.906L329.917 482.044M329.917 480.945C329.679 480.948 329.449 481.025 329.257 481.165L279.204 519.057C278.999 519.212 278.855 519.434 278.796 519.684C278.738 519.934 278.769 520.196 278.884 520.426L279.194 521.046L280.413 523.474L292.224 557.849L292.284 557.979C292.581 558.612 293.011 559.173 293.546 559.623C294.081 560.073 294.707 560.402 295.382 560.587C299.149 561.586 306.184 563.275 329.707 563.275H335.503C344.737 563.394 353.969 562.92 363.142 561.856L364.531 561.696C365.76 561.506 366.75 561.276 367.529 561.086C368.129 560.946 368.648 560.816 369.078 560.757C369.215 560.738 369.347 560.694 369.468 560.627L370.557 559.997C370.803 559.856 370.985 559.626 371.065 559.354C371.145 559.082 371.117 558.79 370.987 558.538L330.936 481.594C330.862 481.454 330.759 481.331 330.633 481.234C330.507 481.137 330.361 481.069 330.206 481.035C330.123 481.025 330.04 481.025 329.957 481.035L329.917 480.945Z" fill="black"/>
<path d="M384.125 524.763L385.214 521.765C385.037 522.168 384.883 522.582 384.755 523.004L384.125 524.763Z" fill="#2A70B8"/>
<path d="M371.055 558.818C370.955 558.818 370.856 558.79 370.772 558.737C370.687 558.684 370.619 558.608 370.575 558.518L330.674 482.633C330.619 482.523 330.602 482.398 330.625 482.277C330.649 482.155 330.712 482.046 330.804 481.964C330.903 481.874 331.031 481.825 331.164 481.824C331.275 481.822 331.384 481.857 331.474 481.924L385.704 519.007C385.772 519.053 385.829 519.113 385.87 519.184C385.912 519.255 385.937 519.335 385.944 519.416C385.95 519.497 385.94 519.578 385.912 519.654C385.884 519.73 385.841 519.799 385.784 519.856L385.164 520.476C384.539 521.315 384.053 522.249 383.725 523.244L371.574 558.448C371.538 558.547 371.475 558.634 371.392 558.699C371.309 558.765 371.21 558.806 371.105 558.818H371.055Z" fill="#2AA7FF"/>
<path d="M331.164 482.373L385.394 519.466L384.775 520.086C384.093 520.992 383.566 522.005 383.216 523.084L371.055 558.308L331.164 482.363M331.164 481.264C330.894 481.263 330.634 481.363 330.434 481.544C330.251 481.706 330.127 481.926 330.084 482.167C330.04 482.408 330.079 482.657 330.195 482.873L370.085 558.817C370.181 558.998 370.325 559.149 370.502 559.253C370.678 559.357 370.88 559.411 371.085 559.407H371.175C371.389 559.389 371.593 559.309 371.763 559.178C371.933 559.047 372.062 558.87 372.134 558.668L384.295 523.443C384.607 522.518 385.059 521.645 385.634 520.855L386.214 520.286C386.327 520.169 386.415 520.029 386.47 519.876C386.525 519.722 386.547 519.559 386.533 519.396C386.517 519.236 386.465 519.081 386.382 518.943C386.3 518.805 386.187 518.687 386.054 518.597L331.823 481.504C331.641 481.379 331.425 481.313 331.204 481.314L331.164 481.264Z" fill="black"/>
<path d="M415.783 505.706H415.623L333.503 480.725C333.388 480.69 333.288 480.618 333.217 480.521C333.147 480.423 333.11 480.305 333.113 480.185C333.114 480.067 333.153 479.951 333.225 479.858C333.298 479.764 333.399 479.696 333.513 479.665L493.396 434.319C493.446 434.309 493.496 434.309 493.546 434.319C493.645 434.317 493.743 434.342 493.829 434.391C493.916 434.44 493.987 434.512 494.036 434.598C494.094 434.709 494.115 434.836 494.093 434.959C494.071 435.082 494.009 435.194 493.916 435.278L416.163 505.556C416.059 505.652 415.924 505.705 415.783 505.706Z" fill="#393939"/>
<path d="M493.535 434.848L415.782 505.127L333.662 480.195L493.545 434.848M493.545 433.749H493.435C493.364 433.756 493.293 433.773 493.226 433.799L333.343 479.136C333.113 479.2 332.91 479.337 332.764 479.526C332.618 479.715 332.537 479.946 332.533 480.185C332.532 480.423 332.609 480.655 332.751 480.846C332.893 481.038 333.094 481.177 333.323 481.244L415.443 506.226C415.548 506.246 415.657 506.246 415.762 506.226C416.034 506.224 416.297 506.125 416.502 505.946L494.225 435.688C494.351 435.587 494.452 435.46 494.522 435.314C494.591 435.169 494.626 435.009 494.625 434.848C494.625 434.56 494.512 434.284 494.31 434.078C494.108 433.872 493.833 433.754 493.545 433.749Z" fill="black"/>
<path d="M520.495 297.249C519.566 292.103 518.157 286.807 516.448 280.262L516.288 279.802L465.955 262.964L520.805 298.938L520.495 297.249Z" fill="#144D8F"/>
<path d="M456.292 525.153C456.155 525.154 456.023 525.104 455.922 525.013C455.837 524.935 455.779 524.832 455.755 524.719C455.732 524.606 455.745 524.488 455.792 524.383L495.063 436.178C495.107 436.082 495.178 436.001 495.266 435.945C495.355 435.888 495.458 435.858 495.563 435.858C495.668 435.857 495.772 435.886 495.861 435.943C495.95 436 496.02 436.082 496.063 436.178L497.622 439.605L511.961 471.582C512.24 472.198 512.342 472.881 512.253 473.552C512.165 474.223 511.891 474.856 511.461 475.379L511.332 475.639C509.333 478.557 504.916 485.262 486.27 501.98C470.282 516.779 462.927 521.565 458.74 523.874L456.572 525.113C456.483 525.15 456.387 525.164 456.292 525.153Z" fill="#393939"/>
<path d="M495.563 436.407L497.122 439.835L511.461 471.811C511.703 472.344 511.787 472.935 511.704 473.514C511.62 474.093 511.373 474.636 510.992 475.079L510.832 475.389C508.654 478.666 503.977 485.382 485.9 501.57C470.631 515.749 462.997 520.896 458.48 523.394L456.292 524.633L495.563 436.437M495.563 435.338C495.351 435.335 495.143 435.395 494.965 435.511C494.787 435.626 494.647 435.792 494.564 435.988L455.293 524.183C455.196 524.395 455.169 524.632 455.216 524.86C455.262 525.088 455.38 525.295 455.552 525.452C455.756 525.634 456.019 525.734 456.292 525.732C456.484 525.736 456.674 525.687 456.841 525.592L459.02 524.343C463.217 522.035 470.661 517.228 486.65 502.359C505.336 485.611 509.833 478.866 511.751 475.988C511.778 475.951 511.802 475.911 511.821 475.869L511.921 475.659C512.392 475.067 512.693 474.358 512.793 473.609C512.894 472.859 512.789 472.097 512.491 471.402V471.342L498.161 439.365L496.602 435.928C496.512 435.738 496.371 435.578 496.194 435.465C496.018 435.352 495.813 435.29 495.603 435.288L495.563 435.338Z" fill="black"/>
<path d="M511.154 406.099C511.04 406.1 510.928 406.065 510.834 405.999C510.755 405.942 510.691 405.865 510.651 405.775C510.611 405.686 510.595 405.587 510.604 405.49L522.026 304.204C522.039 304.077 522.097 303.959 522.188 303.869C522.279 303.78 522.398 303.725 522.526 303.714H522.576C522.694 303.714 522.81 303.751 522.905 303.821C523.001 303.892 523.071 303.991 523.105 304.104L550.685 395.887C550.74 396.028 550.74 396.185 550.685 396.327C550.603 396.456 550.474 396.549 550.325 396.586L515.421 404.371C514.507 404.663 513.612 405.013 512.743 405.42L511.494 406.039C511.39 406.097 511.271 406.118 511.154 406.099Z" fill="#2AA7FF"/>
<path d="M522.524 304.264L550.104 396.047L515.199 403.841C514.238 404.136 513.3 404.5 512.391 404.93L511.152 405.55L522.524 304.264ZM522.524 303.165H522.424C522.166 303.187 521.925 303.3 521.742 303.482C521.56 303.665 521.447 303.906 521.425 304.164L510.033 405.43C510.017 405.623 510.052 405.817 510.135 405.992C510.217 406.167 510.344 406.318 510.503 406.429C510.687 406.557 510.908 406.623 511.132 406.619C511.302 406.621 511.469 406.583 511.622 406.509L512.871 405.879C513.715 405.485 514.587 405.151 515.479 404.88L550.323 397.096C550.471 397.066 550.61 397.005 550.733 396.917C550.855 396.829 550.957 396.716 551.033 396.586C551.112 396.455 551.162 396.31 551.181 396.158C551.2 396.007 551.187 395.853 551.143 395.707L523.563 303.924C523.493 303.698 523.352 303.501 523.161 303.36C522.971 303.22 522.74 303.145 522.504 303.145L522.524 303.165Z" fill="black"/>
<path d="M517.477 276.704C517.37 276.694 517.269 276.648 517.191 276.574C517.113 276.499 517.063 276.401 517.048 276.294L500.839 179.525C500.818 179.419 500.833 179.31 500.882 179.213C500.931 179.117 501.011 179.041 501.109 178.995C501.177 178.96 501.253 178.943 501.329 178.946C501.398 178.944 501.467 178.958 501.531 178.986C501.595 179.013 501.652 179.054 501.699 179.105L510.422 188.608C515.543 195.204 520.287 202.083 524.632 209.213C524.797 209.391 524.938 209.589 525.052 209.803C525.141 209.964 525.249 210.115 525.371 210.253L525.441 210.343L534.954 225.931C540.031 235.014 541.639 239.251 542.479 241.919C542.655 242.487 542.7 243.087 542.608 243.675C542.516 244.262 542.291 244.82 541.949 245.307L519.326 273.546L519.226 273.686C519.191 273.772 519.144 273.853 519.086 273.926C519.061 274.014 519.013 274.093 518.946 274.156C518.947 274.172 518.947 274.189 518.946 274.206L518.007 276.394C517.967 276.483 517.902 276.558 517.821 276.611C517.739 276.664 517.644 276.693 517.547 276.694L517.477 276.704Z" fill="#0D4A70"/>
<path d="M501.329 179.445L510.033 188.938C515.147 195.52 519.885 202.386 524.223 209.503C524.532 209.823 524.682 210.283 525.002 210.602L534.505 226.181C539.641 235.374 541.2 239.581 541.98 242.079C542.14 242.581 542.183 243.112 542.103 243.632C542.023 244.153 541.824 244.647 541.52 245.077L518.917 273.287C518.767 273.436 518.767 273.596 518.607 273.746C518.607 273.906 518.457 273.906 518.457 274.066L517.518 276.244L501.309 179.475M501.309 178.476C501.157 178.475 501.007 178.51 500.87 178.576C500.678 178.671 500.522 178.826 500.425 179.017C500.328 179.207 500.295 179.424 500.33 179.635L516.528 276.404C516.564 276.618 516.668 276.815 516.824 276.964C516.981 277.114 517.182 277.208 517.398 277.234H517.518C517.714 277.233 517.905 277.176 518.069 277.067C518.232 276.959 518.36 276.805 518.437 276.624L519.366 274.446C519.426 274.378 519.473 274.3 519.506 274.216C519.576 274.106 519.626 274.016 519.656 273.956L542.259 245.747L542.309 245.677C542.694 245.126 542.946 244.495 543.046 243.831C543.147 243.167 543.093 242.489 542.889 241.85C542.05 239.162 540.431 234.855 535.334 225.781L525.811 210.173C525.77 210.103 525.72 210.039 525.662 209.983C525.572 209.873 525.492 209.756 525.422 209.633C525.318 209.381 525.184 209.143 525.022 208.924C520.678 201.807 515.941 194.938 510.832 188.349L510.782 188.289L502.059 178.786C501.965 178.684 501.85 178.603 501.723 178.548C501.595 178.493 501.458 178.465 501.319 178.466L501.309 178.476Z" fill="black"/>
<path d="M278.962 519.236C278.817 519.233 278.679 519.176 278.573 519.077L278.103 518.607L277.623 518.217C277.171 517.809 276.659 517.472 276.105 517.218C276.039 517.187 275.978 517.147 275.925 517.098L275.865 517.038C271.988 515.909 268.24 514.64 264.433 513.171L250.393 507.405C250.288 507.362 250.198 507.286 250.137 507.19C250.076 507.093 250.047 506.98 250.054 506.866C250.058 506.753 250.097 506.646 250.165 506.556C250.233 506.467 250.327 506.4 250.433 506.366L327.097 481.724C327.153 481.715 327.211 481.715 327.267 481.724C327.367 481.723 327.466 481.749 327.552 481.801C327.639 481.852 327.709 481.925 327.757 482.014C327.817 482.129 327.836 482.263 327.808 482.391C327.781 482.518 327.71 482.632 327.607 482.713L279.292 519.177C279.191 519.229 279.076 519.25 278.962 519.236Z" fill="#0D4A70"/>
<path d="M327.267 482.224L278.962 518.697L278.493 518.227C277.844 517.607 277.11 517.083 276.314 516.668L276.154 516.508C272.417 515.419 268.68 514.17 264.623 512.621L250.633 506.856L327.297 482.234M327.297 481.124H327.167L326.947 481.174L250.223 505.796C250.009 505.864 249.821 505.997 249.685 506.176C249.549 506.354 249.472 506.571 249.464 506.796C249.454 507.021 249.514 507.244 249.635 507.433C249.757 507.623 249.935 507.77 250.144 507.855L264.133 513.621C267.96 515.089 271.668 516.349 275.515 517.478C275.605 517.568 275.714 517.636 275.835 517.678C276.338 517.941 276.799 518.278 277.204 518.677L277.693 519.077L278.113 519.506C278.321 519.711 278.601 519.826 278.892 519.826C279.131 519.828 279.363 519.751 279.552 519.606L327.837 483.163C327.981 483.061 328.099 482.926 328.18 482.77C328.262 482.614 328.305 482.44 328.306 482.264C328.306 481.976 328.195 481.7 327.996 481.493C327.796 481.286 327.524 481.165 327.237 481.154L327.297 481.124Z" fill="black"/>
<path d="M454.585 525.153C454.182 525.148 453.794 525.003 453.486 524.743L421.749 507.326L421.02 507.076C420.353 506.809 419.664 506.598 418.961 506.446L417.293 506.296C417.186 506.289 417.084 506.25 417.001 506.184C416.917 506.118 416.855 506.028 416.823 505.927C416.788 505.826 416.783 505.717 416.81 505.614C416.837 505.511 416.893 505.418 416.973 505.347L494.106 435.528C494.209 435.439 494.34 435.389 494.476 435.388C494.591 435.386 494.703 435.421 494.796 435.488C494.898 435.562 494.972 435.669 495.005 435.791C495.037 435.913 495.027 436.042 494.976 436.158L455.555 524.833C455.511 524.928 455.44 525.009 455.352 525.066C455.263 525.122 455.16 525.153 455.055 525.153H454.585Z" fill="#2AA7FF"/>
<path d="M494.476 435.938L455.075 524.603H454.605C454.316 524.599 454.039 524.488 453.826 524.293L422.039 506.846C421.065 506.459 420.063 506.145 419.042 505.907L417.333 505.747L494.466 435.938M494.466 434.839C494.202 434.845 493.95 434.948 493.757 435.128L416.623 504.937C416.463 505.078 416.348 505.263 416.292 505.47C416.237 505.676 416.245 505.894 416.313 506.096C416.381 506.3 416.507 506.48 416.676 506.613C416.845 506.747 417.049 506.827 417.263 506.846L418.932 506.996C419.583 507.141 420.221 507.338 420.84 507.585L421.59 507.855L453.186 525.202C453.592 525.521 454.09 525.696 454.605 525.702H455.075C455.287 525.704 455.495 525.643 455.673 525.528C455.85 525.412 455.99 525.247 456.074 525.053L495.476 436.447C495.556 436.29 495.597 436.115 495.595 435.938C495.597 435.794 495.57 435.651 495.515 435.518C495.461 435.385 495.381 435.263 495.28 435.161C495.179 435.059 495.058 434.978 494.925 434.922C494.793 434.867 494.65 434.839 494.506 434.839H494.466Z" fill="black"/>
<path d="M496.045 432.59C495.923 432.589 495.804 432.551 495.705 432.48L462.07 406.779C461.978 406.708 461.912 406.61 461.879 406.498C461.847 406.387 461.851 406.269 461.89 406.16C461.926 406.051 461.996 405.956 462.089 405.89C462.183 405.823 462.295 405.788 462.409 405.79L509.635 406.569C509.742 406.572 509.846 406.606 509.934 406.666C510.023 406.726 510.092 406.81 510.134 406.909C510.174 407.01 510.183 407.12 510.162 407.226C510.14 407.332 510.089 407.43 510.015 407.509L508.606 408.907C508.613 408.987 508.613 409.068 508.606 409.147C508.604 409.227 508.588 409.305 508.556 409.377C506.857 413.074 505.118 416.872 503.239 420.469L502.3 422.188C500.611 425.256 498.873 428.433 496.994 431.561L496.524 432.34C496.484 432.406 496.43 432.462 496.367 432.505C496.303 432.548 496.231 432.577 496.155 432.59H496.045Z" fill="#0D4A70"/>
<path d="M462.38 406.329L509.595 407.109L508.186 408.508C508.036 408.668 508.036 408.827 508.036 409.137C506.317 412.874 504.609 416.612 502.74 420.199L501.801 421.918C500.082 425.026 498.373 428.143 496.505 431.261L496.035 432.04L462.38 406.329ZM462.38 405.23C462.15 405.231 461.926 405.302 461.738 405.434C461.551 405.567 461.408 405.754 461.33 405.97C461.257 406.19 461.255 406.428 461.323 406.65C461.391 406.872 461.526 407.067 461.71 407.209L495.365 432.92C495.558 433.066 495.793 433.143 496.035 433.14C496.104 433.15 496.175 433.15 496.245 433.14C496.397 433.113 496.542 433.053 496.67 432.965C496.798 432.877 496.905 432.763 496.984 432.63L497.444 431.851C499.322 428.713 501.071 425.535 502.77 422.467L503.699 420.749C505.598 417.121 507.347 413.304 509.035 409.617C509.103 409.473 509.137 409.316 509.135 409.157L510.374 407.918C510.526 407.765 510.629 407.57 510.671 407.359C510.714 407.148 510.694 406.929 510.614 406.729C510.533 406.529 510.395 406.358 510.217 406.235C510.04 406.113 509.83 406.045 509.615 406.04L462.399 405.26L462.38 405.23Z" fill="black"/>
<path d="M461.436 257.888H461.316C461.196 257.859 461.089 257.792 461.012 257.696C460.934 257.6 460.89 257.482 460.887 257.358L459.168 188.489C459.168 188.34 459.225 188.197 459.328 188.089C459.378 188.036 459.438 187.993 459.505 187.964C459.572 187.935 459.644 187.92 459.718 187.919H460.507C461.398 187.899 462.286 187.816 463.165 187.669L463.545 187.609H463.865L499.948 178.746C499.991 178.737 500.035 178.737 500.078 178.746C500.161 178.744 500.244 178.762 500.318 178.798C500.393 178.835 500.458 178.889 500.508 178.956C500.575 179.035 500.617 179.132 500.63 179.235C500.642 179.338 500.624 179.442 500.578 179.535L461.926 257.608C461.878 257.695 461.807 257.768 461.721 257.817C461.634 257.866 461.536 257.891 461.436 257.888Z" fill="#393939"/>
<path d="M500.039 179.285L461.398 257.358L459.689 188.479H460.458C461.504 188.455 462.546 188.352 463.576 188.169H463.896L500.039 179.285ZM500.039 178.186H499.83L463.856 187.03H463.526L463.156 187.08C462.298 187.226 461.429 187.309 460.558 187.33H459.789C459.642 187.329 459.496 187.358 459.361 187.415C459.225 187.471 459.102 187.554 458.999 187.659C458.792 187.874 458.678 188.161 458.68 188.459L460.398 257.338C460.405 257.584 460.494 257.82 460.649 258.01C460.805 258.199 461.019 258.332 461.258 258.388H461.498C461.704 258.389 461.908 258.333 462.084 258.225C462.261 258.118 462.404 257.963 462.497 257.778L501.039 179.835C501.141 179.67 501.193 179.479 501.189 179.285C501.189 178.996 501.074 178.718 500.87 178.512C500.666 178.306 500.389 178.189 500.099 178.186H500.039Z" fill="black"/>
<path d="M206.849 525.998C206.134 526.004 205.433 525.807 204.826 525.431L204.573 525.309C201.447 523.598 194.164 519.63 175.743 502.804C169.755 497.468 165.092 493.095 161.046 489.055L152.033 478.931C151.962 478.834 151.924 478.717 151.924 478.597C151.924 478.477 151.962 478.36 152.033 478.263C152.083 478.183 152.154 478.117 152.237 478.071C152.32 478.025 152.413 478 152.508 478H152.66L243.528 505.466C243.634 505.5 243.728 505.563 243.798 505.65C243.868 505.736 243.911 505.841 243.922 505.952C243.93 506.062 243.907 506.172 243.855 506.268C243.803 506.365 243.725 506.445 243.629 506.499L240.948 507.916L208.771 525.441C208.207 525.829 207.533 526.024 206.849 525.998Z" fill="#393939"/>
<path d="M152.044 478.164L242.847 506.11L240.168 507.552L208.01 525.382C207.547 525.707 206.995 525.877 206.433 525.866C205.82 525.878 205.216 525.71 204.694 525.382L204.381 525.228C200.913 523.301 193.654 519.119 175.69 502.412C169.857 497.117 165.125 492.616 161.021 488.444L152.044 478.143M152.044 477C151.856 477 151.672 477.048 151.507 477.14C151.343 477.231 151.204 477.364 151.103 477.525C150.971 477.733 150.909 477.98 150.927 478.228C150.945 478.475 151.043 478.71 151.205 478.895L160.192 489.196C160.196 489.213 160.196 489.231 160.192 489.247C164.236 493.368 168.916 497.818 174.901 503.267C193.351 520.417 200.681 524.486 203.804 526.216L204.098 526.371C204.789 526.797 205.585 527.015 206.392 526.999C207.153 527.01 207.9 526.787 208.536 526.361L240.654 508.551L243.323 507.109C243.519 507.005 243.681 506.844 243.788 506.645C243.894 506.447 243.94 506.221 243.919 505.996C243.905 505.764 243.822 505.54 243.682 505.357C243.541 505.173 243.349 505.037 243.13 504.966L152.357 477.062C152.253 477.047 152.148 477.047 152.044 477.062V477Z" fill="black"/>
<path d="M329.676 479.965L415.103 505.826L404.761 510.483C400.764 512.202 396.057 514.17 391.001 515.799C389.617 516.301 388.344 517.068 387.254 518.057L386.564 518.747L329.676 479.965Z" fill="black"/>
<path d="M332.105 481.124L413.915 505.906L404.562 510.113C400.195 511.982 395.678 513.85 390.852 515.409C389.412 515.926 388.088 516.72 386.955 517.748L386.485 518.217L332.105 481.124ZM327.238 478.806L331.645 481.804L386.025 518.887L386.585 519.276L387.064 518.797L387.534 518.327C388.582 517.384 389.804 516.654 391.132 516.179C396.128 514.55 400.874 512.581 404.881 510.863L414.245 506.656L416.243 505.756L414.155 505.127L332.345 480.345L327.248 478.806H327.238Z" fill="black"/>
<path d="M456.611 187.63H456.511L452.924 187.01C447.388 185.941 444.93 185.381 440.053 184.252C437.755 183.722 434.907 183.063 430.93 182.174L409.736 177.497C409.631 177.472 409.535 177.417 409.461 177.339C409.386 177.261 409.336 177.163 409.316 177.057L401.681 136.237C401.667 136.161 401.669 136.083 401.686 136.007C401.703 135.931 401.736 135.86 401.781 135.797C401.829 135.738 401.888 135.688 401.955 135.652C402.022 135.616 402.095 135.594 402.171 135.588L439.144 132.15C439.277 132.151 439.405 132.201 439.504 132.29C439.562 132.337 439.609 132.396 439.642 132.464C439.675 132.531 439.693 132.605 439.694 132.68L441.093 169.653C441.112 171.499 441.56 173.315 442.402 174.959L442.651 175.209L443.651 175.878C447.243 178.325 450.708 180.953 454.033 183.752L457.031 186.75C457.114 186.832 457.168 186.939 457.185 187.055C457.201 187.17 457.178 187.288 457.121 187.39C457.067 187.474 456.991 187.541 456.901 187.583C456.81 187.625 456.71 187.642 456.611 187.63Z" fill="#2AA7FF"/>
<path d="M439.154 132.69L440.553 169.663C440.574 171.62 441.057 173.544 441.962 175.279L442.272 175.588C446.009 178.236 450.066 181.044 453.643 184.162L456.641 187.16L453.054 186.53C444.95 184.981 443.551 184.532 431.07 181.704L409.856 176.947L402.221 136.117L410.635 135.348L439.154 132.69ZM439.154 131.591H439.054L410.535 134.239L402.121 135.018C401.969 135.031 401.82 135.076 401.686 135.15C401.552 135.224 401.435 135.326 401.342 135.448C401.251 135.571 401.186 135.712 401.152 135.862C401.117 136.011 401.114 136.166 401.142 136.317L408.776 177.137C408.815 177.351 408.916 177.549 409.067 177.706C409.219 177.862 409.413 177.971 409.626 178.017L430.81 182.693C434.807 183.582 437.625 184.242 439.924 184.772C444.82 185.891 447.278 186.46 452.814 187.53L456.421 188.149C456.484 188.16 456.548 188.16 456.611 188.149C456.817 188.155 457.019 188.103 457.196 187.998C457.373 187.894 457.517 187.742 457.611 187.56C457.722 187.353 457.764 187.116 457.73 186.884C457.695 186.651 457.587 186.436 457.421 186.271L454.423 183.273L454.373 183.213C451.065 180.345 447.438 177.787 443.931 175.309L442.931 174.629L442.821 174.519C442.039 172.969 441.625 171.259 441.612 169.523L440.203 132.55C440.197 132.402 440.161 132.257 440.097 132.123C440.034 131.989 439.944 131.869 439.834 131.77C439.633 131.59 439.374 131.49 439.104 131.491L439.154 131.591Z" fill="black"/>
<path d="M551.661 396.596H551.531C551.438 396.575 551.352 396.529 551.282 396.464C551.212 396.399 551.16 396.318 551.131 396.226L522.462 301.636C522.428 301.527 522.429 301.411 522.465 301.304C522.501 301.196 522.57 301.102 522.662 301.036C522.758 300.966 522.873 300.928 522.992 300.926C523.098 300.927 523.203 300.958 523.292 301.016L525.11 302.225C525.44 302.354 525.758 302.511 526.06 302.695L526.349 302.855L559.325 318.274C559.925 318.51 560.447 318.909 560.832 319.427C561.217 319.944 561.45 320.559 561.504 321.201C562.119 327.71 562.172 334.259 561.664 340.777C561.514 345.174 561.074 350.54 560.265 357.635C557.956 380.388 555.678 388.882 554.159 393.279C553.822 394.113 553.375 394.9 552.83 395.617L552.001 396.456C551.907 396.541 551.787 396.59 551.661 396.596Z" fill="#0D4A70"/>
<path d="M523.022 301.456L524.89 302.705C525.322 302.879 525.74 303.086 526.139 303.325L559.175 318.753C559.686 318.958 560.131 319.3 560.46 319.74C560.79 320.181 560.992 320.704 561.044 321.251C561.64 327.728 561.69 334.243 561.194 340.727C561.044 345.244 560.574 350.72 559.795 357.555C557.616 379.059 555.428 388.103 553.719 393.089C553.399 393.866 552.979 394.599 552.47 395.267L551.691 396.047L523.022 301.456ZM523.022 300.357C522.784 300.356 522.552 300.433 522.362 300.577C522.181 300.712 522.046 300.899 521.975 301.114C521.903 301.328 521.899 301.559 521.963 301.776L550.642 396.366C550.697 396.548 550.797 396.711 550.934 396.843C551.07 396.974 551.238 397.068 551.421 397.116C551.511 397.126 551.601 397.126 551.691 397.116C551.835 397.116 551.979 397.089 552.112 397.034C552.246 396.979 552.368 396.898 552.47 396.796L553.25 396.017L553.35 395.897C553.917 395.152 554.384 394.335 554.739 393.469C554.743 393.449 554.743 393.428 554.739 393.409C556.267 388.982 558.556 380.418 560.874 357.635C561.683 350.53 562.123 345.164 562.283 340.737C562.78 334.202 562.726 327.637 562.123 321.112C562.051 320.363 561.775 319.649 561.323 319.048C560.872 318.447 560.264 317.982 559.565 317.704L526.589 302.295L526.349 302.165C526.031 301.976 525.697 301.816 525.35 301.686L523.591 300.507C523.409 300.39 523.198 300.328 522.982 300.327L523.022 300.357Z" fill="black"/>
<path d="M336.62 478.406C336.51 478.407 336.404 478.375 336.313 478.314C336.222 478.254 336.152 478.168 336.11 478.067C336.058 477.944 336.052 477.805 336.095 477.679C336.137 477.552 336.224 477.445 336.34 477.377L459.919 405.86C460 405.809 460.094 405.781 460.189 405.78C460.313 405.78 460.433 405.822 460.529 405.9L495.273 432.7C495.357 432.76 495.421 432.843 495.459 432.939C495.496 433.034 495.504 433.139 495.483 433.24C495.464 433.339 495.418 433.431 495.349 433.505C495.28 433.58 495.191 433.633 495.094 433.659L336.769 478.386L336.62 478.406Z" fill="#2AA7FF"/>
<path d="M460.189 406.329L494.943 433.13L336.619 477.857L460.189 406.329ZM460.189 405.23C459.996 405.23 459.806 405.282 459.639 405.38L336.07 476.908C335.838 477.042 335.663 477.256 335.577 477.509C335.49 477.763 335.499 478.039 335.6 478.287C335.685 478.482 335.824 478.65 336.001 478.769C336.178 478.887 336.386 478.952 336.599 478.956C336.699 478.971 336.8 478.971 336.899 478.956L495.223 434.229C495.42 434.174 495.597 434.066 495.735 433.916C495.872 433.766 495.965 433.58 496.003 433.379C496.041 433.179 496.023 432.972 495.951 432.782C495.879 432.591 495.755 432.424 495.593 432.3L460.848 405.5C460.653 405.352 460.414 405.271 460.169 405.27L460.189 405.23Z" fill="black"/>
<path d="M248.411 506.456H248.262L155.07 478.247C154.949 478.212 154.843 478.136 154.772 478.032C154.701 477.928 154.668 477.803 154.68 477.677C154.689 477.551 154.741 477.431 154.829 477.34C154.917 477.249 155.034 477.191 155.16 477.177L165.152 475.928L292 459.41H292.069C292.171 459.409 292.271 459.437 292.357 459.49C292.444 459.543 292.514 459.619 292.559 459.71C292.611 459.811 292.631 459.926 292.614 460.039C292.598 460.152 292.548 460.257 292.469 460.34L271.744 481.844L248.841 506.306C248.784 506.359 248.716 506.4 248.642 506.426C248.568 506.452 248.49 506.462 248.411 506.456Z" fill="#2AA7FF"/>
<path d="M292.05 459.94L271.325 481.444L248.421 505.906L155.23 477.727L165.222 476.488L292.07 459.97M292.07 458.861H291.95L165.122 475.369L155.13 476.618C154.873 476.642 154.633 476.755 154.45 476.938C154.268 477.12 154.155 477.36 154.131 477.617C154.11 477.869 154.176 478.12 154.318 478.329C154.46 478.538 154.669 478.692 154.91 478.766L248.102 506.966C248.204 506.985 248.309 506.985 248.411 506.966C248.557 506.979 248.704 506.963 248.843 506.919C248.982 506.874 249.111 506.802 249.221 506.706L272.124 482.244L292.809 460.779C292.916 460.678 293.002 460.555 293.06 460.42C293.118 460.284 293.149 460.138 293.149 459.99C293.15 459.846 293.123 459.702 293.069 459.569C293.015 459.435 292.935 459.313 292.834 459.21C292.733 459.107 292.612 459.025 292.479 458.968C292.347 458.912 292.204 458.882 292.06 458.881L292.07 458.861Z" fill="black"/>
<path d="M458.32 258.478C458.234 258.477 458.148 258.456 458.071 258.418L385.923 216.498C385.864 216.464 385.813 216.417 385.771 216.362C385.73 216.308 385.7 216.245 385.684 216.179C385.668 216.114 385.666 216.047 385.678 215.981C385.69 215.916 385.716 215.854 385.754 215.799L409.106 178.396C409.152 178.326 409.214 178.268 409.287 178.228C409.36 178.188 409.443 178.167 409.526 178.166C409.612 178.166 409.697 178.188 409.773 178.23C409.848 178.272 409.911 178.333 409.956 178.406L458.73 257.718C458.788 257.813 458.812 257.925 458.8 258.035C458.787 258.145 458.738 258.248 458.66 258.328C458.57 258.419 458.448 258.472 458.32 258.478Z" fill="#0D4A70"/>
<path d="M409.546 178.666L458.32 257.978L386.173 216.059L409.546 178.666ZM409.546 177.667C409.376 177.667 409.209 177.709 409.06 177.792C408.912 177.874 408.787 177.992 408.697 178.136L385.324 215.529C385.253 215.643 385.206 215.769 385.186 215.902C385.165 216.034 385.171 216.169 385.204 216.299C385.236 216.43 385.293 216.553 385.374 216.661C385.455 216.77 385.557 216.86 385.673 216.928L457.821 258.847C457.973 258.934 458.145 258.979 458.32 258.977C458.454 258.978 458.587 258.952 458.71 258.9C458.834 258.849 458.946 258.773 459.04 258.678C459.194 258.518 459.29 258.311 459.314 258.09C459.337 257.869 459.287 257.647 459.17 257.458L410.395 178.136C410.305 177.992 410.18 177.874 410.032 177.792C409.883 177.709 409.716 177.667 409.546 177.667Z" fill="black"/>
<path d="M516.135 278.793C516.076 278.802 516.015 278.802 515.956 278.793L461.575 260.406C461.499 260.38 461.43 260.338 461.371 260.282C461.313 260.227 461.266 260.16 461.236 260.086C461.204 260.015 461.188 259.939 461.188 259.861C461.188 259.784 461.204 259.707 461.236 259.637L499.727 181.873C499.772 181.782 499.841 181.705 499.928 181.651C500.015 181.598 500.115 181.571 500.217 181.574H500.297C500.413 181.59 500.521 181.644 500.604 181.727C500.687 181.809 500.74 181.917 500.757 182.033L516.655 278.183C516.669 278.277 516.659 278.373 516.626 278.462C516.593 278.552 516.538 278.631 516.465 278.693C516.368 278.76 516.253 278.795 516.135 278.793Z" fill="#2AA7FF"/>
<path d="M500.239 182.093L516.137 278.243L461.747 259.886L500.239 182.133M500.239 181.034C500.032 181.032 499.829 181.089 499.652 181.196C499.476 181.304 499.333 181.459 499.24 181.644L460.748 259.407C460.684 259.55 460.65 259.705 460.65 259.861C460.65 260.018 460.684 260.173 460.748 260.316C460.811 260.46 460.903 260.589 461.018 260.696C461.133 260.802 461.269 260.884 461.417 260.936L515.798 279.322C515.913 279.362 516.035 279.382 516.157 279.382C516.417 279.381 516.668 279.289 516.867 279.122C517.01 279.002 517.119 278.847 517.184 278.672C517.248 278.496 517.267 278.307 517.237 278.123L501.328 181.943C501.29 181.713 501.179 181.5 501.012 181.337C500.845 181.173 500.63 181.067 500.399 181.034H500.239Z" fill="black"/>
<path d="M459.451 405.869L520.147 303.115L508.675 406.819L459.451 405.869Z" fill="black"/>
<path d="M519.536 304.963L508.314 406.399L460.159 405.47L519.536 304.963ZM520.765 301.266L518.826 304.544L459.46 405.05L458.74 406.259H460.139L508.294 407.189H509.043L509.123 406.439L520.345 305.003L520.765 301.216V301.266Z" fill="black"/>
<path d="M293.059 459.74L330.322 480.145L249.531 505.996L293.059 459.74Z" fill="black"/>
<path d="M293.19 460.25L329.344 480.035L250.961 505.127L293.19 460.25ZM293.03 459.251L292.601 459.71L250.362 504.587L248.203 506.886L251.201 505.886L329.584 480.795L331.392 480.215L329.723 479.306L293.57 459.51L293.02 459.211L293.03 459.251Z" fill="black"/>
<path d="M410.236 177.397L413.074 178.106C423.796 180.794 451.236 186.83 457.772 188.099L458.721 188.339L458.891 192.845L460.29 254.87V258.867L410.236 177.397Z" fill="black"/>
<path d="M411.106 178.036L412.975 178.506C423.577 181.154 451.157 187.23 457.702 188.499L458.322 188.659L458.481 192.866L459.88 254.88V257.378L411.106 178.036ZM409.357 176.757L410.407 178.466L459.181 257.788L460.7 260.246V254.89L459.291 192.856L459.141 188.639V188.019L458.541 187.869L457.922 187.719C451.347 186.46 423.947 180.425 413.195 177.727L411.326 177.257L409.377 176.767L409.357 176.757Z" fill="black"/>
<path d="M458.322 188.639L458.482 193.005L458.322 188.639Z" fill="#144D8F"/>
<path d="M208.553 402.932C205.789 398.372 204.369 393.124 204.456 387.793L206.525 265.512C206.551 263.506 206.991 261.527 207.818 259.699C208.645 257.871 209.841 256.234 211.331 254.89L209.962 255.699C207.81 256.962 206.019 258.756 204.761 260.91C203.503 263.065 202.82 265.506 202.777 268L200.709 390.281C200.621 395.623 202.045 400.881 204.816 405.45L208.653 403.141L208.553 402.932Z" fill="black"/>
<path d="M216.787 411.396C210.152 407.568 208.553 402.932 208.553 402.932C208.553 402.932 210.062 412.725 215.418 415.682L293.451 458.651L331.163 479.256L336.089 476.398C299.746 456.942 221.883 414.333 216.787 411.396Z" fill="#2AA7FF"/>
<path d="M204.717 402.592L208.654 403.162C208.654 403.162 209.324 410.776 214.33 414.953C214.33 414.953 207.036 409.677 204.817 405.47C202.599 401.263 204.717 402.592 204.717 402.592Z" fill="black"/>
<path d="M206.426 185.731C209.514 184.532 217.598 181.184 220.875 178.037C224.952 174.119 224.193 134.498 224.952 133.009C225.712 131.521 269.52 112.854 284.319 107.688C285.488 107.278 286.447 106.889 287.247 106.529C282.18 107.308 273.187 109.367 255.43 115.522C231.747 123.626 225.042 127.833 221.775 129.862C221.093 130.291 220.533 130.889 220.15 131.598C219.766 132.307 219.572 133.103 219.586 133.909V170.062C219.581 171.694 219.199 173.303 218.469 174.762C217.739 176.222 216.682 177.493 215.379 178.476C215.379 178.476 210.383 182.843 208.215 184.712C207.652 185.108 207.053 185.449 206.426 185.731Z" fill="white"/>
<path d="M104.53 322.271C105.719 320.732 129.871 309.34 135.397 307.132C140.923 304.924 140.583 300.527 140.583 300.527C139.587 301.896 138.241 302.973 136.686 303.645L103.96 318.913C103.256 319.284 102.649 319.816 102.189 320.465C101.728 321.114 101.428 321.863 101.312 322.651C100.852 326.548 99.7532 334.492 102.721 359.893C105.369 384.825 108.177 392.31 109.416 395.867C109.711 396.614 110.173 397.284 110.767 397.825C111.361 398.365 112.072 398.762 112.844 398.985C102.961 371.645 103.331 323.84 104.53 322.271Z" fill="white"/>
<path d="M326.877 187.08C328.338 186.397 329.944 186.088 331.554 186.178C333.164 186.269 334.726 186.757 336.1 187.599C340.977 190.497 460.819 264.183 460.819 264.183V263.314C460.649 261.907 460.161 260.557 459.392 259.366C458.624 258.175 457.594 257.174 456.382 256.439C435.927 244.028 341.396 186.88 335.94 185.261C334.408 184.707 332.752 184.583 331.154 184.904C329.556 185.224 328.077 185.977 326.877 187.08Z" fill="#2AA7FF"/>
<path d="M383.324 525.438L384.424 522.438C384.224 522.738 384.124 523.237 383.924 523.637L383.324 525.438Z" fill="#2A70B8"/>
<path d="M446.824 181.538L447.424 185.938L446.824 181.538Z" fill="#144D8F"/>
<path d="M158.924 99.6375C164.999 99.6375 169.924 94.7126 169.924 88.6375C169.924 82.5624 164.999 77.6375 158.924 77.6375C152.849 77.6375 147.924 82.5624 147.924 88.6375C147.924 94.7126 152.849 99.6375 158.924 99.6375Z" fill="#B2BAC1"/>
<path d="M106.525 118.437C109.176 118.437 111.325 116.288 111.325 113.637C111.325 110.987 109.176 108.837 106.525 108.837C103.874 108.837 101.725 110.987 101.725 113.637C101.725 116.288 103.874 118.437 106.525 118.437Z" fill="#B0E1FF"/>
<path d="M162.224 598.137C157.224 598.237 153.024 594.237 152.924 589.237C152.824 584.237 156.824 580.038 161.824 579.938C166.824 579.838 171.024 583.837 171.124 588.837C171.224 593.837 167.224 598.137 162.224 598.137ZM161.824 583.637C158.924 583.637 156.524 586.137 156.624 589.037C156.624 591.937 159.124 594.337 162.024 594.237C164.924 594.237 167.324 591.737 167.224 588.837C167.224 586.037 164.824 583.637 161.824 583.637Z" fill="#B2BAC1"/>
<path d="M541.225 559.637L530.625 549.637L540.625 539.137L551.225 549.137L541.225 559.637ZM536.025 549.337L541.025 554.137L545.825 549.137L540.825 544.337L536.025 549.337Z" fill="#B0E1FF"/>
<path d="M101.624 565.037L86.4242 574.237L70.8242 565.637L70.3242 547.938L85.5242 538.737L101.124 547.337L101.624 565.037ZM113.324 555.037L108.824 552.737C108.624 551.337 108.324 549.937 107.724 548.637L110.924 544.938C109.724 542.138 108.024 539.637 105.924 537.537L100.824 538.737C100.024 538.037 99.2242 537.437 98.4242 536.837L98.5242 531.737C95.8242 530.237 92.9242 529.338 89.8242 528.938L86.7242 533.137C86.3242 533.137 85.8242 533.137 85.4242 533.137C85.0242 533.137 84.5242 533.137 84.1242 533.137L80.8242 529.137C77.7242 529.637 74.8242 530.837 72.1242 532.337L72.4242 537.438C71.6242 538.038 70.8242 538.637 70.0242 539.337L64.9242 538.337C62.9242 540.537 61.4242 543.138 60.3242 545.938L63.7242 549.438C63.3242 550.737 62.9242 552.137 62.8242 553.537L58.3242 556.037C58.3242 556.237 58.3242 556.437 58.3242 556.737C58.3242 559.337 58.8242 561.937 59.6242 564.337L64.2242 564.837C64.9242 566.637 65.8242 568.237 66.9242 569.837L65.2242 574.337C66.9242 576.337 68.9242 578.037 71.1242 579.337L75.0242 576.837C76.9242 577.837 78.9242 578.537 81.0242 578.938L82.5242 583.337C83.7242 583.537 85.0242 583.637 86.3242 583.537C87.6242 583.537 88.9242 583.437 90.1242 583.137L91.4242 578.737C93.5242 578.237 95.6242 577.337 97.4242 576.237L101.324 578.537C103.524 577.037 105.424 575.237 107.024 573.237L105.124 568.737C106.124 567.237 106.924 565.537 107.624 563.737L112.224 563.037C112.924 560.637 113.224 558.037 113.124 555.438C113.424 555.538 113.424 555.237 113.324 555.037Z" fill="#B0E1FF"/>
<path d="M542.724 77.9375L539.724 76.6375C539.524 75.7375 539.324 74.8375 539.024 74.0375L541.024 71.6375C540.124 69.8375 538.924 68.3375 537.524 67.1375L534.224 68.1375C533.724 67.7375 533.224 67.4375 532.624 67.0375L532.424 63.7375C530.724 62.9375 528.724 62.4375 526.724 62.2375L524.724 64.9375C524.424 64.9375 524.224 64.9375 523.924 64.9375C523.624 64.9375 523.324 64.9375 523.124 64.9375L521.024 62.3375C519.024 62.7375 517.224 63.6375 515.524 64.6375L515.924 67.9375C515.424 68.3375 514.824 68.8375 514.524 69.2375L511.224 68.8375C510.024 70.3375 509.124 71.9375 508.524 73.8375L510.724 76.0375C510.424 76.8375 510.324 77.7375 510.224 78.6375L507.424 80.3375C507.424 80.4375 507.424 80.6375 507.424 80.7375C507.524 82.4375 507.924 84.0375 508.524 85.6375L511.524 85.8375C512.024 86.9375 512.624 87.9375 513.324 88.9375L512.324 91.9375C513.524 93.1375 514.724 94.2375 516.324 94.9375L518.724 93.2375C519.924 93.8375 521.324 94.3375 522.724 94.4375L523.824 97.1375C524.624 97.2375 525.424 97.2375 526.224 97.2375C527.024 97.2375 527.824 97.0375 528.624 96.9375L529.324 94.1375C530.724 93.7375 532.024 93.1375 533.124 92.3375L535.724 93.8375C537.024 92.8375 538.324 91.6375 539.224 90.2375L537.824 87.4375C538.424 86.4375 538.924 85.2375 539.124 84.1375L542.124 83.5375C542.424 81.9375 542.524 80.3375 542.424 78.6375C542.724 78.2375 542.724 78.0375 542.724 77.9375Z" fill="#2AA7FF"/>
<path d="M7.72461 236.337L291.925 348.138" stroke="url(#paint2_linear_220_7290)" stroke-width="1.1984" stroke-miterlimit="10"/>
<path d="M292.325 358.238C290.125 358.338 288.025 357.738 286.325 356.538C284.425 355.038 283.225 352.938 282.925 350.738C282.725 348.338 283.125 346.038 284.525 344.238C286.125 342.238 288.325 340.938 290.925 340.638C293.125 340.538 295.225 341.138 296.925 342.338C298.825 343.838 300.025 345.938 300.325 348.138C300.525 350.538 300.125 352.838 298.725 354.638C297.225 356.838 294.925 358.038 292.325 358.238Z" fill="#2AA7FF"/>
<path d="M291.025 341.138C293.025 341.038 294.925 341.537 296.625 342.837C300.225 345.537 301.125 350.837 298.325 354.437C296.825 356.437 294.625 357.538 292.425 357.738C290.425 357.838 288.525 357.337 286.825 356.037C283.225 353.337 282.325 348.037 285.125 344.437C286.525 342.337 288.725 341.238 291.025 341.138ZM290.925 339.937C288.225 340.137 285.725 341.538 284.125 343.738C280.925 347.938 281.925 353.837 286.025 357.037C287.825 358.437 290.125 359.137 292.425 358.837C295.125 358.637 297.625 357.237 299.225 355.037C302.425 350.837 301.425 344.938 297.325 341.738C295.625 340.338 293.225 339.737 290.925 339.937Z" fill="black"/>
<path d="M616.023 483.437C613.823 483.437 611.723 482.737 610.123 481.437C606.323 478.237 605.923 472.637 609.023 468.837C610.723 466.937 613.123 465.737 615.723 465.637C617.923 465.637 620.023 466.337 621.623 467.637C625.423 470.837 625.823 476.437 622.723 480.237C621.023 482.437 618.623 483.437 616.023 483.437Z" fill="#2AA7FF"/>
<path d="M615.724 466.237C617.724 466.237 619.624 466.837 621.224 468.237C624.624 471.137 625.224 476.438 622.224 479.938C620.624 481.837 618.324 482.837 616.024 482.938C614.024 482.938 612.124 482.337 610.524 480.938C607.124 478.037 606.524 472.737 609.524 469.237C611.124 467.437 613.424 466.337 615.724 466.237ZM615.624 465.037C612.924 465.037 610.324 466.337 608.624 468.437C606.924 470.337 606.224 472.737 606.424 475.337C606.524 477.937 607.824 480.237 609.824 481.737C611.524 483.237 613.824 484.038 616.124 483.938C618.824 483.938 621.424 482.637 623.124 480.537C624.824 478.637 625.524 476.237 625.324 473.637C625.224 471.037 623.924 468.737 621.924 467.237C620.324 465.937 617.924 465.037 615.624 465.037Z" fill="black"/>
<path d="M9.6247 244.038C7.4247 244.038 5.32469 243.338 3.72469 242.038C-0.0753057 238.838 -0.475304 233.237 2.6247 229.438C4.3247 227.538 6.72469 226.338 9.32469 226.238C11.5247 226.238 13.6247 226.938 15.2247 228.238C19.0247 231.438 19.4247 237.037 16.3247 240.837C14.6247 242.837 12.2247 243.938 9.6247 244.038Z" fill="#2AA7FF"/>
<path d="M9.32448 226.837C11.3245 226.837 13.2245 227.437 14.8245 228.837C18.2245 231.737 18.8245 237.038 15.8245 240.538C14.2245 242.438 11.9245 243.438 9.62448 243.538C7.62448 243.538 5.72448 242.938 4.12448 241.538C0.72448 238.638 0.12448 233.337 3.12448 229.837C4.72448 227.937 7.02448 226.837 9.32448 226.837ZM9.22448 225.638C6.52448 225.638 3.92448 226.938 2.22448 229.038C-1.17552 233.038 -0.575523 238.938 3.32448 242.438C5.02448 243.938 7.32448 244.738 9.62448 244.638C12.3245 244.638 14.9245 243.338 16.6245 241.238C20.0245 237.238 19.4245 231.337 15.5245 227.837C13.9245 226.337 11.5245 225.638 9.22448 225.638Z" fill="black"/>
<path d="M288.825 334.738L282.025 289.437L243.025 24.6375" stroke="#F3F3F5" stroke-width="1.6958" stroke-miterlimit="10"/>
<path d="M244.331 33.5001C242.131 33.5001 240.031 32.7001 238.431 31.3001C236.631 29.7001 235.631 27.5001 235.431 25.2001C235.331 22.8001 236.031 20.5001 237.631 18.8001C239.331 16.9001 241.731 15.8001 244.331 15.8001C246.531 15.8001 248.631 16.6001 250.231 18.0001C253.931 21.3001 254.231 26.9001 251.031 30.6001C249.331 32.4001 246.931 33.5001 244.331 33.5001Z" fill="#2AA7FF"/>
<path d="M244.432 16.2C246.432 16.2 248.332 16.9 249.932 18.3C253.332 21.3 253.732 26.6 250.632 30C249.032 31.9 246.732 32.8 244.432 32.8C242.432 32.8 240.532 32.1001 238.932 30.7001C235.532 27.7001 235.132 22.4 238.232 19C239.832 17.2 242.132 16.2 244.432 16.2ZM244.432 15C241.732 15 239.132 16.2 237.332 18.2C235.632 20.1 234.832 22.5 234.932 25.1C235.132 27.6 236.232 30 238.132 31.6C239.832 33.1 242.132 34 244.432 34C247.132 34 249.732 32.8 251.532 30.8C255.032 26.9 254.632 20.9 250.732 17.4C248.932 15.9 246.732 15 244.432 15Z" fill="black"/>
<path d="M194.225 199.537C194.325 199.537 194.325 199.437 194.225 199.537Z" fill="#2AA7FF"/>
</g>
<defs>
<linearGradient id="paint0_linear_220_7290" x1="450.594" y1="63.752" x2="332.135" y2="674.204" gradientUnits="userSpaceOnUse">
<stop offset="2.77045e-07" stop-color="#2AA7FF"/>
<stop offset="0.5128" stop-color="white"/>
<stop offset="1" stop-color="#2AA7FF"/>
</linearGradient>
<linearGradient id="paint1_linear_220_7290" x1="379.893" y1="4.84872" x2="300.421" y2="414.39" gradientUnits="userSpaceOnUse">
<stop offset="2.77045e-07" stop-color="#2AA7FF"/>
<stop offset="0.5128" stop-color="white"/>
<stop offset="1" stop-color="#2AA7FF"/>
</linearGradient>
<linearGradient id="paint2_linear_220_7290" x1="155.2" y1="264.533" x2="144.382" y2="320.285" gradientUnits="userSpaceOnUse">
<stop offset="2.77045e-07" stop-color="#2AA7FF"/>
<stop offset="0.5128" stop-color="white"/>
<stop offset="1" stop-color="#2AA7FF"/>
</linearGradient>
<clipPath id="clip0_220_7290">
<rect width="629.244" height="682.706" fill="white"/>
</clipPath>
</defs>
</svg>
