<svg width="738" height="683" viewBox="0 0 738 683" fill="none" xmlns="http://www.w3.org/2000/svg">
<g clip-path="url(#clip0_219_5230)">
<path d="M3.69922 178.837L733.099 535.337" stroke="url(#paint0_linear_219_5230)" stroke-width="1.1" stroke-miterlimit="10"/>
<path d="M65 137.038L733.2 463.738" stroke="url(#paint1_linear_219_5230)" stroke-width="1.1" stroke-miterlimit="10"/>
<path d="M185.301 125.137L732.901 392.837" stroke="url(#paint2_linear_219_5230)" stroke-width="1.1" stroke-miterlimit="10"/>
<path d="M307.9 112.337L734.9 320.037" stroke="url(#paint3_linear_219_5230)" stroke-width="1.1" stroke-miterlimit="10"/>
<path d="M428.9 100.337L734.9 248.837" stroke="url(#paint4_linear_219_5230)" stroke-width="1.1" stroke-miterlimit="10"/>
<path d="M550.4 88.3374L734.7 178.137" stroke="url(#paint5_linear_219_5230)" stroke-width="1.1" stroke-miterlimit="10"/>
<path d="M3.80078 250.038L672.401 577.338" stroke="url(#paint6_linear_219_5230)" stroke-width="1.1" stroke-miterlimit="10"/>
<path d="M3.5 321.738L551.2 589.338" stroke="url(#paint7_linear_219_5230)" stroke-width="1.1" stroke-miterlimit="10"/>
<path d="M3.5 392.938L429.5 600.538" stroke="url(#paint8_linear_219_5230)" stroke-width="1.1" stroke-miterlimit="10"/>
<path d="M3.90039 463.637L309 612.837" stroke="url(#paint9_linear_219_5230)" stroke-width="1.1" stroke-miterlimit="10"/>
<path d="M3.69922 535.338L187.799 625.338" stroke="url(#paint10_linear_219_5230)" stroke-width="1.1" stroke-miterlimit="10"/>
<path d="M2.30078 254.437L193.001 123.137" stroke="url(#paint11_linear_219_5230)" stroke-width="1.1" stroke-miterlimit="10"/>
<path d="M0 326.637L315.4 109.637" stroke="url(#paint12_linear_219_5230)" stroke-width="1.1" stroke-miterlimit="10"/>
<path d="M2.30078 395.937L433.501 99.3374" stroke="url(#paint13_linear_219_5230)" stroke-width="1.1" stroke-miterlimit="10"/>
<path d="M2.5 467.037L554.4 87.3374" stroke="url(#paint14_linear_219_5230)" stroke-width="1.1" stroke-miterlimit="10"/>
<path d="M3.69922 537.238L675.399 74.9375" stroke="url(#paint15_linear_219_5230)" stroke-width="1.1" stroke-miterlimit="10"/>
<path d="M1.30078 608.738L734.701 104.038" stroke="url(#paint16_linear_219_5230)" stroke-width="1.1" stroke-miterlimit="10"/>
<path d="M59.5996 640.837L736.7 174.837" stroke="url(#paint17_linear_219_5230)" stroke-width="1.1" stroke-miterlimit="10"/>
<path d="M178.301 629.038L735.901 245.438" stroke="url(#paint18_linear_219_5230)" stroke-width="1.1" stroke-miterlimit="10"/>
<path d="M300.1 617.038L737.4 316.238" stroke="url(#paint19_linear_219_5230)" stroke-width="1.1" stroke-miterlimit="10"/>
<path d="M423.4 604.338L737.7 388.038" stroke="url(#paint20_linear_219_5230)" stroke-width="1.1" stroke-miterlimit="10"/>
<path d="M543.6 591.737L736.1 459.137" stroke="url(#paint21_linear_219_5230)" stroke-width="1.1" stroke-miterlimit="10"/>
<path d="M667.4 577.738L734.1 531.738" stroke="url(#paint22_linear_219_5230)" stroke-width="1.1" stroke-miterlimit="10"/>
<path d="M417.5 89.2376C417.5 90.9376 416.2 92.3376 414.5 92.5376C412.9 92.7376 411.5 91.4376 411.5 89.8376C411.5 88.1376 412.8 86.7376 414.5 86.5376C416.3 86.4376 417.5 87.6376 417.5 89.2376Z" stroke="url(#paint23_linear_219_5230)" stroke-width="1.102" stroke-miterlimit="10"/>
<path d="M299.102 24.6375L676.602 298.037L395.002 673.938L299.102 24.6375Z" stroke="url(#paint24_linear_219_5230)" stroke-width="1.1984" stroke-miterlimit="10"/>
<path d="M63.8008 236.338L672.001 474.738L455.501 9.5376L63.8008 236.338Z" stroke="url(#paint25_linear_219_5230)" stroke-width="1.1984" stroke-miterlimit="10"/>
<path d="M344.902 334.737L338.102 289.437L299.102 24.6375" stroke="#F3F3F5" stroke-width="1.6958" stroke-miterlimit="10"/>
<path d="M348.401 358.237C346.201 358.337 344.101 357.737 342.401 356.537C340.501 355.037 339.301 352.937 339.001 350.737C338.801 348.337 339.201 346.037 340.601 344.237C342.201 342.237 344.401 340.937 347.001 340.637C349.201 340.537 351.301 341.137 353.001 342.337C354.901 343.837 356.101 345.937 356.401 348.137C356.601 350.537 356.201 352.837 354.801 354.637C353.301 356.837 351.001 358.037 348.401 358.237Z" fill="#2AA7FF"/>
<path d="M347.101 341.137C349.101 341.037 351.001 341.537 352.701 342.837C356.301 345.537 357.201 350.837 354.401 354.437C352.901 356.437 350.701 357.537 348.501 357.737C346.501 357.837 344.601 357.337 342.901 356.037C339.301 353.337 338.401 348.037 341.201 344.437C342.601 342.337 344.801 341.237 347.101 341.137ZM347.001 339.937C344.301 340.137 341.801 341.537 340.201 343.737C337.001 347.937 338.001 353.837 342.101 357.037C343.901 358.437 346.201 359.137 348.501 358.837C351.201 358.637 353.701 357.237 355.301 355.037C358.501 350.837 357.501 344.937 353.401 341.737C351.701 340.337 349.301 339.737 347.001 339.937Z" fill="black"/>
<path d="M395.201 682.237C393.001 682.337 390.901 681.737 389.201 680.537C385.301 677.537 384.501 671.937 387.401 668.037C389.001 666.037 391.201 664.738 393.801 664.438C396.001 664.338 398.101 664.937 399.801 666.137C403.701 669.137 404.501 674.737 401.601 678.637C400.001 680.837 397.701 682.037 395.201 682.237Z" fill="#2AA7FF"/>
<path d="M393.9 665.037C395.9 664.937 397.8 665.437 399.5 666.737C403.1 669.437 404 674.737 401.2 678.337C399.7 680.337 397.5 681.437 395.3 681.637C393.3 681.737 391.4 681.237 389.7 679.937C386.1 677.237 385.2 671.937 388 668.337C389.3 666.437 391.6 665.237 393.9 665.037ZM393.8 663.837C391.1 664.037 388.6 665.437 387 667.637C385.4 669.637 384.8 672.037 385.2 674.637C385.4 677.237 386.9 679.437 389 680.837C390.8 682.237 393.1 682.937 395.4 682.637C398.1 682.437 400.6 681.037 402.2 678.837C403.8 676.837 404.4 674.437 404 671.837C403.7 669.337 402.3 667.037 400.2 665.637C398.4 664.337 396.1 663.737 393.8 663.837Z" fill="black"/>
<path d="M676.5 306.838C674.3 306.938 672.2 306.338 670.5 305.138C666.6 302.138 665.8 296.538 668.7 292.638C670.3 290.638 672.5 289.338 675.1 289.038C677.3 288.938 679.4 289.538 681.1 290.738C685 293.738 685.8 299.338 682.9 303.238C681.4 305.238 679.1 306.638 676.5 306.838Z" fill="#2AA7FF"/>
<path d="M675.201 289.538C677.201 289.438 679.101 289.938 680.801 291.238C684.401 293.938 685.301 299.238 682.501 302.838C681.001 304.838 678.801 305.938 676.601 306.138C674.601 306.238 672.701 305.738 671.001 304.438C667.401 301.738 666.501 296.438 669.301 292.838C670.701 290.838 672.901 289.738 675.201 289.538ZM675.101 288.338C672.401 288.538 669.901 289.938 668.301 292.138C665.101 296.338 666.101 302.238 670.201 305.438C672.001 306.838 674.301 307.538 676.601 307.238C679.301 307.038 681.801 305.638 683.401 303.438C685.001 301.438 685.601 299.038 685.201 296.438C684.801 293.838 683.501 291.638 681.401 290.238C679.701 288.838 677.301 288.138 675.101 288.338Z" fill="black"/>
<path d="M456.201 18.5376C454.001 18.6376 451.901 18.0376 450.201 16.8376C446.301 13.8376 445.501 8.23756 448.401 4.33756C450.001 2.33756 452.201 1.03756 454.801 0.737558C457.001 0.637558 459.101 1.23756 460.801 2.43756C464.701 5.43756 465.501 11.0376 462.601 14.9376C461.201 16.9376 458.801 18.1376 456.201 18.5376Z" fill="#2AA7FF"/>
<path d="M455 1.2375C457 1.1375 458.9 1.6375 460.6 2.9375C464.2 5.6375 465.1 10.9375 462.3 14.5375C460.8 16.5375 458.6 17.6375 456.4 17.8375C454.4 17.9375 452.5 17.4375 450.8 16.1375C447.2 13.4375 446.3 8.1375 449.1 4.5375C450.5 2.6375 452.7 1.3375 455 1.2375ZM454.8 0.0375C452.1 0.2375 449.6 1.6375 448 3.8375C446.4 5.8375 445.8 8.2375 446.2 10.8375C446.4 13.4375 447.9 15.6375 450 17.0375C451.8 18.4375 454.1 19.1375 456.4 18.8375C459.1 18.6375 461.6 17.2375 463.2 15.0375C464.8 13.0375 465.4 10.6375 465 8.0375C464.8 5.4375 463.3 3.2375 461.2 1.8375C459.4 0.437499 457.2 -0.1625 454.8 0.0375Z" fill="black"/>
<path d="M373.639 190.817C373.639 190.817 383.851 187.619 389.717 190.817C395.583 194.015 507.331 260.356 509.879 265.972C512.427 271.588 511.977 419.19 511.977 419.19L553.197 387.923C553.197 387.923 514.915 240.221 514.396 237.033C513.876 233.846 389.737 178.676 389.737 178.676L373.639 190.817Z" fill="black"/>
<path d="M386.309 564.224C362.326 564.224 354.962 562.315 351.424 561.396C350.576 561.148 349.795 560.71 349.142 560.114C348.489 559.518 347.981 558.781 347.657 557.958L335.816 523.524C334.993 521.439 333.531 519.668 331.639 518.467L331.509 518.357C322.269 515.636 313.249 512.215 304.528 508.125C304.472 508.134 304.415 508.134 304.359 508.125C303.959 508.014 303.544 507.97 303.13 507.995C301.367 508.016 299.63 508.425 298.043 509.194L266.127 526.631C265.381 527.047 264.542 527.267 263.688 527.271C262.805 527.262 261.936 527.046 261.15 526.641L260.88 526.491C257.363 524.583 250.038 520.596 231.902 503.968C214.414 488.339 209.028 480.985 207.26 478.556C207.233 478.508 207.203 478.461 207.17 478.417L206.86 477.797C206.828 477.728 206.811 477.653 206.81 477.577C206.81 477.487 206.81 477.457 206.65 477.317C206.142 476.582 205.835 475.727 205.76 474.836C205.685 473.946 205.843 473.051 206.22 472.241L220.56 439.045C221.407 437.166 221.621 435.062 221.17 433.05C216.934 425.942 213.146 418.576 209.828 410.996C208.394 409.24 206.419 408.006 204.212 407.489L168.858 399.494C168.008 399.254 167.224 398.821 166.569 398.228C165.914 397.635 165.404 396.899 165.081 396.077L164.941 395.697C163.642 391.94 160.944 384.136 158.346 359.943C155.448 335.122 156.437 326.858 156.907 322.89V322.591C157.033 321.724 157.363 320.9 157.868 320.184C158.373 319.469 159.04 318.883 159.814 318.474L192.57 303.195C194.014 302.57 195.268 301.578 196.208 300.317L196.518 298.528C197.447 293.402 198.696 288.016 200.515 281.071C200.888 278.404 200.187 275.697 198.566 273.547L176.132 245.047C175.572 244.359 175.198 243.538 175.045 242.663C174.893 241.788 174.968 240.889 175.263 240.051C176.472 236.414 178.99 228.879 193.25 208.075C206.79 186.84 212.866 181.094 215.793 178.356L215.913 178.246C216.368 177.752 216.924 177.362 217.543 177.104C218.162 176.845 218.83 176.723 219.501 176.747C219.91 176.748 220.318 176.788 220.72 176.867L255.804 185.911C256.51 186.061 257.231 186.134 257.953 186.131C260.093 186.134 262.185 185.486 263.948 184.272C266.077 182.433 271.063 178.067 271.063 178.067C272.294 177.127 273.295 175.918 273.988 174.532C274.68 173.147 275.047 171.621 275.06 170.072V133.979C275.049 133.09 275.266 132.213 275.689 131.431C276.112 130.649 276.728 129.989 277.478 129.512C280.836 127.424 287.661 123.187 311.244 115.123C335.995 106.489 343.96 105.859 347.357 105.59H347.807C348.61 105.618 349.399 105.816 350.121 106.17C350.842 106.525 351.481 107.029 351.994 107.648L374.247 136.437C375.854 138.458 378.176 139.785 380.733 140.144C382.102 140.144 383.381 140.064 384.61 140.044C385.419 140.044 386.209 140.044 386.988 140.044C388.837 140.044 390.645 140.044 392.664 140.164C394.915 139.642 396.931 138.391 398.4 136.607L420.673 107.938C421.14 107.279 421.761 106.745 422.483 106.382C423.204 106.02 424.003 105.84 424.81 105.859C424.98 105.849 425.15 105.849 425.32 105.859L426.089 105.949C430.327 106.456 434.522 107.271 438.64 108.388C444.756 109.986 452.21 112.385 460.814 115.382C485.596 123.696 492.331 128.173 495.209 130.082C495.752 130.454 496.22 130.925 496.588 131.471C496.691 131.659 496.768 131.861 496.818 132.07L496.938 132.3C496.97 132.373 496.987 132.451 496.988 132.53C496.997 132.659 497.024 132.787 497.068 132.91C497.106 133.04 497.13 133.174 497.137 133.309V134.708L498.696 169.913C498.694 171.486 499.035 173.041 499.696 174.469L499.935 174.709C505.008 178.201 509.875 181.981 514.515 186.031L514.765 186.151C515.68 186.436 516.633 186.584 517.593 186.59C518.362 186.589 519.129 186.485 519.871 186.281L555.255 177.547C555.583 177.477 555.918 177.44 556.254 177.437C557.68 177.455 559.051 177.991 560.111 178.946L560.441 179.276C563.289 182.124 569.215 188.049 582.325 208.514C596.195 229.499 598.913 237.323 600.212 241.06L600.302 241.33C600.618 242.153 600.722 243.042 600.603 243.916C600.484 244.789 600.147 245.618 599.622 246.327L576.849 274.716C575.687 276.145 574.965 277.88 574.771 279.712V279.912C576.679 286.837 577.968 292.383 578.818 297.349V297.459C579.787 299.305 581.335 300.783 583.224 301.666L616.07 316.905C616.825 317.334 617.478 317.921 617.983 318.627C618.489 319.332 618.835 320.139 618.998 320.992V321.252V321.422C619.488 325.419 620.497 333.723 618.049 358.235C617.679 361.512 617.349 364.35 617.05 366.898C614.551 386.174 612.193 392.34 611.184 394.978C610.89 395.771 610.41 396.482 609.784 397.05C609.158 397.619 608.404 398.029 607.587 398.245L571.873 406.239C569.549 406.802 567.5 408.168 566.087 410.097L565.947 410.237C562.521 417.945 558.619 425.434 554.266 432.66C553.726 433.989 553.936 435.898 554.925 438.286L569.574 471.462C569.913 472.272 570.042 473.154 569.949 474.028C569.857 474.901 569.546 475.737 569.045 476.458L568.935 476.628C567.266 479.066 564.168 483.623 554.505 493.096C551.198 496.343 547.511 499.781 543.573 503.328L542.624 504.188L542.574 504.248C524.258 520.816 517.093 524.773 514.035 526.461C513.287 526.881 512.444 527.101 511.587 527.101C510.703 527.092 509.834 526.876 509.049 526.471L477.072 509.004C475.631 508.263 474.036 507.869 472.416 507.855C471.941 507.857 471.466 507.894 470.997 507.965H470.887C463.309 511.595 455.517 514.758 447.554 517.438C446.258 517.787 445.055 518.415 444.028 519.278C443.001 520.141 442.175 521.219 441.608 522.434C441.548 522.614 441.468 522.814 441.398 523.004C441.328 523.194 441.238 523.394 441.158 523.623L440.539 525.352L433.064 547.336L429.467 557.928C429.204 558.757 428.737 559.507 428.108 560.108C427.48 560.708 426.71 561.141 425.87 561.366C422.172 562.285 414.508 564.194 388.957 564.194L386.309 564.224ZM387.058 186.7C385.358 186.699 383.689 187.151 382.222 188.009L266.087 256.259C264.072 257.449 262.394 259.134 261.211 261.154C260.029 263.173 259.382 265.461 259.332 267.801L257.333 390.401C257.24 395.451 258.528 400.431 261.059 404.802C263.59 409.173 267.267 412.769 271.693 415.203L349.815 458.251L387.238 478.726L514.934 404.711H514.994V270.879C514.987 267.801 514.18 264.779 512.652 262.107C511.125 259.436 508.929 257.207 506.281 255.64L442.787 218.217L391.925 188.039C390.452 187.164 388.771 186.702 387.058 186.7Z" fill="#B0E1FF"/>
<path d="M347.908 105.999C348.64 106.029 349.357 106.213 350.013 106.538C350.669 106.864 351.249 107.323 351.715 107.888L373.839 136.717C375.537 138.85 377.993 140.246 380.694 140.614C382.073 140.614 383.372 140.534 384.611 140.514C385.421 140.514 386.21 140.514 386.989 140.514C388.918 140.514 390.767 140.514 392.695 140.634C395.082 140.105 397.222 138.788 398.771 136.897L405.466 128.283L421.054 108.218C421.477 107.62 422.039 107.135 422.693 106.806C423.346 106.477 424.07 106.313 424.802 106.329C424.955 106.319 425.108 106.319 425.261 106.329C429.733 106.824 434.16 107.666 438.502 108.847C443.728 110.206 450.843 112.355 460.635 115.842C484.788 123.946 491.613 128.313 494.92 130.491C495.411 130.827 495.834 131.25 496.169 131.74C496.244 131.888 496.294 132.047 496.319 132.21L496.479 132.52C496.515 132.782 496.565 133.042 496.629 133.299V134.698L498.158 169.952C498.162 171.622 498.534 173.27 499.247 174.779L499.407 174.939L499.567 175.089C504.656 178.606 509.543 182.406 514.206 186.47L514.526 186.62C515.494 186.935 516.505 187.1 517.524 187.11C518.338 187.11 519.148 186.999 519.932 186.78L555.306 178.057C555.604 177.988 555.91 177.954 556.215 177.957C557.491 177.977 558.717 178.452 559.673 179.296L559.983 179.605C562.791 182.413 568.716 188.339 581.797 208.754C595.986 230.258 598.475 237.893 599.724 241.47C600.008 242.217 600.1 243.023 599.99 243.814C599.879 244.605 599.571 245.356 599.094 245.997L576.351 274.356C575.12 275.87 574.359 277.711 574.162 279.652V279.962C575.881 286.197 577.28 291.953 578.219 297.419V297.569C579.236 299.553 580.88 301.145 582.896 302.096L615.772 317.364C616.457 317.759 617.048 318.298 617.505 318.943C617.963 319.588 618.275 320.325 618.42 321.102V321.262C618.89 325.159 619.979 333.253 617.491 358.235C617.141 361.382 616.801 364.23 616.491 366.888C614.053 385.744 611.755 391.98 610.656 394.868C610.392 395.594 609.958 396.245 609.389 396.767C608.82 397.289 608.134 397.666 607.388 397.866L571.704 405.81C569.265 406.4 567.113 407.834 565.629 409.857L565.469 410.017C562.038 417.732 558.134 425.227 553.777 432.46C553.008 434.329 553.627 436.667 554.407 438.536L569.106 471.622C569.418 472.354 569.538 473.154 569.456 473.946C569.374 474.737 569.092 475.495 568.636 476.148C567.078 478.427 564.04 483.003 554.147 492.736C551.149 495.644 547.592 499.031 543.235 502.949L542.236 503.858C523.979 520.376 516.854 524.313 513.797 526.002C513.122 526.381 512.362 526.581 511.588 526.581C510.781 526.572 509.987 526.373 509.27 526.002L477.293 508.545C475.778 507.764 474.101 507.349 472.397 507.335C471.895 507.335 471.394 507.375 470.898 507.455H470.748C463.158 511.097 455.353 514.27 447.375 516.958C446.009 517.328 444.741 517.995 443.663 518.913C442.585 519.83 441.723 520.975 441.14 522.264C440.98 522.724 440.83 523.034 440.67 523.504L440.051 525.222L432.576 547.206L428.979 557.798C428.741 558.551 428.316 559.232 427.745 559.777C427.174 560.322 426.474 560.714 425.711 560.916C421.974 561.845 414.18 563.724 388.938 563.724H386.29C362.597 563.724 355.123 561.845 351.535 560.916C350.765 560.69 350.056 560.292 349.463 559.752C348.869 559.212 348.406 558.544 348.108 557.798L336.277 523.364C335.422 521.176 333.892 519.317 331.91 518.058L331.75 517.908C322.463 515.18 313.4 511.742 304.64 507.625H304.48C304.026 507.493 303.553 507.439 303.081 507.465C301.245 507.49 299.438 507.916 297.785 508.714L265.808 526.162C265.138 526.541 264.38 526.741 263.61 526.741C262.802 526.732 262.008 526.533 261.291 526.162C257.864 524.293 250.689 520.556 232.153 503.568C214.536 487.83 209.24 480.505 207.531 478.167L207.221 477.547C207.219 477.426 207.189 477.308 207.133 477.2C207.078 477.093 206.998 477 206.901 476.928C206.469 476.262 206.213 475.497 206.159 474.705C206.105 473.912 206.254 473.12 206.591 472.401L220.931 439.215C221.836 437.21 222.054 434.962 221.551 432.82C217.297 425.693 213.499 418.303 210.179 410.696C208.674 408.826 206.589 407.511 204.253 406.959L168.879 398.965C168.107 398.742 167.397 398.345 166.803 397.805C166.208 397.264 165.746 396.594 165.452 395.847C164.213 392.27 161.405 384.785 158.756 359.873C155.759 334.472 156.888 326.528 157.348 322.631C157.464 321.843 157.764 321.094 158.224 320.445C158.684 319.796 159.291 319.264 159.996 318.893L192.722 303.625C194.277 302.953 195.622 301.876 196.619 300.507L196.949 298.598C198.018 292.713 199.437 286.947 200.946 281.181C201.156 279.79 201.088 278.372 200.745 277.008C200.401 275.644 199.79 274.362 198.947 273.237L194.78 267.941L176.504 244.718C176.001 244.093 175.666 243.35 175.53 242.56C175.393 241.77 175.46 240.958 175.724 240.201C176.973 236.454 179.621 228.819 193.651 208.404C207.361 186.9 213.436 181.294 216.244 178.646C216.655 178.197 217.158 177.843 217.718 177.609C218.279 177.374 218.885 177.264 219.492 177.287C219.868 177.289 220.242 177.325 220.611 177.397L235.92 181.344L255.666 186.44C256.415 186.596 257.179 186.673 257.944 186.67C260.191 186.672 262.386 185.992 264.239 184.722C266.418 182.853 271.404 178.486 271.404 178.486C272.707 177.503 273.764 176.232 274.494 174.772C275.224 173.313 275.606 171.704 275.611 170.072V133.979C275.597 133.173 275.791 132.377 276.174 131.668C276.558 130.959 277.117 130.361 277.799 129.932C281.067 127.933 287.792 123.696 311.455 115.592C335.607 107.178 343.561 106.399 347.428 106.089C347.565 106.079 347.702 106.079 347.838 106.089M387.239 479.256L459.187 437.547L515.146 405.09L515.455 404.93V270.879C515.45 267.71 514.618 264.597 513.04 261.849C511.463 259.101 509.195 256.813 506.462 255.21L442.958 217.787L441.4 216.858L392.106 187.61C390.556 186.695 388.789 186.212 386.989 186.211C385.202 186.21 383.446 186.686 381.903 187.59L319.299 224.383L265.768 255.84C263.671 257.07 261.925 258.819 260.7 260.919C259.475 263.019 258.812 265.4 258.773 267.831L256.695 390.431C256.607 395.57 257.922 400.635 260.497 405.083C263.073 409.53 266.813 413.192 271.314 415.673L349.527 458.741L387.239 479.256ZM347.908 105H347.398C344.001 105.27 335.987 105.909 311.175 114.553C287.552 122.647 280.687 126.904 277.39 128.952H277.32C276.495 129.473 275.818 130.197 275.352 131.054C274.887 131.911 274.649 132.874 274.662 133.849V170.002C274.652 171.478 274.304 172.932 273.644 174.252C272.984 175.573 272.029 176.724 270.854 177.617L270.794 177.667C270.744 177.667 265.798 181.994 263.68 183.852C262.006 184.999 260.023 185.609 257.994 185.601C257.296 185.601 256.599 185.531 255.915 185.391L236.22 180.305L220.911 176.358C220.477 176.27 220.035 176.226 219.592 176.228C218.846 176.203 218.103 176.338 217.414 176.624C216.724 176.91 216.104 177.341 215.595 177.887L215.515 177.967C212.577 180.735 206.462 186.49 192.882 207.805C178.592 228.599 176.064 236.184 174.845 239.781C174.532 240.704 174.459 241.691 174.634 242.649C174.809 243.607 175.225 244.505 175.844 245.257L194.101 268.46L198.268 273.756C199.028 274.761 199.582 275.906 199.897 277.125C200.213 278.344 200.284 279.614 200.106 280.861C198.248 287.856 196.998 293.202 196.109 298.318L195.819 299.987C194.95 301.125 193.805 302.023 192.492 302.595L159.766 317.864H159.696C158.853 318.316 158.128 318.961 157.581 319.745C157.034 320.53 156.68 321.433 156.548 322.381V322.661C156.078 326.658 155.089 334.962 157.997 359.833C160.565 384.066 163.303 391.91 164.612 395.687L164.742 396.047C165.09 396.937 165.639 397.735 166.347 398.378C167.054 399.021 167.9 399.492 168.819 399.754H168.879L204.253 407.748C206.32 408.243 208.17 409.393 209.529 411.026C212.83 418.583 216.601 425.925 220.821 433.01C221.242 434.895 221.038 436.866 220.242 438.626L205.892 471.831C205.485 472.712 205.311 473.683 205.386 474.65C205.462 475.618 205.784 476.55 206.322 477.357C206.356 477.405 206.396 477.449 206.442 477.487C206.452 477.603 206.486 477.715 206.542 477.817L206.851 478.437C206.874 478.485 206.901 478.532 206.931 478.576L206.981 478.636C208.76 481.065 214.156 488.459 231.693 504.128C249.88 520.796 257.244 524.803 260.782 526.721L261.022 526.861C261.887 527.309 262.845 527.549 263.82 527.561C264.762 527.559 265.687 527.314 266.508 526.851L298.414 509.424C299.927 508.693 301.581 508.304 303.261 508.285C303.62 508.263 303.981 508.297 304.33 508.385C304.414 508.415 304.501 508.435 304.59 508.445C313.214 512.56 322.136 516.02 331.28 518.797L331.38 518.877C333.194 520.013 334.595 521.701 335.377 523.693L347.209 558.118C347.56 559.013 348.111 559.817 348.819 560.468C349.527 561.118 350.374 561.6 351.296 561.875C354.893 562.805 362.287 564.723 386.34 564.723H388.988C414.589 564.723 422.304 562.805 425.961 561.885C426.895 561.642 427.752 561.164 428.451 560.498C429.151 559.832 429.669 559 429.958 558.078L433.545 547.526L441.02 525.542L441.629 523.843C441.709 523.604 441.789 523.414 441.859 523.224C441.929 523.034 442.009 522.854 442.089 522.644C442.61 521.493 443.381 520.471 444.345 519.654C445.31 518.836 446.443 518.243 447.665 517.918C455.608 515.236 463.383 512.079 470.948 508.465H471.018C471.464 508.393 471.915 508.357 472.367 508.355C473.918 508.37 475.443 508.747 476.824 509.454L508.72 526.901C509.586 527.349 510.544 527.588 511.518 527.601C512.46 527.599 513.386 527.354 514.206 526.891C517.284 525.192 524.489 521.215 542.835 504.617L542.925 504.527L543.305 504.188L543.845 503.698C547.842 500.151 551.479 496.703 554.836 493.456C564.539 483.913 567.647 479.356 569.326 476.908L569.456 476.718C570.009 475.927 570.35 475.008 570.448 474.048C570.546 473.087 570.397 472.118 570.015 471.232L555.366 438.036C554.447 435.848 554.227 434.039 554.717 432.82C559.044 425.625 562.928 418.174 566.348 410.506L566.428 410.406C567.767 408.573 569.709 407.271 571.914 406.729L607.618 398.735H607.688C608.58 398.492 609.402 398.038 610.083 397.412C610.765 396.786 611.287 396.006 611.605 395.138C612.604 392.48 615.002 386.254 617.491 366.978C617.82 364.46 618.16 361.622 618.49 358.305C620.948 333.733 619.939 325.329 619.489 321.332V321.162V321.062C619.494 320.995 619.494 320.928 619.489 320.862C619.316 319.943 618.946 319.072 618.404 318.31C617.863 317.547 617.162 316.911 616.351 316.445H616.281L583.406 301.176C581.666 300.352 580.232 298.998 579.309 297.309C579.304 297.286 579.304 297.262 579.309 297.239C578.449 292.243 577.16 286.717 575.262 279.812V279.682C575.456 277.949 576.151 276.311 577.26 274.966L600.003 246.606C600.008 246.583 600.008 246.559 600.003 246.536C600.574 245.764 600.941 244.859 601.068 243.907C601.196 242.955 601.08 241.986 600.733 241.09L600.653 240.861C599.344 237.103 596.656 229.269 582.716 208.194C569.576 187.699 563.63 181.744 560.732 178.886L560.422 178.576C559.279 177.581 557.821 177.021 556.305 176.997C555.926 176.996 555.547 177.036 555.176 177.117L519.782 185.851C519.077 186.05 518.347 186.151 517.614 186.151C516.705 186.143 515.802 185.998 514.936 185.721L514.806 185.661C510.165 181.625 505.304 177.849 500.246 174.349L500.137 174.249C499.505 172.904 499.171 171.439 499.157 169.952L497.598 134.678V133.329C497.592 133.146 497.562 132.965 497.508 132.79C497.483 132.711 497.463 132.631 497.449 132.55C497.449 132.39 497.411 132.232 497.339 132.09L497.249 131.92C497.202 131.716 497.131 131.518 497.039 131.331L496.969 131.211C496.559 130.611 496.04 130.092 495.44 129.682C492.552 127.763 485.777 123.267 460.925 114.923C452.332 111.925 444.857 109.517 438.722 107.928C434.584 106.804 430.369 105.986 426.111 105.48L425.361 105.39H424.772C423.883 105.374 423.003 105.575 422.209 105.976C421.415 106.376 420.731 106.964 420.215 107.688L404.646 127.723L397.951 136.337C396.579 138.012 394.693 139.189 392.585 139.685C390.587 139.605 388.788 139.575 386.959 139.575C386.18 139.575 385.381 139.575 384.561 139.575C383.192 139.575 381.933 139.625 380.734 139.675C378.316 139.325 376.122 138.067 374.598 136.157L352.475 107.338C352.479 107.322 352.479 107.305 352.475 107.288C351.916 106.615 351.221 106.069 350.436 105.685C349.65 105.301 348.792 105.088 347.918 105.06L347.908 105ZM387.239 478.107L350.016 457.812L271.894 414.773C267.547 412.384 263.935 408.853 261.449 404.561C258.962 400.27 257.695 395.38 257.784 390.421L259.863 267.821C259.902 265.569 260.517 263.366 261.649 261.419C262.78 259.472 264.391 257.847 266.328 256.699L319.859 225.232L382.463 188.439C383.851 187.627 385.431 187.199 387.039 187.2C388.659 187.203 390.249 187.638 391.646 188.459L440.94 217.707L442.499 218.637L506.002 256.059C508.579 257.583 510.716 259.75 512.203 262.348C513.69 264.945 514.477 267.885 514.486 270.879V404.331L458.687 436.677L387.239 478.107Z" fill="black"/>
<path d="M386.311 564.124C362.258 564.124 354.964 562.225 351.456 561.306C350.618 561.067 349.847 560.638 349.202 560.052C348.557 559.467 348.057 558.74 347.739 557.928L335.898 523.494C335.077 521.389 333.602 519.603 331.691 518.397L331.551 518.268C322.309 515.548 313.289 512.124 304.571 508.025H304.441H304.371C303.957 507.915 303.529 507.871 303.102 507.895C301.325 507.915 299.574 508.328 297.975 509.104L266.059 526.541C265.327 526.956 264.502 527.176 263.661 527.181C262.79 527.167 261.935 526.951 261.162 526.551L260.903 526.412C257.385 524.493 250.081 520.516 231.924 503.888C227.017 499.501 222.631 495.374 218.933 491.647L218.514 491.227L323.966 444.132L349.768 458.351L387.24 478.786L514.147 405.26C514.446 405.088 514.696 404.84 514.871 404.543C515.046 404.245 515.141 403.907 515.146 403.561V267.661C515.145 265.539 514.591 263.454 513.54 261.611C512.489 259.768 510.976 258.23 509.151 257.149L458.388 227.231L474.576 180.485L462.385 146.4L497.359 140.334L498.669 169.903C498.662 171.493 499.003 173.065 499.668 174.509L499.928 174.769C504.994 178.269 509.862 182.048 514.507 186.091L514.777 186.231C515.7 186.515 516.659 186.663 517.625 186.67C518.408 186.671 519.189 186.563 519.943 186.351L555.327 177.627C555.654 177.549 555.99 177.512 556.326 177.517C557.685 177.547 558.99 178.053 560.014 178.946L560.343 179.276C563.191 182.124 569.097 188.029 582.217 208.484C596.107 229.549 598.795 237.313 600.094 241.05L600.174 241.3C600.486 242.103 600.589 242.972 600.471 243.825C600.354 244.679 600.022 245.488 599.505 246.177L576.741 274.566C575.558 276.015 574.829 277.781 574.643 279.642V279.872C576.561 286.867 577.841 292.373 578.69 297.309V297.429C579.674 299.294 581.238 300.789 583.147 301.686L616.013 316.955C616.753 317.373 617.394 317.947 617.891 318.637C618.388 319.327 618.729 320.117 618.89 320.952V321.192V321.382C619.37 325.379 620.369 333.683 617.891 358.165C615.073 384.366 612.285 391.79 611.076 394.948C610.784 395.725 610.31 396.421 609.695 396.979C609.08 397.537 608.341 397.94 607.539 398.155L571.825 406.15C569.475 406.713 567.403 408.095 565.979 410.047L565.839 410.187C562.408 417.888 558.51 425.373 554.168 432.6C553.598 433.969 553.808 435.908 554.817 438.316L569.457 471.502C569.799 472.298 569.931 473.169 569.842 474.031C569.753 474.893 569.445 475.718 568.947 476.428L568.817 476.618C566.769 479.616 561.962 486.611 543.486 503.289C524.38 520.676 517.075 524.693 513.957 526.402C513.232 526.822 512.408 527.042 511.569 527.041C510.695 527.031 509.836 526.815 509.061 526.412L477.084 508.954C475.632 508.204 474.023 507.806 472.388 507.795C471.909 507.797 471.432 507.833 470.959 507.905H470.829C463.25 511.545 455.454 514.716 447.486 517.398C446.176 517.756 444.96 518.397 443.924 519.276C442.888 520.155 442.057 521.25 441.49 522.484C441.42 522.684 441.34 522.884 441.261 523.084C441.181 523.284 441.111 523.464 441.041 523.684L440.411 525.412L429.349 557.968C429.09 558.783 428.63 559.519 428.012 560.109C427.394 560.699 426.637 561.125 425.812 561.346C422.135 562.265 414.52 564.164 388.919 564.164L386.311 564.124Z" fill="black"/>
<path d="M496.899 140.844L498.159 169.953C498.168 171.625 498.539 173.275 499.248 174.789L499.408 174.939L499.568 175.099C504.655 178.618 509.546 182.415 514.217 186.471L514.527 186.63C515.496 186.94 516.506 187.105 517.524 187.12C518.341 187.115 519.154 187.004 519.943 186.79L555.307 178.057C555.603 177.996 555.904 177.966 556.206 177.967C557.484 177.987 558.714 178.461 559.674 179.306L559.983 179.616C562.791 182.424 568.717 188.349 581.807 208.754C595.987 230.258 598.475 237.903 599.724 241.48C600.009 242.227 600.1 243.033 599.99 243.824C599.88 244.616 599.572 245.366 599.095 246.007L576.351 274.366C575.12 275.88 574.36 277.721 574.163 279.662V279.972C575.882 286.208 577.281 291.963 578.22 297.429V297.579C579.239 299.561 580.882 301.152 582.897 302.106L615.772 317.375C616.457 317.77 617.049 318.308 617.506 318.953C617.963 319.598 618.275 320.335 618.421 321.112V321.272C618.89 325.159 619.979 333.263 617.491 358.195C614.683 383.916 611.875 391.55 610.626 394.818C610.366 395.545 609.932 396.199 609.363 396.721C608.794 397.243 608.106 397.619 607.359 397.816L571.675 405.81C569.234 406.396 567.081 407.831 565.599 409.857L565.439 410.017C562.01 417.728 558.109 425.22 553.758 432.45C552.978 434.329 553.598 436.657 554.377 438.536L569.107 471.622C569.418 472.353 569.539 473.151 569.457 473.941C569.375 474.731 569.092 475.487 568.637 476.138C566.638 479.136 562.092 485.961 543.236 502.949C524.249 520.246 516.905 524.293 513.787 526.012C513.117 526.392 512.359 526.591 511.589 526.592C510.781 526.583 509.987 526.385 509.27 526.012L477.294 508.555C475.779 507.774 474.102 507.36 472.397 507.346C471.895 507.346 471.394 507.386 470.899 507.466H470.749C463.159 511.107 455.353 514.28 447.376 516.969C446.011 517.339 444.745 518.006 443.667 518.921C442.589 519.836 441.727 520.978 441.14 522.265C440.98 522.734 440.831 523.044 440.671 523.514L440.051 525.232L428.979 557.799C428.741 558.552 428.317 559.232 427.746 559.777C427.174 560.322 426.475 560.714 425.712 560.916C421.974 561.846 414.18 563.714 388.939 563.714H386.29C362.598 563.714 355.123 561.846 351.536 560.916C350.766 560.69 350.057 560.292 349.463 559.752C348.869 559.212 348.406 558.544 348.108 557.799L336.277 523.364C335.422 521.176 333.893 519.317 331.91 518.058L331.76 517.908C322.471 515.174 313.404 511.733 304.64 507.615H304.49C304.032 507.492 303.556 507.441 303.081 507.466C301.246 507.49 299.438 507.916 297.785 508.715L265.809 526.162C265.139 526.544 264.382 526.748 263.61 526.751C262.802 526.739 262.008 526.537 261.292 526.162C257.865 524.293 250.69 520.556 232.153 503.568C226.737 498.732 222.49 494.685 219.163 491.337L323.886 444.572L349.527 458.741L387.24 479.256L514.307 405.61C514.666 405.403 514.964 405.104 515.171 404.744C515.379 404.385 515.487 403.977 515.486 403.562V267.661C515.487 265.467 514.915 263.311 513.826 261.406C512.738 259.501 511.171 257.913 509.28 256.799L458.797 227.051L474.936 180.475L462.854 146.72L496.899 140.824M497.679 139.825L496.77 139.985L462.715 145.88L461.715 146.05L462.045 146.959L474.036 180.455L457.998 226.751L457.778 227.391L458.358 227.72L508.841 257.469C510.605 258.515 512.068 260.002 513.086 261.783C514.103 263.565 514.641 265.58 514.646 267.631V403.532C514.645 403.805 514.573 404.073 514.436 404.31C514.299 404.546 514.103 404.743 513.867 404.881L387.24 478.327L349.927 457.972L324.286 443.852L323.926 443.662L323.556 443.822L218.833 490.588L217.754 491.078L218.583 491.917C222.321 495.654 226.707 499.781 231.574 504.178C249.76 520.836 257.095 524.833 260.622 526.751L260.872 526.881C261.709 527.318 262.637 527.551 263.58 527.561C264.49 527.558 265.384 527.324 266.178 526.881L298.085 509.444C299.627 508.704 301.311 508.308 303.021 508.285C303.408 508.263 303.795 508.3 304.171 508.395H304.291H304.4C313.083 512.466 322.063 515.874 331.261 518.587H331.311H331.381C333.221 519.745 334.642 521.461 335.438 523.484L347.279 557.909C347.619 558.782 348.157 559.565 348.851 560.196C349.544 560.827 350.374 561.289 351.276 561.546C354.824 562.475 362.158 564.384 386.251 564.384H388.899C414.55 564.384 422.194 562.475 425.872 561.556C426.772 561.318 427.598 560.856 428.273 560.213C428.947 559.57 429.448 558.767 429.729 557.879L440.781 525.342L441.4 523.644C441.48 523.404 441.55 523.224 441.62 523.044C441.69 522.864 441.78 522.654 441.86 522.425C442.394 521.252 443.181 520.213 444.164 519.38C445.147 518.548 446.302 517.942 447.546 517.608C455.512 514.928 463.308 511.765 470.889 508.135H470.988C471.441 508.063 471.899 508.027 472.357 508.025C473.933 508.04 475.483 508.423 476.884 509.144L508.861 526.691C509.699 527.133 510.631 527.369 511.579 527.381C512.48 527.376 513.364 527.138 514.147 526.691C517.275 524.973 524.609 520.946 543.755 503.518C562.262 486.851 567.088 479.786 569.147 476.778L569.276 476.578C569.811 475.811 570.141 474.92 570.236 473.99C570.33 473.06 570.186 472.121 569.816 471.262L555.177 438.076C554.238 435.818 554.018 433.999 554.537 432.69C558.868 425.489 562.755 418.031 566.179 410.357V410.307C567.537 408.435 569.517 407.107 571.765 406.559L607.469 398.565H607.518C608.387 398.331 609.187 397.892 609.851 397.285C610.515 396.678 611.024 395.922 611.336 395.078C612.535 391.93 615.333 384.486 618.231 358.285C620.679 333.763 619.68 325.419 619.23 321.412V321.222V321.032V320.952C619.064 320.058 618.705 319.21 618.179 318.468C617.652 317.726 616.971 317.108 616.182 316.655L583.296 301.376C581.505 300.528 580.034 299.127 579.099 297.379V297.309C578.26 292.373 576.971 286.837 575.102 279.882V279.712C575.284 277.946 575.979 276.272 577.101 274.896L599.844 246.537C600.396 245.788 600.75 244.911 600.872 243.988C600.995 243.066 600.882 242.127 600.544 241.26L600.464 241.051C599.165 237.293 596.467 229.499 582.547 208.384C569.416 187.909 563.481 181.974 560.623 179.116L560.313 178.806C559.209 177.828 557.791 177.278 556.316 177.257C555.956 177.256 555.597 177.296 555.247 177.377L519.813 185.941C519.091 186.144 518.344 186.248 517.594 186.251C516.666 186.243 515.743 186.098 514.856 185.821L514.696 185.741C510.062 181.711 505.209 177.942 500.157 174.449L500.057 174.349L500.007 174.299C499.365 172.932 499.025 171.443 499.008 169.933L497.719 140.804V139.875L497.679 139.825Z" fill="black"/>
<path d="M516.897 403.142H516.747C516.632 403.109 516.531 403.04 516.459 402.944C516.386 402.848 516.347 402.732 516.348 402.612V261.406C516.348 261.308 516.373 261.212 516.423 261.128C516.472 261.044 516.542 260.974 516.627 260.926C516.71 260.879 516.803 260.855 516.897 260.856C517.004 260.856 517.108 260.888 517.197 260.946L577.343 300.527C577.461 300.605 577.545 300.724 577.578 300.861C577.611 300.999 577.592 301.143 577.523 301.266L517.367 402.872C517.319 402.954 517.25 403.021 517.168 403.069C517.085 403.116 516.992 403.141 516.897 403.142Z" fill="#2AA7FF"/>
<path d="M516.896 261.406L577.042 300.987L516.896 402.592V261.406ZM516.896 260.306C516.712 260.31 516.532 260.354 516.367 260.436C516.189 260.535 516.042 260.68 515.94 260.856C515.837 261.032 515.785 261.232 515.787 261.435V402.592C515.788 402.834 515.869 403.069 516.017 403.261C516.165 403.452 516.372 403.59 516.607 403.651C516.703 403.667 516.8 403.667 516.896 403.651C517.086 403.651 517.273 403.601 517.438 403.507C517.603 403.412 517.74 403.276 517.836 403.112L577.992 301.506C578.136 301.263 578.181 300.974 578.118 300.699C578.055 300.423 577.888 300.183 577.652 300.027L517.496 260.446C517.318 260.328 517.11 260.266 516.896 260.266V260.306Z" fill="black"/>
<path d="M385.8 562.725C362.278 562.725 355.313 560.976 351.576 560.047C350.985 559.878 350.438 559.583 349.973 559.183C349.507 558.783 349.133 558.287 348.877 557.729L337.006 523.224L335.477 520.226C335.42 520.11 335.405 519.979 335.434 519.853C335.464 519.727 335.535 519.616 335.637 519.537L385.661 481.674C385.756 481.604 385.872 481.566 385.99 481.564H386.11C386.189 481.582 386.264 481.618 386.328 481.668C386.392 481.718 386.444 481.782 386.48 481.854L426.531 558.798C426.596 558.926 426.609 559.074 426.568 559.212C426.528 559.349 426.435 559.466 426.311 559.537L425.222 560.157C425.163 560.19 425.098 560.214 425.032 560.227C424.572 560.287 424.032 560.417 423.443 560.557C422.653 560.746 421.674 560.976 420.515 561.156L419.086 561.316C409.966 562.374 400.787 562.845 391.606 562.725H385.8Z" fill="#393939"/>
<path d="M385.993 482.064L426.043 559.008L424.954 559.627C423.865 559.787 422.456 560.247 420.438 560.567L419.029 560.716C409.929 561.777 400.769 562.248 391.609 562.125H385.813C362.35 562.125 355.305 560.367 351.718 559.467C351.207 559.322 350.734 559.068 350.33 558.724C349.927 558.379 349.602 557.951 349.38 557.469L337.538 523.024L336.289 520.536L335.979 519.906L385.993 482.044M385.993 480.945C385.755 480.948 385.525 481.024 385.333 481.165L335.28 519.057C335.075 519.212 334.931 519.434 334.873 519.684C334.814 519.934 334.845 520.196 334.96 520.426L335.27 521.045L336.489 523.474L348.3 557.849L348.36 557.978C348.657 558.612 349.088 559.173 349.622 559.623C350.157 560.073 350.784 560.402 351.458 560.587C355.225 561.586 362.26 563.275 385.783 563.275H391.579C400.813 563.394 410.045 562.92 419.218 561.856L420.607 561.696C421.837 561.506 422.826 561.276 423.605 561.086C424.205 560.946 424.724 560.816 425.154 560.756C425.291 560.738 425.423 560.694 425.544 560.627L426.633 559.997C426.879 559.856 427.061 559.626 427.141 559.354C427.221 559.082 427.193 558.79 427.063 558.538L387.012 481.594C386.939 481.454 386.835 481.331 386.709 481.234C386.583 481.137 386.438 481.069 386.283 481.035C386.2 481.025 386.116 481.025 386.033 481.035L385.993 480.945Z" fill="black"/>
<path d="M440.201 524.762L441.29 521.765C441.113 522.168 440.959 522.582 440.831 523.004L440.201 524.762Z" fill="#2A70B8"/>
<path d="M427.131 558.817C427.031 558.818 426.933 558.79 426.848 558.737C426.763 558.684 426.695 558.608 426.651 558.518L386.75 482.633C386.695 482.523 386.678 482.398 386.702 482.276C386.725 482.155 386.788 482.045 386.88 481.964C386.979 481.874 387.107 481.825 387.24 481.824C387.352 481.822 387.461 481.857 387.55 481.924L441.78 519.007C441.848 519.053 441.905 519.113 441.947 519.184C441.988 519.255 442.013 519.334 442.02 519.416C442.027 519.497 442.016 519.578 441.988 519.654C441.961 519.73 441.917 519.799 441.86 519.856L441.241 520.476C440.615 521.315 440.129 522.249 439.802 523.244L427.651 558.448C427.614 558.547 427.551 558.634 427.468 558.699C427.385 558.764 427.286 558.805 427.181 558.817H427.131Z" fill="#2AA7FF"/>
<path d="M387.24 482.373L441.47 519.466L440.851 520.086C440.169 520.992 439.642 522.005 439.292 523.084L427.131 558.308L387.24 482.363M387.24 481.264C386.971 481.263 386.71 481.363 386.511 481.544C386.327 481.706 386.203 481.926 386.16 482.167C386.116 482.408 386.155 482.657 386.271 482.873L426.162 558.817C426.258 558.998 426.402 559.149 426.578 559.253C426.754 559.357 426.956 559.411 427.161 559.407H427.251C427.465 559.389 427.669 559.309 427.839 559.178C428.009 559.047 428.138 558.87 428.21 558.668L440.371 523.443C440.684 522.518 441.135 521.645 441.71 520.855L442.29 520.286C442.404 520.169 442.491 520.029 442.546 519.876C442.601 519.722 442.623 519.559 442.61 519.396C442.593 519.236 442.542 519.081 442.459 518.943C442.376 518.805 442.264 518.687 442.13 518.597L387.9 481.504C387.717 481.379 387.501 481.313 387.28 481.314L387.24 481.264Z" fill="black"/>
<path d="M471.859 505.706H471.699L389.579 480.725C389.464 480.69 389.364 480.618 389.293 480.521C389.223 480.423 389.187 480.305 389.19 480.185C389.19 480.067 389.229 479.951 389.302 479.857C389.374 479.764 389.475 479.696 389.589 479.665L549.472 434.319C549.522 434.309 549.573 434.309 549.622 434.319C549.721 434.317 549.819 434.342 549.906 434.391C549.992 434.44 550.063 434.512 550.112 434.598C550.171 434.709 550.191 434.836 550.169 434.959C550.147 435.082 550.085 435.194 549.992 435.278L472.239 505.556C472.135 505.652 472 505.705 471.859 505.706Z" fill="#393939"/>
<path d="M549.612 434.848L471.858 505.127L389.739 480.195L549.622 434.848M549.622 433.749H549.512C549.44 433.756 549.369 433.773 549.302 433.799L389.419 479.136C389.189 479.2 388.986 479.337 388.84 479.526C388.694 479.715 388.613 479.946 388.609 480.185C388.608 480.423 388.685 480.655 388.827 480.846C388.97 481.037 389.17 481.177 389.399 481.244L471.519 506.226C471.624 506.246 471.733 506.246 471.838 506.226C472.11 506.224 472.373 506.125 472.578 505.946L550.301 435.688C550.427 435.587 550.529 435.46 550.598 435.314C550.667 435.169 550.702 435.009 550.701 434.848C550.701 434.56 550.588 434.284 550.386 434.078C550.184 433.872 549.91 433.754 549.622 433.749Z" fill="black"/>
<path d="M576.571 297.249C575.642 292.103 574.233 286.807 572.524 280.262L572.364 279.802L522.031 262.964L576.881 298.938L576.571 297.249Z" fill="#144D8F"/>
<path d="M512.368 525.153C512.231 525.154 512.099 525.104 511.998 525.013C511.913 524.935 511.855 524.832 511.832 524.719C511.808 524.606 511.821 524.488 511.868 524.383L551.14 436.178C551.184 436.082 551.254 436.001 551.343 435.945C551.431 435.888 551.534 435.858 551.639 435.858C551.745 435.857 551.848 435.886 551.937 435.943C552.026 436 552.096 436.081 552.139 436.178L553.698 439.605L568.037 471.582C568.316 472.198 568.418 472.881 568.329 473.552C568.241 474.223 567.967 474.856 567.538 475.379L567.408 475.639C565.409 478.557 560.992 485.262 542.346 501.98C526.358 516.779 519.003 521.565 514.816 523.873L512.648 525.113C512.56 525.15 512.463 525.164 512.368 525.153Z" fill="#393939"/>
<path d="M551.639 436.407L553.198 439.835L567.538 471.811C567.779 472.344 567.863 472.935 567.78 473.514C567.697 474.093 567.45 474.636 567.068 475.079L566.908 475.389C564.73 478.666 560.053 485.381 541.976 501.57C526.708 515.749 519.073 520.895 514.556 523.394L512.368 524.633L551.639 436.437M551.639 435.338C551.427 435.335 551.219 435.395 551.041 435.511C550.863 435.626 550.723 435.792 550.64 435.988L511.369 524.183C511.272 524.395 511.245 524.632 511.292 524.86C511.339 525.088 511.456 525.295 511.629 525.452C511.832 525.634 512.095 525.734 512.368 525.732C512.56 525.736 512.75 525.687 512.918 525.592L515.096 524.343C519.293 522.035 526.738 517.228 542.726 502.359C561.412 485.611 565.909 478.866 567.827 475.988C567.854 475.951 567.878 475.91 567.897 475.868L567.997 475.659C568.468 475.067 568.769 474.358 568.869 473.609C568.97 472.859 568.865 472.096 568.567 471.402V471.342L554.237 439.365L552.679 435.928C552.589 435.738 552.447 435.578 552.271 435.465C552.094 435.351 551.889 435.29 551.679 435.288L551.639 435.338Z" fill="black"/>
<path d="M567.23 406.099C567.116 406.1 567.004 406.065 566.91 405.999C566.831 405.942 566.768 405.865 566.727 405.775C566.687 405.686 566.671 405.587 566.68 405.49L578.102 304.204C578.116 304.077 578.173 303.959 578.264 303.869C578.355 303.78 578.475 303.725 578.602 303.714H578.652C578.77 303.714 578.886 303.751 578.981 303.821C579.077 303.892 579.147 303.991 579.181 304.104L606.761 395.887C606.816 396.028 606.816 396.185 606.761 396.327C606.679 396.456 606.55 396.549 606.401 396.586L571.497 404.371C570.583 404.663 569.688 405.013 568.819 405.42L567.57 406.039C567.466 406.097 567.347 406.118 567.23 406.099Z" fill="#2AA7FF"/>
<path d="M578.6 304.264L606.18 396.047L571.275 403.841C570.314 404.136 569.376 404.5 568.467 404.93L567.228 405.55L578.6 304.264ZM578.6 303.165H578.5C578.243 303.187 578.001 303.3 577.819 303.482C577.636 303.665 577.523 303.906 577.501 304.164L566.109 405.43C566.093 405.623 566.128 405.817 566.211 405.992C566.293 406.167 566.42 406.318 566.579 406.429C566.764 406.557 566.984 406.623 567.208 406.619C567.378 406.621 567.546 406.583 567.698 406.509L568.947 405.879C569.792 405.484 570.663 405.151 571.555 404.88L606.4 397.096C606.547 397.066 606.687 397.005 606.809 396.917C606.931 396.829 607.033 396.716 607.109 396.586C607.188 396.455 607.239 396.31 607.258 396.158C607.277 396.007 607.263 395.853 607.219 395.707L579.639 303.924C579.569 303.698 579.428 303.501 579.238 303.36C579.047 303.22 578.817 303.144 578.58 303.145L578.6 303.165Z" fill="black"/>
<path d="M573.553 276.704C573.446 276.694 573.345 276.648 573.268 276.574C573.19 276.499 573.139 276.401 573.124 276.294L556.916 179.525C556.894 179.419 556.91 179.31 556.959 179.214C557.007 179.117 557.087 179.041 557.185 178.996C557.253 178.96 557.329 178.943 557.405 178.946C557.475 178.944 557.544 178.958 557.607 178.986C557.671 179.013 557.728 179.054 557.775 179.105L566.499 188.609C571.619 195.204 576.363 202.083 580.708 209.213C580.873 209.391 581.014 209.589 581.128 209.803C581.217 209.964 581.325 210.115 581.448 210.253L581.518 210.343L591.031 225.931C596.107 235.015 597.716 239.251 598.555 241.919C598.732 242.487 598.776 243.088 598.684 243.675C598.592 244.262 598.367 244.82 598.025 245.307L575.402 273.546L575.302 273.686C575.267 273.772 575.22 273.853 575.162 273.926C575.137 274.014 575.089 274.093 575.022 274.156C575.023 274.173 575.023 274.189 575.022 274.206L574.083 276.394C574.043 276.483 573.978 276.558 573.897 276.611C573.815 276.664 573.721 276.693 573.623 276.694L573.553 276.704Z" fill="#0D4A70"/>
<path d="M557.406 179.445L566.109 188.938C571.224 195.52 575.961 202.386 580.299 209.503C580.609 209.823 580.758 210.283 581.078 210.603L590.581 226.181C595.718 235.374 597.276 239.581 598.056 242.079C598.217 242.581 598.259 243.112 598.179 243.633C598.099 244.153 597.9 244.647 597.596 245.077L574.993 273.287C574.843 273.437 574.843 273.596 574.683 273.746C574.683 273.906 574.533 273.906 574.533 274.066L573.594 276.244L557.386 179.475M557.386 178.476C557.233 178.475 557.083 178.51 556.946 178.576C556.754 178.672 556.599 178.826 556.501 179.017C556.404 179.207 556.371 179.424 556.406 179.635L572.604 276.404C572.64 276.618 572.744 276.815 572.901 276.964C573.057 277.114 573.259 277.208 573.474 277.234H573.594C573.79 277.234 573.982 277.176 574.145 277.067C574.309 276.959 574.437 276.805 574.513 276.624L575.442 274.446C575.502 274.378 575.549 274.3 575.582 274.216C575.652 274.106 575.702 274.016 575.732 273.956L598.336 245.747L598.386 245.677C598.77 245.126 599.022 244.495 599.123 243.831C599.223 243.167 599.169 242.489 598.965 241.85C598.126 239.162 596.507 234.855 591.411 225.781L581.888 210.173C581.846 210.103 581.796 210.039 581.738 209.983C581.648 209.873 581.568 209.756 581.498 209.633C581.394 209.381 581.26 209.143 581.098 208.924C576.755 201.807 572.017 194.938 566.909 188.349L566.859 188.289L558.135 178.786C558.041 178.684 557.926 178.603 557.799 178.548C557.672 178.493 557.534 178.465 557.396 178.466L557.386 178.476Z" fill="black"/>
<path d="M335.039 519.237C334.893 519.233 334.755 519.176 334.649 519.077L334.179 518.607L333.7 518.217C333.247 517.809 332.735 517.472 332.181 517.218C332.115 517.188 332.054 517.147 332.001 517.098L331.941 517.038C328.064 515.909 324.316 514.64 320.509 513.171L306.47 507.405C306.364 507.362 306.274 507.286 306.213 507.19C306.153 507.093 306.123 506.98 306.13 506.866C306.135 506.754 306.173 506.646 306.241 506.556C306.309 506.467 306.403 506.401 306.509 506.366L383.173 481.724C383.23 481.715 383.287 481.715 383.343 481.724C383.444 481.723 383.542 481.75 383.628 481.801C383.715 481.852 383.785 481.925 383.833 482.014C383.893 482.13 383.912 482.263 383.884 482.391C383.857 482.518 383.786 482.633 383.683 482.713L335.368 519.177C335.267 519.229 335.152 519.25 335.039 519.237Z" fill="#0D4A70"/>
<path d="M383.343 482.224L335.039 518.697L334.569 518.227C333.92 517.608 333.187 517.083 332.391 516.668L332.231 516.509C328.493 515.419 324.756 514.17 320.699 512.621L306.709 506.856L383.373 482.234M383.373 481.125H383.243L383.023 481.174L306.3 505.796C306.085 505.864 305.897 505.997 305.762 506.176C305.626 506.355 305.548 506.571 305.54 506.796C305.53 507.021 305.59 507.244 305.712 507.433C305.833 507.623 306.011 507.77 306.22 507.855L320.209 513.621C324.037 515.09 327.744 516.349 331.591 517.478C331.681 517.568 331.79 517.637 331.911 517.678C332.414 517.941 332.876 518.278 333.28 518.677L333.77 519.077L334.189 519.506C334.397 519.711 334.677 519.826 334.969 519.826C335.207 519.828 335.439 519.751 335.628 519.606L383.913 483.163C384.057 483.061 384.175 482.927 384.257 482.77C384.338 482.614 384.381 482.44 384.382 482.264C384.383 481.976 384.271 481.7 384.072 481.493C383.872 481.286 383.6 481.165 383.313 481.154L383.373 481.125Z" fill="black"/>
<path d="M510.661 525.153C510.259 525.148 509.87 525.003 509.562 524.743L477.826 507.326L477.096 507.076C476.429 506.809 475.74 506.598 475.038 506.446L473.369 506.296C473.262 506.289 473.161 506.25 473.077 506.184C472.993 506.118 472.931 506.028 472.899 505.927C472.864 505.826 472.86 505.717 472.886 505.614C472.913 505.511 472.97 505.418 473.049 505.347L550.183 435.528C550.285 435.439 550.416 435.389 550.552 435.388C550.667 435.386 550.779 435.421 550.872 435.488C550.974 435.562 551.048 435.669 551.081 435.791C551.114 435.913 551.103 436.042 551.052 436.158L511.631 524.833C511.587 524.928 511.516 525.009 511.428 525.066C511.339 525.123 511.236 525.153 511.131 525.153H510.661Z" fill="#2AA7FF"/>
<path d="M550.552 435.938L511.151 524.603H510.682C510.393 524.599 510.115 524.488 509.902 524.293L478.115 506.846C477.141 506.459 476.139 506.145 475.118 505.907L473.409 505.747L550.542 435.938M550.542 434.839C550.278 434.845 550.026 434.948 549.833 435.128L472.699 504.937C472.539 505.078 472.424 505.264 472.369 505.47C472.313 505.676 472.321 505.894 472.39 506.096C472.457 506.301 472.583 506.48 472.752 506.613C472.921 506.747 473.125 506.828 473.339 506.846L475.008 506.996C475.659 507.141 476.297 507.338 476.916 507.585L477.666 507.855L509.263 525.202C509.668 525.521 510.167 525.696 510.682 525.702H511.151C511.363 525.704 511.571 525.643 511.749 525.528C511.926 525.412 512.066 525.247 512.151 525.053L551.552 436.447C551.632 436.29 551.673 436.115 551.672 435.938C551.673 435.794 551.646 435.651 551.592 435.518C551.537 435.385 551.457 435.263 551.356 435.161C551.255 435.059 551.134 434.978 551.002 434.922C550.869 434.867 550.726 434.839 550.582 434.839H550.542Z" fill="black"/>
<path d="M552.121 432.59C551.999 432.589 551.881 432.55 551.781 432.48L518.146 406.779C518.054 406.708 517.988 406.61 517.955 406.498C517.923 406.387 517.927 406.268 517.966 406.159C518.002 406.05 518.072 405.956 518.165 405.889C518.259 405.823 518.371 405.788 518.486 405.79L565.711 406.569C565.818 406.572 565.922 406.605 566.011 406.666C566.099 406.726 566.169 406.81 566.211 406.909C566.25 407.01 566.259 407.12 566.238 407.226C566.217 407.332 566.166 407.43 566.091 407.508L564.682 408.907C564.689 408.987 564.689 409.067 564.682 409.147C564.681 409.226 564.664 409.304 564.632 409.377C562.933 413.074 561.194 416.871 559.316 420.469L558.376 422.188C556.688 425.255 554.949 428.433 553.07 431.561L552.601 432.34C552.56 432.406 552.506 432.462 552.443 432.505C552.379 432.548 552.307 432.577 552.231 432.59H552.121Z" fill="#0D4A70"/>
<path d="M518.456 406.329L565.671 407.109L564.262 408.508C564.112 408.667 564.112 408.827 564.112 409.137C562.394 412.874 560.685 416.612 558.816 420.199L557.877 421.918C556.158 425.025 554.449 428.143 552.581 431.261L552.111 432.04L518.456 406.329ZM518.456 405.23C518.226 405.231 518.002 405.302 517.815 405.434C517.627 405.567 517.484 405.753 517.406 405.969C517.333 406.19 517.331 406.428 517.399 406.65C517.467 406.872 517.602 407.067 517.786 407.209L551.442 432.92C551.634 433.066 551.87 433.143 552.111 433.14C552.181 433.149 552.251 433.149 552.321 433.14C552.474 433.113 552.619 433.053 552.746 432.965C552.874 432.877 552.981 432.763 553.06 432.63L553.52 431.85C555.399 428.713 557.147 425.535 558.846 422.467L559.775 420.749C561.674 417.121 563.423 413.304 565.112 409.617C565.179 409.473 565.213 409.316 565.211 409.157L566.451 407.918C566.602 407.765 566.705 407.57 566.747 407.359C566.79 407.148 566.77 406.929 566.69 406.729C566.609 406.529 566.471 406.358 566.293 406.235C566.116 406.113 565.907 406.045 565.691 406.039L518.476 405.26L518.456 405.23Z" fill="black"/>
<path d="M517.512 257.888H517.393C517.273 257.859 517.165 257.792 517.088 257.696C517.01 257.6 516.966 257.481 516.963 257.358L515.244 188.489C515.244 188.34 515.301 188.197 515.404 188.089C515.454 188.036 515.514 187.993 515.581 187.964C515.648 187.935 515.721 187.919 515.794 187.919H516.583C517.474 187.899 518.362 187.816 519.241 187.669L519.621 187.609H519.941L556.024 178.746C556.067 178.737 556.111 178.737 556.154 178.746C556.237 178.744 556.32 178.762 556.395 178.798C556.469 178.835 556.534 178.889 556.584 178.956C556.651 179.035 556.693 179.132 556.706 179.235C556.718 179.338 556.7 179.442 556.654 179.535L518.002 257.608C517.954 257.695 517.883 257.767 517.797 257.817C517.71 257.866 517.612 257.891 517.512 257.888Z" fill="#393939"/>
<path d="M556.116 179.285L517.474 257.358L515.765 188.479H516.535C517.58 188.455 518.623 188.352 519.652 188.169H519.972L556.116 179.285ZM556.116 178.186H555.906L519.932 187.03H519.602L519.233 187.08C518.374 187.226 517.505 187.309 516.635 187.33H515.865C515.718 187.329 515.573 187.358 515.437 187.415C515.301 187.471 515.179 187.554 515.076 187.659C514.869 187.874 514.754 188.161 514.756 188.459L516.475 257.338C516.482 257.584 516.57 257.82 516.725 258.01C516.881 258.199 517.095 258.332 517.334 258.388H517.574C517.781 258.389 517.984 258.333 518.16 258.225C518.337 258.118 518.48 257.963 518.573 257.778L557.115 179.835C557.217 179.67 557.269 179.479 557.265 179.285C557.265 178.996 557.15 178.718 556.946 178.512C556.742 178.306 556.465 178.189 556.176 178.186H556.116Z" fill="black"/>
<path d="M262.925 525.998C262.211 526.004 261.509 525.807 260.902 525.431L260.649 525.309C257.523 523.598 250.24 519.63 231.82 502.804C225.831 497.468 221.168 493.095 217.122 489.055L208.109 478.931C208.038 478.834 208 478.717 208 478.597C208 478.477 208.038 478.36 208.109 478.263C208.16 478.183 208.23 478.117 208.313 478.071C208.396 478.025 208.489 478 208.584 478H208.736L299.604 505.466C299.71 505.5 299.804 505.563 299.874 505.65C299.944 505.736 299.988 505.841 299.998 505.952C300.007 506.062 299.983 506.172 299.931 506.268C299.879 506.365 299.801 506.445 299.705 506.499L297.024 507.916L264.847 525.441C264.283 525.829 263.609 526.024 262.925 525.998Z" fill="#393939"/>
<path d="M208.12 478.164L298.924 506.11L296.245 507.552L264.086 525.382C263.623 525.707 263.072 525.877 262.509 525.866C261.896 525.878 261.292 525.71 260.77 525.382L260.457 525.228C256.989 523.301 249.731 519.119 231.766 502.412C225.933 497.117 221.202 492.616 217.097 488.444L208.12 478.143M208.12 477C207.932 477 207.748 477.048 207.583 477.14C207.419 477.231 207.28 477.364 207.18 477.525C207.047 477.733 206.985 477.98 207.003 478.228C207.021 478.475 207.119 478.71 207.281 478.895L216.268 489.196C216.272 489.213 216.272 489.231 216.268 489.247C220.312 493.368 224.993 497.818 230.977 503.267C249.427 520.417 256.757 524.486 259.881 526.216L260.174 526.371C260.865 526.797 261.661 527.015 262.469 526.999C263.23 527.01 263.976 526.787 264.612 526.361L296.73 508.551L299.399 507.109C299.596 507.005 299.758 506.844 299.864 506.645C299.97 506.447 300.016 506.221 299.995 505.996C299.981 505.764 299.899 505.54 299.758 505.357C299.617 505.173 299.425 505.037 299.207 504.966L208.433 477.062C208.329 477.047 208.224 477.047 208.12 477.062V477Z" fill="black"/>
<path d="M385.752 479.965L471.179 505.826L460.837 510.483C456.84 512.202 452.133 514.17 447.077 515.799C445.693 516.301 444.42 517.068 443.33 518.057L442.64 518.747L385.752 479.965Z" fill="black"/>
<path d="M388.181 481.124L469.991 505.906L460.638 510.113C456.271 511.982 451.754 513.85 446.928 515.409C445.488 515.926 444.164 516.72 443.031 517.748L442.561 518.217L388.181 481.124ZM383.314 478.806L387.721 481.804L442.101 518.887L442.661 519.277L443.141 518.797L443.61 518.327C444.658 517.384 445.88 516.654 447.208 516.179C452.204 514.55 456.951 512.581 460.958 510.863L470.321 506.656L472.319 505.756L470.231 505.127L388.421 480.345L383.324 478.806H383.314Z" fill="black"/>
<path d="M512.687 187.63H512.587L509 187.01C503.464 185.941 501.006 185.381 496.13 184.252C493.831 183.722 490.983 183.063 487.006 182.174L465.812 177.497C465.707 177.472 465.611 177.417 465.537 177.339C465.462 177.261 465.412 177.163 465.392 177.057L457.758 136.237C457.743 136.161 457.745 136.083 457.762 136.007C457.779 135.931 457.812 135.86 457.858 135.797C457.905 135.738 457.964 135.688 458.031 135.652C458.098 135.616 458.171 135.594 458.247 135.588L495.22 132.15C495.353 132.151 495.481 132.201 495.58 132.29C495.638 132.337 495.686 132.396 495.718 132.464C495.751 132.531 495.769 132.605 495.77 132.68L497.169 169.653C497.188 171.499 497.636 173.315 498.478 174.959L498.728 175.209L499.727 175.878C503.319 178.325 506.784 180.953 510.109 183.752L513.107 186.75C513.19 186.832 513.245 186.939 513.261 187.055C513.277 187.17 513.255 187.288 513.197 187.39C513.143 187.474 513.067 187.541 512.977 187.583C512.887 187.625 512.786 187.642 512.687 187.63Z" fill="#2AA7FF"/>
<path d="M495.23 132.69L496.629 169.663C496.65 171.62 497.133 173.544 498.038 175.279L498.348 175.588C502.085 178.236 506.142 181.044 509.72 184.162L512.717 187.16L509.13 186.53C501.026 184.982 499.627 184.532 487.146 181.704L465.932 176.947L458.297 136.117L466.711 135.348L495.23 132.69ZM495.23 131.591H495.13L466.611 134.239L458.197 135.018C458.045 135.031 457.896 135.077 457.762 135.151C457.628 135.225 457.511 135.326 457.418 135.448C457.327 135.571 457.262 135.712 457.228 135.862C457.193 136.011 457.19 136.166 457.218 136.317L464.853 177.137C464.891 177.352 464.992 177.549 465.144 177.706C465.295 177.863 465.489 177.971 465.702 178.017L486.886 182.693C490.883 183.583 493.701 184.242 496 184.772C500.896 185.891 503.354 186.46 508.89 187.53L512.498 188.149C512.56 188.16 512.625 188.16 512.687 188.149C512.893 188.155 513.095 188.103 513.272 187.999C513.449 187.894 513.593 187.742 513.687 187.56C513.798 187.353 513.84 187.116 513.806 186.884C513.772 186.651 513.663 186.436 513.497 186.271L510.499 183.273L510.449 183.213C507.142 180.345 503.514 177.787 500.007 175.309L499.008 174.629L498.898 174.519C498.115 172.969 497.702 171.259 497.688 169.523L496.279 132.55C496.273 132.402 496.237 132.257 496.174 132.123C496.11 131.989 496.02 131.869 495.91 131.771C495.71 131.59 495.45 131.491 495.18 131.491L495.23 131.591Z" fill="black"/>
<path d="M607.737 396.596H607.607C607.514 396.575 607.428 396.529 607.358 396.464C607.288 396.399 607.236 396.318 607.207 396.226L578.538 301.636C578.504 301.527 578.505 301.411 578.541 301.304C578.577 301.196 578.646 301.102 578.738 301.036C578.834 300.966 578.949 300.928 579.068 300.926C579.175 300.927 579.279 300.958 579.368 301.016L581.186 302.225C581.516 302.354 581.834 302.511 582.136 302.695L582.426 302.855L615.401 318.274C616.001 318.51 616.523 318.909 616.908 319.427C617.293 319.944 617.526 320.559 617.58 321.201C618.195 327.71 618.248 334.259 617.74 340.777C617.59 345.174 617.15 350.54 616.341 357.635C614.032 380.388 611.754 388.882 610.235 393.279C609.898 394.113 609.451 394.9 608.906 395.617L608.077 396.456C607.983 396.541 607.863 396.59 607.737 396.596Z" fill="#0D4A70"/>
<path d="M579.098 301.456L580.967 302.705C581.398 302.879 581.816 303.086 582.216 303.325L615.251 318.753C615.762 318.958 616.207 319.3 616.536 319.74C616.866 320.181 617.068 320.704 617.12 321.252C617.716 327.728 617.766 334.243 617.27 340.727C617.12 345.244 616.65 350.72 615.871 357.555C613.693 379.059 611.504 388.103 609.795 393.089C609.476 393.866 609.056 394.599 608.546 395.267L607.767 396.047L579.098 301.456ZM579.098 300.357C578.86 300.356 578.628 300.433 578.438 300.577C578.258 300.712 578.122 300.899 578.051 301.114C577.98 301.328 577.975 301.559 578.039 301.776L606.718 396.367C606.773 396.548 606.873 396.712 607.01 396.843C607.146 396.974 607.314 397.068 607.497 397.116C607.587 397.126 607.677 397.126 607.767 397.116C607.912 397.117 608.055 397.089 608.189 397.034C608.322 396.979 608.444 396.898 608.546 396.796L609.326 396.017L609.426 395.897C609.993 395.152 610.46 394.336 610.815 393.469C610.819 393.449 610.819 393.428 610.815 393.409C612.344 388.982 614.632 380.418 616.95 357.635C617.76 350.53 618.199 345.164 618.359 340.737C618.856 334.203 618.803 327.638 618.199 321.112C618.128 320.363 617.851 319.649 617.399 319.048C616.948 318.447 616.34 317.982 615.641 317.704L582.665 302.295L582.426 302.166C582.107 301.976 581.773 301.816 581.426 301.686L579.668 300.507C579.486 300.39 579.274 300.328 579.058 300.327L579.098 300.357Z" fill="black"/>
<path d="M392.696 478.406C392.587 478.407 392.48 478.375 392.389 478.314C392.298 478.254 392.228 478.167 392.186 478.067C392.134 477.943 392.128 477.805 392.171 477.678C392.213 477.551 392.3 477.444 392.416 477.377L515.995 405.859C516.077 405.809 516.17 405.781 516.265 405.78C516.389 405.779 516.509 405.822 516.605 405.899L551.35 432.7C551.433 432.76 551.497 432.843 551.535 432.938C551.572 433.034 551.581 433.139 551.559 433.239C551.54 433.339 551.494 433.431 551.425 433.505C551.356 433.579 551.267 433.633 551.17 433.659L392.846 478.386L392.696 478.406Z" fill="#2AA7FF"/>
<path d="M516.265 406.329L551.02 433.13L392.696 477.857L516.265 406.329ZM516.265 405.23C516.072 405.23 515.882 405.282 515.715 405.38L392.146 476.907C391.914 477.042 391.739 477.256 391.653 477.509C391.567 477.763 391.575 478.039 391.676 478.286C391.761 478.482 391.9 478.65 392.077 478.768C392.255 478.887 392.462 478.952 392.676 478.956C392.775 478.971 392.876 478.971 392.975 478.956L551.299 434.229C551.496 434.174 551.673 434.066 551.811 433.916C551.948 433.765 552.041 433.58 552.079 433.379C552.117 433.179 552.099 432.972 552.027 432.782C551.955 432.591 551.831 432.424 551.669 432.3L516.925 405.5C516.729 405.352 516.49 405.271 516.245 405.27L516.265 405.23Z" fill="black"/>
<path d="M304.488 506.456H304.338L211.146 478.247C211.025 478.212 210.919 478.136 210.848 478.032C210.777 477.928 210.744 477.803 210.756 477.677C210.765 477.551 210.818 477.431 210.905 477.34C210.993 477.249 211.11 477.191 211.236 477.177L221.229 475.928L348.076 459.41H348.146C348.247 459.409 348.347 459.437 348.434 459.49C348.52 459.543 348.59 459.619 348.635 459.71C348.687 459.812 348.707 459.927 348.691 460.039C348.675 460.152 348.624 460.257 348.545 460.34L327.821 481.844L304.917 506.306C304.86 506.359 304.792 506.4 304.718 506.426C304.644 506.452 304.566 506.462 304.488 506.456Z" fill="#2AA7FF"/>
<path d="M348.126 459.94L327.401 481.444L304.498 505.906L211.306 477.727L221.299 476.488L348.146 459.97M348.146 458.861H348.026L221.199 475.369L211.206 476.618C210.949 476.642 210.709 476.755 210.527 476.938C210.344 477.12 210.231 477.36 210.207 477.617C210.186 477.869 210.253 478.12 210.394 478.329C210.536 478.538 210.745 478.692 210.986 478.766L304.178 506.966C304.28 506.985 304.385 506.985 304.488 506.966C304.633 506.979 304.78 506.963 304.919 506.919C305.058 506.874 305.187 506.802 305.297 506.706L328.2 482.244L348.885 460.779C348.992 460.678 349.078 460.555 349.136 460.42C349.195 460.284 349.225 460.138 349.225 459.99C349.226 459.846 349.199 459.702 349.145 459.569C349.091 459.435 349.011 459.313 348.91 459.21C348.809 459.107 348.688 459.025 348.556 458.968C348.423 458.912 348.28 458.882 348.136 458.881L348.146 458.861Z" fill="black"/>
<path d="M514.397 258.477C514.31 258.477 514.224 258.456 514.147 258.418L442 216.498C441.94 216.463 441.889 216.417 441.848 216.362C441.807 216.307 441.777 216.245 441.76 216.178C441.744 216.114 441.742 216.047 441.754 215.981C441.766 215.916 441.792 215.853 441.83 215.799L465.183 178.396C465.228 178.326 465.29 178.268 465.363 178.228C465.436 178.188 465.519 178.166 465.602 178.166C465.689 178.166 465.773 178.188 465.849 178.23C465.924 178.272 465.987 178.332 466.032 178.406L514.806 257.718C514.864 257.813 514.889 257.924 514.876 258.035C514.863 258.145 514.814 258.248 514.736 258.328C514.646 258.418 514.525 258.472 514.397 258.477Z" fill="#0D4A70"/>
<path d="M465.622 178.666L514.396 257.978L442.249 216.059L465.622 178.666ZM465.622 177.667C465.452 177.666 465.285 177.709 465.137 177.792C464.988 177.874 464.863 177.992 464.773 178.136L441.4 215.529C441.329 215.643 441.283 215.769 441.262 215.902C441.241 216.034 441.247 216.169 441.28 216.298C441.312 216.43 441.37 216.553 441.45 216.661C441.531 216.769 441.633 216.86 441.75 216.928L513.897 258.847C514.049 258.934 514.221 258.978 514.396 258.977C514.53 258.978 514.663 258.952 514.787 258.9C514.91 258.849 515.022 258.773 515.116 258.677C515.27 258.518 515.366 258.311 515.39 258.09C515.413 257.869 515.363 257.647 515.246 257.458L466.472 178.136C466.382 177.992 466.256 177.874 466.108 177.792C465.959 177.709 465.792 177.666 465.622 177.667Z" fill="black"/>
<path d="M572.212 278.792C572.152 278.802 572.091 278.802 572.032 278.792L517.652 260.406C517.576 260.38 517.506 260.338 517.447 260.282C517.389 260.227 517.343 260.16 517.312 260.086C517.28 260.015 517.264 259.939 517.264 259.861C517.264 259.784 517.28 259.707 517.312 259.636L555.804 181.873C555.848 181.782 555.917 181.705 556.004 181.651C556.091 181.598 556.191 181.571 556.293 181.574H556.373C556.489 181.59 556.597 181.644 556.68 181.726C556.763 181.809 556.817 181.917 556.833 182.033L572.731 278.183C572.746 278.277 572.736 278.373 572.702 278.462C572.669 278.551 572.614 278.631 572.541 278.693C572.445 278.76 572.329 278.795 572.212 278.792Z" fill="#2AA7FF"/>
<path d="M556.315 182.093L572.213 278.243L517.823 259.886L556.315 182.133M556.315 181.034C556.108 181.033 555.905 181.089 555.729 181.196C555.552 181.304 555.409 181.459 555.316 181.644L516.824 259.407C516.76 259.55 516.727 259.705 516.727 259.862C516.727 260.018 516.76 260.173 516.824 260.316C516.887 260.46 516.979 260.589 517.094 260.696C517.209 260.803 517.345 260.884 517.494 260.936L571.874 279.322C571.99 279.362 572.111 279.382 572.233 279.382C572.493 279.381 572.744 279.289 572.943 279.122C573.086 279.002 573.195 278.847 573.26 278.672C573.325 278.496 573.343 278.307 573.313 278.123L557.404 181.944C557.366 181.713 557.256 181.5 557.089 181.337C556.921 181.173 556.706 181.067 556.475 181.034H556.315Z" fill="black"/>
<path d="M515.527 405.869L576.223 303.115L564.751 406.819L515.527 405.869Z" fill="black"/>
<path d="M575.612 304.963L564.39 406.399L516.235 405.47L575.612 304.963ZM576.841 301.266L574.902 304.544L515.536 405.05L514.816 406.259H516.215L564.37 407.188H565.12L565.199 406.439L576.421 305.003L576.841 301.216V301.266Z" fill="black"/>
<path d="M349.136 459.74L386.398 480.145L305.607 505.996L349.136 459.74Z" fill="black"/>
<path d="M349.266 460.25L385.42 480.035L307.037 505.127L349.266 460.25ZM349.106 459.25L348.677 459.71L306.438 504.587L304.279 506.886L307.277 505.886L385.66 480.795L387.468 480.215L385.8 479.306L349.646 459.51L349.096 459.21L349.106 459.25Z" fill="black"/>
<path d="M466.312 177.396L469.15 178.106C479.873 180.794 507.312 186.83 513.848 188.099L514.797 188.338L514.967 192.845L516.366 254.87V258.867L466.312 177.396Z" fill="black"/>
<path d="M467.182 178.036L469.051 178.506C479.653 181.154 507.233 187.23 513.778 188.499L514.398 188.659L514.558 192.866L515.957 254.88V257.378L467.182 178.036ZM465.434 176.757L466.483 178.466L515.257 257.788L516.776 260.246V254.89L515.367 192.856L515.217 188.639V188.019L514.618 187.869L513.998 187.719C507.423 186.46 480.023 180.425 469.271 177.727L467.402 177.257L465.454 176.767L465.434 176.757Z" fill="black"/>
<path d="M514.398 188.639L514.558 193.005L514.398 188.639Z" fill="#144D8F"/>
<path d="M264.629 402.931C261.866 398.372 260.446 393.124 260.532 387.793L262.601 265.512C262.627 263.506 263.067 261.527 263.894 259.699C264.721 257.871 265.917 256.234 267.407 254.89L266.038 255.699C263.887 256.962 262.096 258.756 260.837 260.91C259.579 263.064 258.896 265.506 258.854 268L256.785 390.281C256.697 395.623 258.121 400.881 260.892 405.45L264.729 403.141L264.629 402.931Z" fill="black"/>
<path d="M272.863 411.395C266.228 407.568 264.629 402.932 264.629 402.932C264.629 402.932 266.138 412.724 271.494 415.682L349.527 458.651L387.239 479.256L392.166 476.398C355.822 456.942 277.959 414.333 272.863 411.395Z" fill="#2AA7FF"/>
<path d="M260.793 402.592L264.731 403.161C264.731 403.161 265.4 410.776 270.406 414.953C270.406 414.953 263.112 409.677 260.893 405.47C258.675 401.263 260.793 402.592 260.793 402.592Z" fill="black"/>
<path d="M262.502 185.731C265.59 184.532 273.674 181.184 276.951 178.036C281.028 174.119 280.269 134.498 281.028 133.009C281.788 131.521 325.596 112.854 340.395 107.688C341.564 107.278 342.523 106.889 343.323 106.529C338.256 107.308 329.263 109.367 311.506 115.522C287.823 123.626 281.118 127.833 277.851 129.862C277.169 130.291 276.609 130.889 276.226 131.598C275.842 132.307 275.648 133.103 275.662 133.909V170.062C275.657 171.694 275.275 173.303 274.545 174.762C273.815 176.222 272.758 177.493 271.455 178.476C271.455 178.476 266.459 182.843 264.291 184.712C263.728 185.107 263.129 185.449 262.502 185.731Z" fill="white"/>
<path d="M160.606 322.271C161.795 320.732 185.947 309.34 191.473 307.132C196.999 304.924 196.659 300.527 196.659 300.527C195.663 301.896 194.317 302.973 192.762 303.645L160.036 318.913C159.332 319.284 158.725 319.816 158.265 320.465C157.805 321.114 157.504 321.863 157.388 322.651C156.929 326.548 155.829 334.492 158.797 359.893C161.445 384.825 164.253 392.31 165.492 395.867C165.787 396.614 166.249 397.284 166.843 397.825C167.437 398.365 168.148 398.762 168.92 398.985C159.037 371.645 159.407 323.84 160.606 322.271Z" fill="white"/>
<path d="M382.953 187.08C384.414 186.397 386.021 186.088 387.63 186.178C389.24 186.269 390.802 186.757 392.176 187.599C397.053 190.497 516.895 264.183 516.895 264.183V263.314C516.725 261.907 516.237 260.557 515.468 259.366C514.7 258.175 513.67 257.174 512.458 256.439C492.003 244.028 397.472 186.88 392.016 185.261C390.484 184.707 388.829 184.583 387.231 184.904C385.633 185.224 384.153 185.977 382.953 187.08Z" fill="#2AA7FF"/>
<path d="M439.4 525.438L440.5 522.438C440.3 522.738 440.2 523.237 440 523.637L439.4 525.438Z" fill="#2A70B8"/>
<path d="M502.9 181.538L503.5 185.938L502.9 181.538Z" fill="#144D8F"/>
<path d="M215 99.6375C221.075 99.6375 226 94.7126 226 88.6375C226 82.5623 221.075 77.6375 215 77.6375C208.925 77.6375 204 82.5623 204 88.6375C204 94.7126 208.925 99.6375 215 99.6375Z" fill="#B2BAC1"/>
<path d="M162.601 118.437C165.252 118.437 167.401 116.288 167.401 113.637C167.401 110.986 165.252 108.837 162.601 108.837C159.95 108.837 157.801 110.986 157.801 113.637C157.801 116.288 159.95 118.437 162.601 118.437Z" fill="#B0E1FF"/>
<path d="M218.3 598.137C213.3 598.237 209.1 594.237 209 589.237C208.9 584.237 212.9 580.038 217.9 579.938C222.9 579.838 227.1 583.837 227.2 588.837C227.3 593.837 223.3 598.137 218.3 598.137ZM217.9 583.637C215 583.637 212.6 586.137 212.7 589.037C212.7 591.937 215.2 594.337 218.1 594.237C221 594.237 223.4 591.737 223.3 588.837C223.3 586.037 220.9 583.637 217.9 583.637Z" fill="#B2BAC1"/>
<path d="M597.299 559.637L586.699 549.637L596.699 539.137L607.299 549.137L597.299 559.637ZM592.099 549.337L597.099 554.137L601.899 549.137L596.899 544.337L592.099 549.337Z" fill="#B0E1FF"/>
<path d="M157.7 565.037L142.5 574.237L126.9 565.637L126.4 547.938L141.6 538.737L157.2 547.337L157.7 565.037ZM169.4 555.037L164.9 552.737C164.7 551.337 164.4 549.937 163.8 548.637L167 544.938C165.8 542.138 164.1 539.637 162 537.537L156.9 538.737C156.1 538.037 155.3 537.437 154.5 536.837L154.6 531.737C151.9 530.237 149 529.338 145.9 528.938L142.8 533.137C142.4 533.137 141.9 533.137 141.5 533.137C141.1 533.137 140.6 533.137 140.2 533.137L136.9 529.137C133.8 529.637 130.9 530.837 128.2 532.337L128.5 537.438C127.7 538.038 126.9 538.637 126.1 539.337L121 538.337C119 540.537 117.5 543.138 116.4 545.938L119.8 549.438C119.4 550.737 119 552.137 118.9 553.537L114.4 556.037C114.4 556.237 114.4 556.437 114.4 556.737C114.4 559.337 114.9 561.937 115.7 564.337L120.3 564.837C121 566.637 121.9 568.237 123 569.837L121.3 574.337C123 576.337 125 578.037 127.2 579.337L131.1 576.837C133 577.837 135 578.537 137.1 578.938L138.6 583.337C139.8 583.537 141.1 583.637 142.4 583.537C143.7 583.537 145 583.437 146.2 583.137L147.5 578.737C149.6 578.237 151.7 577.337 153.5 576.237L157.4 578.537C159.6 577.037 161.5 575.237 163.1 573.237L161.2 568.737C162.2 567.237 163 565.537 163.7 563.737L168.3 563.037C169 560.637 169.3 558.037 169.2 555.438C169.5 555.538 169.5 555.237 169.4 555.037Z" fill="#B0E1FF"/>
<path d="M598.8 77.9376L595.8 76.6376C595.6 75.7376 595.4 74.8376 595.1 74.0376L597.1 71.6376C596.2 69.8376 595 68.3376 593.6 67.1376L590.3 68.1376C589.8 67.7376 589.3 67.4376 588.7 67.0376L588.5 63.7375C586.8 62.9375 584.8 62.4375 582.8 62.2375L580.8 64.9376C580.5 64.9376 580.3 64.9376 580 64.9376C579.7 64.9376 579.4 64.9376 579.2 64.9376L577.1 62.3376C575.1 62.7376 573.3 63.6376 571.6 64.6376L572 67.9376C571.5 68.3376 570.9 68.8375 570.6 69.2375L567.3 68.8376C566.1 70.3376 565.2 71.9376 564.6 73.8376L566.8 76.0376C566.5 76.8376 566.4 77.7376 566.3 78.6376L563.5 80.3376C563.5 80.4376 563.5 80.6375 563.5 80.7375C563.6 82.4375 564 84.0376 564.6 85.6376L567.6 85.8376C568.1 86.9376 568.7 87.9376 569.4 88.9376L568.4 91.9376C569.6 93.1376 570.8 94.2375 572.4 94.9375L574.8 93.2375C576 93.8375 577.4 94.3375 578.8 94.4375L579.9 97.1376C580.7 97.2376 581.5 97.2375 582.3 97.2375C583.1 97.2375 583.9 97.0375 584.7 96.9375L585.4 94.1376C586.8 93.7376 588.1 93.1376 589.2 92.3376L591.8 93.8376C593.1 92.8376 594.4 91.6375 595.3 90.2375L593.9 87.4376C594.5 86.4376 595 85.2376 595.2 84.1376L598.2 83.5376C598.5 81.9376 598.6 80.3376 598.5 78.6376C598.8 78.2376 598.8 78.0376 598.8 77.9376Z" fill="#2AA7FF"/>
<path d="M63.8008 236.337L348.001 348.137" stroke="url(#paint26_linear_219_5230)" stroke-width="1.1984" stroke-miterlimit="10"/>
<path d="M348.399 358.237C346.199 358.337 344.099 357.737 342.399 356.537C340.499 355.037 339.299 352.937 338.999 350.737C338.799 348.337 339.199 346.037 340.599 344.237C342.199 342.237 344.399 340.937 346.999 340.637C349.199 340.537 351.299 341.137 352.999 342.337C354.899 343.837 356.099 345.937 356.399 348.137C356.599 350.537 356.199 352.837 354.799 354.637C353.299 356.837 350.999 358.037 348.399 358.237Z" fill="#2AA7FF"/>
<path d="M347.099 341.137C349.099 341.037 350.999 341.537 352.699 342.837C356.299 345.537 357.199 350.837 354.399 354.437C352.899 356.437 350.699 357.537 348.499 357.737C346.499 357.837 344.599 357.337 342.899 356.037C339.299 353.337 338.399 348.037 341.199 344.437C342.599 342.337 344.799 341.237 347.099 341.137ZM346.999 339.937C344.299 340.137 341.799 341.537 340.199 343.737C336.999 347.937 337.999 353.837 342.099 357.037C343.899 358.437 346.199 359.137 348.499 358.837C351.199 358.637 353.699 357.237 355.299 355.037C358.499 350.837 357.499 344.937 353.399 341.737C351.699 340.337 349.299 339.737 346.999 339.937Z" fill="black"/>
<path d="M672.099 483.438C669.899 483.438 667.799 482.738 666.199 481.438C662.399 478.238 661.999 472.638 665.099 468.838C666.799 466.938 669.199 465.738 671.799 465.638C673.999 465.638 676.099 466.338 677.699 467.638C681.499 470.838 681.899 476.438 678.799 480.238C677.099 482.438 674.699 483.438 672.099 483.438Z" fill="#2AA7FF"/>
<path d="M671.8 466.238C673.8 466.238 675.7 466.838 677.3 468.238C680.7 471.138 681.3 476.438 678.3 479.938C676.7 481.838 674.4 482.838 672.1 482.938C670.1 482.938 668.2 482.338 666.6 480.938C663.2 478.038 662.6 472.738 665.6 469.238C667.2 467.438 669.5 466.338 671.8 466.238ZM671.7 465.038C669 465.038 666.4 466.338 664.7 468.438C663 470.338 662.3 472.738 662.5 475.338C662.6 477.938 663.9 480.238 665.9 481.738C667.6 483.238 669.9 484.038 672.2 483.938C674.9 483.938 677.5 482.638 679.2 480.538C680.9 478.638 681.6 476.238 681.4 473.638C681.3 471.038 680 468.738 678 467.238C676.4 465.938 674 465.038 671.7 465.038Z" fill="black"/>
<path d="M65.7009 244.038C63.5009 244.038 61.4009 243.338 59.8009 242.038C56.0009 238.838 55.6009 233.238 58.7009 229.438C60.4009 227.538 62.8009 226.338 65.4009 226.238C67.6009 226.238 69.7009 226.938 71.3009 228.238C75.1009 231.438 75.5009 237.038 72.4009 240.838C70.7009 242.838 68.3009 243.938 65.7009 244.038Z" fill="#2AA7FF"/>
<path d="M65.4006 226.837C67.4006 226.837 69.3006 227.437 70.9006 228.837C74.3006 231.737 74.9006 237.037 71.9006 240.537C70.3006 242.437 68.0007 243.437 65.7007 243.537C63.7007 243.537 61.8007 242.937 60.2007 241.537C56.8007 238.637 56.2007 233.337 59.2007 229.837C60.8007 227.937 63.1006 226.837 65.4006 226.837ZM65.3007 225.637C62.6007 225.637 60.0007 226.937 58.3007 229.037C54.9007 233.037 55.5006 238.937 59.4006 242.437C61.1006 243.937 63.4007 244.737 65.7007 244.637C68.4007 244.637 71.0007 243.337 72.7007 241.237C76.1007 237.237 75.5006 231.337 71.6006 227.837C70.0006 226.337 67.6007 225.637 65.3007 225.637Z" fill="black"/>
<path d="M344.9 334.737L338.1 289.437L299.1 24.6375" stroke="#F3F3F5" stroke-width="1.6958" stroke-miterlimit="10"/>
<path d="M300.407 33.5C298.207 33.5 296.107 32.7 294.507 31.3C292.707 29.7 291.707 27.5 291.507 25.2C291.407 22.8 292.107 20.5 293.707 18.8C295.407 16.9 297.807 15.8 300.407 15.8C302.607 15.8 304.707 16.6 306.307 18C310.007 21.3 310.307 26.9 307.107 30.6C305.407 32.4 303.007 33.5 300.407 33.5Z" fill="#2AA7FF"/>
<path d="M300.508 16.2C302.508 16.2 304.408 16.9 306.008 18.3C309.408 21.3 309.808 26.6 306.708 30C305.108 31.9 302.808 32.8 300.508 32.8C298.508 32.8 296.608 32.1 295.008 30.7C291.608 27.7 291.208 22.4 294.308 19C295.908 17.2 298.208 16.2 300.508 16.2ZM300.508 15C297.808 15 295.208 16.2 293.408 18.2C291.708 20.1 290.908 22.5 291.008 25.1C291.208 27.6 292.308 30 294.208 31.6C295.908 33.1 298.208 34 300.508 34C303.208 34 305.808 32.8 307.608 30.8C311.108 26.9 310.708 20.9 306.808 17.4C305.008 15.9 302.808 15 300.508 15Z" fill="black"/>
<path d="M250.301 199.538C250.401 199.538 250.401 199.438 250.301 199.538Z" fill="#2AA7FF"/>
</g>
<defs>
<linearGradient id="paint0_linear_219_5230" x1="3.23633" y1="357.095" x2="733.562" y2="357.095" gradientUnits="userSpaceOnUse">
<stop stop-color="#1E1E21" stop-opacity="0"/>
<stop offset="0.51" stop-color="#535355"/>
<stop offset="1" stop-color="#1E1E21" stop-opacity="0"/>
</linearGradient>
<linearGradient id="paint1_linear_219_5230" x1="64.5759" y1="300.394" x2="733.624" y2="300.394" gradientUnits="userSpaceOnUse">
<stop stop-color="#1E1E21" stop-opacity="0"/>
<stop offset="0.51" stop-color="#535355"/>
<stop offset="1" stop-color="#1E1E21" stop-opacity="0"/>
</linearGradient>
<linearGradient id="paint2_linear_219_5230" x1="184.953" y1="258.993" x2="733.248" y2="258.993" gradientUnits="userSpaceOnUse">
<stop stop-color="#1E1E21" stop-opacity="0"/>
<stop offset="0.51" stop-color="#535355"/>
<stop offset="1" stop-color="#1E1E21" stop-opacity="0"/>
</linearGradient>
<linearGradient id="paint3_linear_219_5230" x1="307.629" y1="216.192" x2="735.171" y2="216.192" gradientUnits="userSpaceOnUse">
<stop stop-color="#1E1E21" stop-opacity="0"/>
<stop offset="0.51" stop-color="#535355"/>
<stop offset="1" stop-color="#1E1E21" stop-opacity="0"/>
</linearGradient>
<linearGradient id="paint4_linear_219_5230" x1="428.706" y1="174.59" x2="735.095" y2="174.59" gradientUnits="userSpaceOnUse">
<stop stop-color="#1E1E21" stop-opacity="0"/>
<stop offset="0.51" stop-color="#535355"/>
<stop offset="1" stop-color="#1E1E21" stop-opacity="0"/>
</linearGradient>
<linearGradient id="paint5_linear_219_5230" x1="550.283" y1="133.239" x2="734.817" y2="133.239" gradientUnits="userSpaceOnUse">
<stop stop-color="#1E1E21" stop-opacity="0"/>
<stop offset="0.51" stop-color="#535355"/>
<stop offset="1" stop-color="#1E1E21" stop-opacity="0"/>
</linearGradient>
<linearGradient id="paint6_linear_219_5230" x1="3.37647" y1="413.694" x2="672.825" y2="413.694" gradientUnits="userSpaceOnUse">
<stop stop-color="#1E1E21" stop-opacity="0"/>
<stop offset="0.51" stop-color="#535355"/>
<stop offset="1" stop-color="#1E1E21" stop-opacity="0"/>
</linearGradient>
<linearGradient id="paint7_linear_219_5230" x1="3.15242" y1="455.543" x2="551.548" y2="455.543" gradientUnits="userSpaceOnUse">
<stop stop-color="#1E1E21" stop-opacity="0"/>
<stop offset="0.51" stop-color="#535355"/>
<stop offset="1" stop-color="#1E1E21" stop-opacity="0"/>
</linearGradient>
<linearGradient id="paint8_linear_219_5230" x1="3.22965" y1="496.742" x2="429.77" y2="496.742" gradientUnits="userSpaceOnUse">
<stop stop-color="#1E1E21" stop-opacity="0"/>
<stop offset="0.51" stop-color="#535355"/>
<stop offset="1" stop-color="#1E1E21" stop-opacity="0"/>
</linearGradient>
<linearGradient id="paint9_linear_219_5230" x1="3.70677" y1="538.24" x2="309.194" y2="538.24" gradientUnits="userSpaceOnUse">
<stop stop-color="#1E1E21" stop-opacity="0"/>
<stop offset="0.51" stop-color="#535355"/>
<stop offset="1" stop-color="#1E1E21" stop-opacity="0"/>
</linearGradient>
<linearGradient id="paint10_linear_219_5230" x1="3.58238" y1="580.339" x2="187.916" y2="580.339" gradientUnits="userSpaceOnUse">
<stop stop-color="#1E1E21" stop-opacity="0"/>
<stop offset="0.51" stop-color="#535355"/>
<stop offset="1" stop-color="#1E1E21" stop-opacity="0"/>
</linearGradient>
<linearGradient id="paint11_linear_219_5230" x1="2.17976" y1="188.79" x2="193.122" y2="188.79" gradientUnits="userSpaceOnUse">
<stop stop-color="#1E1E21" stop-opacity="0"/>
<stop offset="0.51" stop-color="#535355"/>
<stop offset="1" stop-color="#1E1E21" stop-opacity="0"/>
</linearGradient>
<linearGradient id="paint12_linear_219_5230" x1="-0.20016" y1="218.142" x2="315.6" y2="218.142" gradientUnits="userSpaceOnUse">
<stop stop-color="#1E1E21" stop-opacity="0"/>
<stop offset="0.51" stop-color="#535355"/>
<stop offset="1" stop-color="#1E1E21" stop-opacity="0"/>
</linearGradient>
<linearGradient id="paint13_linear_219_5230" x1="2.02713" y1="247.643" x2="433.774" y2="247.643" gradientUnits="userSpaceOnUse">
<stop stop-color="#1E1E21" stop-opacity="0"/>
<stop offset="0.51" stop-color="#535355"/>
<stop offset="1" stop-color="#1E1E21" stop-opacity="0"/>
</linearGradient>
<linearGradient id="paint14_linear_219_5230" x1="2.14975" y1="277.195" x2="554.75" y2="277.195" gradientUnits="userSpaceOnUse">
<stop stop-color="#1E1E21" stop-opacity="0"/>
<stop offset="0.51" stop-color="#535355"/>
<stop offset="1" stop-color="#1E1E21" stop-opacity="0"/>
</linearGradient>
<linearGradient id="paint15_linear_219_5230" x1="3.27294" y1="306.097" x2="675.825" y2="306.097" gradientUnits="userSpaceOnUse">
<stop stop-color="#1E1E21" stop-opacity="0"/>
<stop offset="0.51" stop-color="#535355"/>
<stop offset="1" stop-color="#1E1E21" stop-opacity="0"/>
</linearGradient>
<linearGradient id="paint16_linear_219_5230" x1="0.835349" y1="356.398" x2="735.166" y2="356.398" gradientUnits="userSpaceOnUse">
<stop stop-color="#1E1E21" stop-opacity="0"/>
<stop offset="0.51" stop-color="#535355"/>
<stop offset="1" stop-color="#1E1E21" stop-opacity="0"/>
</linearGradient>
<linearGradient id="paint17_linear_219_5230" x1="59.1699" y1="407.847" x2="737.129" y2="407.847" gradientUnits="userSpaceOnUse">
<stop stop-color="#1E1E21" stop-opacity="0"/>
<stop offset="0.51" stop-color="#535355"/>
<stop offset="1" stop-color="#1E1E21" stop-opacity="0"/>
</linearGradient>
<linearGradient id="paint18_linear_219_5230" x1="177.947" y1="437.245" x2="736.255" y2="437.245" gradientUnits="userSpaceOnUse">
<stop stop-color="#1E1E21" stop-opacity="0"/>
<stop offset="0.51" stop-color="#535355"/>
<stop offset="1" stop-color="#1E1E21" stop-opacity="0"/>
</linearGradient>
<linearGradient id="paint19_linear_219_5230" x1="299.822" y1="466.644" x2="737.677" y2="466.644" gradientUnits="userSpaceOnUse">
<stop stop-color="#1E1E21" stop-opacity="0"/>
<stop offset="0.51" stop-color="#535355"/>
<stop offset="1" stop-color="#1E1E21" stop-opacity="0"/>
</linearGradient>
<linearGradient id="paint20_linear_219_5230" x1="423.201" y1="496.192" x2="737.9" y2="496.192" gradientUnits="userSpaceOnUse">
<stop stop-color="#1E1E21" stop-opacity="0"/>
<stop offset="0.51" stop-color="#535355"/>
<stop offset="1" stop-color="#1E1E21" stop-opacity="0"/>
</linearGradient>
<linearGradient id="paint21_linear_219_5230" x1="543.477" y1="525.44" x2="736.222" y2="525.44" gradientUnits="userSpaceOnUse">
<stop stop-color="#1E1E21" stop-opacity="0"/>
<stop offset="0.51" stop-color="#535355"/>
<stop offset="1" stop-color="#1E1E21" stop-opacity="0"/>
</linearGradient>
<linearGradient id="paint22_linear_219_5230" x1="667.358" y1="554.738" x2="734.143" y2="554.738" gradientUnits="userSpaceOnUse">
<stop stop-color="#1E1E21" stop-opacity="0"/>
<stop offset="0.51" stop-color="#535355"/>
<stop offset="1" stop-color="#1E1E21" stop-opacity="0"/>
</linearGradient>
<linearGradient id="paint23_linear_219_5230" x1="411.084" y1="89.8762" x2="418.087" y2="89.8702" gradientUnits="userSpaceOnUse">
<stop offset="1.38522e-07" stop-color="#1E1E21"/>
<stop offset="0.5128" stop-color="#454545"/>
<stop offset="1" stop-color="#1E1E21"/>
</linearGradient>
<linearGradient id="paint24_linear_219_5230" x1="506.67" y1="63.752" x2="388.211" y2="674.204" gradientUnits="userSpaceOnUse">
<stop offset="2.77045e-07" stop-color="#2AA7FF"/>
<stop offset="0.5128" stop-color="white"/>
<stop offset="1" stop-color="#2AA7FF"/>
</linearGradient>
<linearGradient id="paint25_linear_219_5230" x1="435.969" y1="4.84881" x2="356.497" y2="414.39" gradientUnits="userSpaceOnUse">
<stop offset="2.77045e-07" stop-color="#2AA7FF"/>
<stop offset="0.5128" stop-color="white"/>
<stop offset="1" stop-color="#2AA7FF"/>
</linearGradient>
<linearGradient id="paint26_linear_219_5230" x1="211.277" y1="264.533" x2="200.458" y2="320.285" gradientUnits="userSpaceOnUse">
<stop offset="2.77045e-07" stop-color="#2AA7FF"/>
<stop offset="0.5128" stop-color="white"/>
<stop offset="1" stop-color="#2AA7FF"/>
</linearGradient>
<clipPath id="clip0_219_5230">
<rect width="737.7" height="682.706" fill="white"/>
</clipPath>
</defs>
</svg>
