<svg xmlns="http://www.w3.org/2000/svg" viewBox="0 0 227.32 161.4"><defs><style>.cls-1{fill:none;stroke:#c2c1c1;stroke-miterlimit:10;}.cls-2{fill:#c1c1c1;}.cls-3{fill:#0f5880;}.cls-4{fill:#1d8dcd;}.cls-5{fill:#4c99d3;}.cls-6{fill:#2993d1;}.cls-7{fill:#2a70b8;}.cls-8{fill:#0d4b66;}.cls-9{fill:#1386bb;}.cls-10{fill:#1a79bf;}.cls-11{fill:#1d6d92;}.cls-12{fill:#0168ae;}.cls-13{fill:#16617d;}.cls-14{fill:#1075af;}</style></defs><title>Asset 8</title><g id="Layer_2" data-name="Layer 2"><g id="Layer_1-2" data-name="Layer 1"><polygon class="cls-1" points="212.67 128.6 2.92 126.35 93.17 1.35 212.67 128.6"/><polygon class="cls-1" points="87.92 155.23 84.67 1.35 226.17 160.85 87.92 155.23"/><circle class="cls-2" cx="2.92" cy="126.35" r="1.37"/><circle class="cls-2" cx="208.07" cy="140.45" r="1.37"/><circle class="cls-2" cx="89.35" cy="6.63" r="1.37"/><circle class="cls-2" cx="204.77" cy="142.59" r="0.77"/><circle class="cls-2" cx="46.92" cy="60.18" r="0.77"/><circle class="cls-2" cx="0.77" cy="122.1" r="0.77"/><circle class="cls-2" cx="111.18" cy="151.53" r="0.69"/><circle class="cls-2" cx="118.38" cy="12.28" r="0.69"/><circle class="cls-2" cx="115.27" cy="150.25" r="0.77"/><circle class="cls-2" cx="113.23" cy="146.16" r="0.69"/><rect class="cls-3" x="17.94" y="84.89" width="87.82" height="51.69" transform="translate(-8.6 5.26) rotate(-4.56)"/><rect class="cls-4" x="105.4" y="77.92" width="87.82" height="51.69" transform="matrix(1, -0.08, 0.08, 1, -7.77, 12.19)"/><rect class="cls-5" x="57.28" y="29.9" width="87.82" height="51.69" transform="translate(-4.11 8.22) rotate(-4.56)"/><polygon class="cls-6" points="147.02 78.02 59.48 85 101.19 55.75 142.91 26.5 147.02 78.02"/><rect class="cls-7" x="69.56" y="37.44" width="5.68" height="41.2" transform="translate(-4.38 5.94) rotate(-4.56)"/><rect class="cls-7" x="81.08" y="36.53" width="5.68" height="41.2" transform="translate(-4.27 6.85) rotate(-4.56)"/><rect class="cls-7" x="92.6" y="35.61" width="5.68" height="41.2" transform="translate(-4.16 7.76) rotate(-4.56)"/><rect class="cls-7" x="104.11" y="34.69" width="5.68" height="41.2" transform="translate(-4.05 8.67) rotate(-4.56)"/><rect class="cls-7" x="115.63" y="33.77" width="5.68" height="41.2" transform="translate(-3.94 9.58) rotate(-4.56)"/><rect class="cls-7" x="127.15" y="32.85" width="5.68" height="41.2" transform="translate(-3.84 10.5) rotate(-4.56)"/><polygon class="cls-8" points="107.67 133.01 20.13 139.99 61.85 110.74 103.56 81.48 107.67 133.01"/><polygon class="cls-9" points="195.13 126.04 107.59 133.02 147.02 106.06 191.03 74.52 195.13 126.04"/><rect class="cls-10" x="117.67" y="85.46" width="5.68" height="41.2" transform="translate(-8.04 9.91) rotate(-4.56)"/><rect class="cls-10" x="129.19" y="84.55" width="5.68" height="41.2" transform="translate(-7.94 10.82) rotate(-4.56)"/><rect class="cls-10" x="140.71" y="83.63" width="5.68" height="41.2" transform="translate(-7.83 11.73) rotate(-4.56)"/><rect class="cls-10" x="152.22" y="82.71" width="5.68" height="41.2" transform="translate(-7.72 12.65) rotate(-4.56)"/><rect class="cls-10" x="163.74" y="81.79" width="5.68" height="41.2" transform="translate(-7.61 13.56) rotate(-4.56)"/><rect class="cls-10" x="175.26" y="80.87" width="5.68" height="41.2" transform="translate(-7.5 14.47) rotate(-4.56)"/><rect class="cls-11" x="30.24" y="92.75" width="5.68" height="41.2" transform="translate(-8.9 2.99) rotate(-4.56)"/><rect class="cls-11" x="41.76" y="91.83" width="5.68" height="41.2" transform="translate(-8.79 3.9) rotate(-4.56)"/><rect class="cls-11" x="53.27" y="90.91" width="5.68" height="41.2" transform="translate(-8.68 4.81) rotate(-4.56)"/><rect class="cls-11" x="64.79" y="89.99" width="5.68" height="41.2" transform="translate(-8.57 5.72) rotate(-4.56)"/><rect class="cls-11" x="76.31" y="89.07" width="5.68" height="41.2" transform="matrix(1, -0.08, 0.08, 1, -8.46, 6.63)"/><rect class="cls-11" x="87.82" y="88.16" width="5.68" height="41.2" transform="translate(-8.35 7.55) rotate(-4.56)"/><polygon class="cls-12" points="76.87 78.35 71.21 78.8 72.4 58.04 73.6 37.28 76.87 78.35"/><polygon class="cls-12" points="88.39 77.43 82.72 77.88 83.92 57.12 85.11 36.37 88.39 77.43"/><polygon class="cls-12" points="99.9 76.51 94.24 76.96 95.44 57.12 96.63 35.45 99.9 76.51"/><polygon class="cls-12" points="111.42 75.59 105.76 76.05 106.95 55.29 108.15 34.53 111.42 75.59"/><polygon class="cls-12" points="122.94 74.68 117.27 75.13 118.47 54.37 119.66 33.61 122.94 74.68"/><polygon class="cls-12" points="134.45 73.76 128.79 74.21 129.99 53.45 131.18 32.69 134.45 73.76"/><polygon class="cls-13" points="37.6 133.65 31.93 134.1 33.13 113.34 34.32 92.58 37.6 133.65"/><polygon class="cls-13" points="49.11 132.73 43.45 133.18 44.65 112.43 45.84 91.67 49.11 132.73"/><polygon class="cls-13" points="60.63 131.81 54.97 132.27 56.16 112.43 57.36 90.75 60.63 131.81"/><polygon class="cls-13" points="72.15 130.9 66.48 131.35 67.68 110.59 68.87 89.83 72.15 130.9"/><polygon class="cls-13" points="83.66 129.98 78 130.43 79.19 109.67 80.39 88.91 83.66 129.98"/><polygon class="cls-13" points="95.18 129.06 89.52 129.51 90.71 108.75 91.91 88 95.18 129.06"/><polygon class="cls-14" points="124.97 126.37 119.31 126.82 120.5 106.06 121.7 85.3 124.97 126.37"/><polygon class="cls-14" points="136.49 125.45 130.83 125.9 132.02 105.14 133.22 84.39 136.49 125.45"/><polygon class="cls-14" points="148 124.53 142.34 124.98 143.54 105.14 144.73 83.47 148 124.53"/><polygon class="cls-14" points="159.52 123.61 153.86 124.07 155.05 103.31 156.25 82.55 159.52 123.61"/></g></g></svg>