<?xml version="1.0" encoding="utf-8"?>
<!-- Generator: Adobe Illustrator 24.2.1, SVG Export Plug-In . SVG Version: 6.00 Build 0)  -->
<svg version="1.1" xmlns="http://www.w3.org/2000/svg" xmlns:xlink="http://www.w3.org/1999/xlink" x="0px" y="0px"
	 viewBox="0 0 908.611 898.941" style="enable-background:new 0 0 908.611 898.941;" xml:space="preserve">
<style type="text/css">
	.st0{fill:#333333;}
	.st1{fill:#C2C2C4;}
	.st2{fill:#C1C1C1;}
	.st3{fill:#515151;}
	.st4{fill:#666666;}
	.st5{opacity:0.8;fill:#1C1C1C;}
	.st6{fill:#606060;}
	.st7{fill:none;stroke:#2AA7FF;stroke-linecap:round;stroke-linejoin:round;stroke-miterlimit:10;}
	.st8{fill:#DADAE7;}
	.st9{fill:#FAFAFF;}
	.st10{fill:#1F1F28;}
	.st11{fill:#2079B8;}
	.st12{fill:#2AA7FF;}
	.st13{fill:#FFFFFF;}
	.st14{clip-path:url(#SVGID_2_);}
	.st15{fill:#1292E0;}
	.st16{clip-path:url(#SVGID_4_);}
</style>
<g id="Layer_1">
</g>
<g id="bttm">
</g>
<g id="cycle">
	<polygon class="st0" points="451.366,20.092 286.444,84.637 142.656,120.091 11.339,178.461 198.851,290.53 11.339,345.549 
		11.339,385.775 210.309,449.471 170.037,484.725 39.222,579.665 11.339,606.359 479.811,795.234 889.059,606.359 879.415,572.371 
		718.103,498.591 707.408,477.156 681.076,437.354 894.793,345.549 718.103,278.883 888.06,183.491 806.721,133.921 
		699.981,102.208 590.46,70.908 529.648,49.183 	"/>
</g>
<g id="top">
	<polygon class="st1" points="2.521,587.899 44.887,568.187 40.499,620.851 	"/>
	<polygon class="st1" points="908.611,576.943 867.51,564.052 869.366,595.279 	"/>
	<g>
		<g>
			<polygon class="st2" points="287.961,416.459 170.76,454.512 288.65,488.378 403.573,454.47 			"/>
			<polyline class="st3" points="288.65,488.378 287.028,696.83 170.597,657.914 170.76,454.512 			"/>
			<polygon class="st4" points="287.028,696.83 403.573,657.381 403.573,454.47 288.65,488.378 			"/>
		</g>
		<polygon class="st5" points="287.961,416.459 170.76,454.512 170.597,657.914 287.028,696.83 403.573,657.381 403.573,454.47 		
			"/>
	</g>
	<g>
		<g>
			<polygon class="st2" points="615.149,426.672 497.949,464.725 615.839,498.591 730.762,464.684 			"/>
			<polyline class="st3" points="615.839,498.591 614.217,707.043 497.786,668.128 497.949,464.725 			"/>
			<polygon class="st4" points="614.217,707.043 730.762,667.595 730.762,464.684 615.839,498.591 			"/>
		</g>
		<polygon class="st5" points="615.149,426.672 497.949,464.725 497.786,668.128 614.217,707.043 730.762,667.595 730.762,464.684 
					"/>
	</g>
	<g>
		<g>
			<polygon class="st2" points="450.676,484.725 333.476,522.778 451.366,556.644 566.289,522.737 			"/>
			<polyline class="st3" points="451.366,556.644 449.744,765.096 333.313,726.181 333.476,522.778 			"/>
			<polygon class="st4" points="449.744,765.096 566.289,725.648 566.289,522.737 451.366,556.644 			"/>
		</g>
		<polygon class="st5" points="450.676,484.725 333.476,522.778 333.313,726.181 449.744,765.096 566.289,725.648 566.289,522.737 
					"/>
	</g>
	<g>
		<polygon class="st6" points="757.538,477.156 640.338,515.21 758.228,549.075 873.151,515.168 		"/>
		<polyline class="st3" points="759.007,548.296 757.385,756.748 640.954,717.833 641.117,514.43 		"/>
		<polygon class="st0" points="757.385,756.748 873.93,717.3 873.232,515.087 758.31,548.994 		"/>
	</g>
	<g>
		<polygon class="st6" points="612.805,534.44 495.604,572.494 613.495,606.359 728.417,572.452 		"/>
		<polyline class="st3" points="614.274,605.58 612.652,814.032 496.221,775.117 496.383,571.715 		"/>
		<polygon class="st0" points="611.954,814.73 728.499,775.282 728.499,572.371 613.576,606.278 		"/>
	</g>
	<g>
		<polygon class="st6" points="149.818,470.103 32.618,508.156 150.508,542.022 265.431,508.115 		"/>
		<polyline class="st3" points="150.508,542.022 148.886,750.474 32.455,711.559 32.618,508.156 		"/>
		<polygon class="st0" points="148.886,750.474 265.431,711.026 265.431,508.115 150.508,542.022 		"/>
	</g>
	<g>
		<polygon class="st6" points="287.238,528.661 170.037,566.714 287.928,600.58 402.85,566.673 		"/>
		<polyline class="st3" points="288.707,599.801 287.085,808.253 170.654,769.338 170.816,565.935 		"/>
		<polygon class="st0" points="286.387,808.951 402.932,769.502 402.932,566.591 288.009,600.499 		"/>
	</g>
	<path class="st7" d="M148.943,729.8"/>
	<path class="st7" d="M182.812,716.707"/>
	<g>
		<polygon class="st6" points="448.332,579.288 331.131,617.342 449.022,651.208 563.944,617.3 		"/>
		<polyline class="st3" points="449.801,650.428 448.179,858.88 331.748,819.965 331.91,616.563 		"/>
		<polygon class="st0" points="447.481,859.578 564.026,820.13 564.026,617.219 449.103,651.126 		"/>
	</g>
	<path class="st7" d="M329.923,784.137"/>
	<path class="st7" d="M301.529,795.02"/>
	<line class="st7" x1="564.724" y1="789.579" x2="599.485" y2="800.89"/>
	<line class="st7" x1="757.442" y1="732.164" x2="715.494" y2="718.934"/>
	<polyline class="st8" points="458.101,898.941 454.929,897.782 2.521,732.145 2.521,587.899 454.929,743.435 455.73,743.71 	"/>
	<polygon class="st9" points="908.611,576.943 908.611,737.159 458.028,898.941 454.86,897.772 455.66,742.474 455.66,742.474 	"/>
	<path class="st10" d="M207.159,342.508l49.229,89.799l175.547,75.807l76.082-4.537c0,0,51.374-37.493,64.616-38.852
		S707.408,418.9,707.408,418.9l-12.962-42.633L207.159,342.508z"/>
	<polygon class="st11" points="0.447,336.235 453.54,486.46 453.673,543.818 0,388.904 	"/>
	<polyline class="st12" points="453.673,543.818 908.611,382.224 908.611,330.891 453.54,486.46 453.54,542.639 	"/>
	<g>
		<g id="g16_4_">
			<path id="path24_4_" class="st13" d="M36.611,369.442l-6.221,1.714l1.707,1.596l6.221-1.713L36.611,369.442"/>
			<path id="path26_4_" class="st13" d="M34.116,367.111l-6.221,1.714l1.708,1.596l6.221-1.714L34.116,367.111"/>
			<path id="path28_4_" class="st13" d="M31.621,364.78l-6.221,1.713l2.115,1.937l6.221-1.714L31.621,364.78"/>
			<path id="path22_4_" class="st13" d="M41.112,381.641l-8.34,2.298l-8.979-8.391l-0.638-10.688l8.341-2.297l8.979,8.391
				L41.112,381.641z M47.556,378.178l-2.606-2.312c-0.161-0.891-0.393-1.783-0.688-2.666l1.706-1.524
				c-0.761-1.894-1.762-3.735-2.948-5.455l-2.835-0.351c-0.449-0.554-0.921-1.087-1.414-1.596l-0.076-3.009
				c-1.554-1.411-3.245-2.615-5.016-3.539l-1.654,1.842c-0.24-0.098-0.482-0.19-0.724-0.276c-0.243-0.085-0.483-0.163-0.722-0.233
				l-1.95-3.111c-1.735-0.309-3.351-0.268-4.8,0.085l0.288,3.084c-0.452,0.177-0.879,0.394-1.28,0.648l-2.914-1.671
				c-1.028,0.94-1.847,2.141-2.409,3.57l1.965,2.816c-0.2,0.709-0.333,1.472-0.393,2.286l-2.436,0.539
				c0.005,0.131,0.011,0.263,0.019,0.397c0.095,1.587,0.396,3.195,0.874,4.785l2.633,1.305c0.432,1.193,0.979,2.367,1.622,3.497
				l-0.862,2.329c1.021,1.538,2.192,2.985,3.476,4.293l2.099-0.698c1.092,0.999,2.264,1.88,3.49,2.603l0.959,2.934
				c0.708,0.35,1.427,0.658,2.156,0.915c0.728,0.256,1.441,0.453,2.136,0.595l0.642-2.371c1.19,0.127,2.305,0.052,3.322-0.206
				l2.274,2.236c1.179-0.441,2.224-1.109,3.101-1.979l-1.183-3.048c0.532-0.716,0.959-1.548,1.264-2.482l2.587,0.532
				c0.304-1.315,0.422-2.775,0.327-4.362C47.577,378.445,47.567,378.312,47.556,378.178"/>
			<path id="path30_4_" class="st13" d="M34.587,381.129l-0.476-7.972l-1.586,0.437l0.476,7.973L34.587,381.129"/>
			<path id="path32_4_" class="st13" d="M32.242,381.298l-0.476-7.972l-1.708-1.596l0.476,7.972L32.242,381.298"/>
			<path id="path34_4_" class="st13" d="M36.905,380.49l-0.476-7.972l-1.586,0.437l0.476,7.972L36.905,380.49"/>
			<path id="path36_4_" class="st13" d="M39.222,379.852l-0.476-7.972l-1.586,0.437l0.476,7.972L39.222,379.852"/>
			<path id="path38_4_" class="st13" d="M29.747,378.967l-0.476-7.972l-1.708-1.596l0.476,7.972L29.747,378.967"/>
			<path id="path40_4_" class="st13" d="M27.253,376.636l-0.476-7.972l-1.708-1.596l0.476,7.972L27.253,376.636"/>
		</g>
		<path id="path42_4_" class="st13" d="M63.124,391.556c-2.24-0.788-3.987-2.055-5.24-3.8c-1.253-1.744-1.952-3.843-2.099-6.294
			c-0.073-1.219,0.041-2.243,0.342-3.074c0.301-0.831,0.743-1.466,1.327-1.905c0.584-0.44,1.296-0.678,2.138-0.715
			c0.841-0.037,1.766,0.122,2.773,0.476c0.583,0.205,1.116,0.438,1.599,0.698c0.483,0.26,0.907,0.513,1.272,0.759
			c0.365,0.247,0.671,0.475,0.917,0.687c0.246,0.212,0.424,0.371,0.535,0.479l-0.735,2.364c-0.439-0.39-0.945-0.77-1.518-1.138
			c-0.574-0.368-1.218-0.678-1.934-0.93c-0.477-0.168-0.939-0.247-1.387-0.238c-0.447,0.009-0.836,0.14-1.164,0.392
			c-0.329,0.252-0.582,0.638-0.758,1.159c-0.177,0.52-0.239,1.206-0.189,2.056c0.041,0.68,0.148,1.339,0.322,1.976
			c0.174,0.637,0.43,1.223,0.767,1.758c0.337,0.535,0.765,1.015,1.283,1.44c0.518,0.425,1.136,0.764,1.852,1.016
			c0.45,0.158,0.853,0.273,1.208,0.342c0.355,0.07,0.669,0.114,0.943,0.134c0.274,0.02,0.513,0.018,0.72-0.007
			c0.206-0.025,0.393-0.049,0.56-0.073l1.014,2.958c-0.42,0.13-1.022,0.168-1.804,0.115
			C65.085,392.135,64.171,391.925,63.124,391.556"/>
		<path id="path44_4_" class="st13" d="M76.622,387.509c0.498-0.807,0.968-1.624,1.413-2.449c0.444-0.826,0.848-1.673,1.213-2.541
			l3.42,1.203c-0.661,1.321-1.351,2.583-2.071,3.787c-0.72,1.203-1.486,2.398-2.297,3.582l0.336,5.633l-3.102-1.092l-0.334-5.59
			c-0.991-1.819-1.939-3.623-2.844-5.412c-0.905-1.789-1.783-3.61-2.633-5.463l3.599,1.266c0.484,1.167,1.001,2.338,1.552,3.514
			C75.423,385.122,76.006,386.309,76.622,387.509"/>
		<path id="path46_4_" class="st13" d="M92.553,401.911c-2.24-0.788-3.987-2.055-5.24-3.8c-1.253-1.744-1.952-3.843-2.098-6.294
			c-0.073-1.219,0.041-2.243,0.342-3.074c0.3-0.831,0.743-1.466,1.327-1.905c0.584-0.44,1.296-0.678,2.138-0.715
			c0.841-0.037,1.766,0.122,2.773,0.476c0.583,0.205,1.116,0.438,1.6,0.698c0.482,0.26,0.906,0.513,1.272,0.759
			c0.365,0.247,0.671,0.475,0.917,0.687c0.246,0.212,0.424,0.371,0.535,0.479l-0.735,2.363c-0.439-0.39-0.945-0.77-1.518-1.138
			c-0.574-0.368-1.218-0.679-1.934-0.931c-0.477-0.168-0.939-0.247-1.387-0.238c-0.447,0.009-0.835,0.14-1.164,0.392
			c-0.329,0.252-0.582,0.638-0.758,1.159c-0.177,0.52-0.24,1.206-0.189,2.056c0.041,0.68,0.148,1.339,0.323,1.976
			c0.174,0.637,0.43,1.223,0.767,1.758s0.765,1.015,1.283,1.44c0.518,0.425,1.136,0.764,1.852,1.016
			c0.451,0.159,0.853,0.273,1.208,0.342c0.354,0.069,0.669,0.114,0.942,0.134c0.273,0.02,0.513,0.018,0.72-0.007
			c0.206-0.025,0.393-0.049,0.56-0.073l1.014,2.958c-0.421,0.13-1.022,0.168-1.804,0.115C94.515,402.49,93.6,402.28,92.553,401.911"
			/>
		<path id="path48_4_" class="st13" d="M110.083,404.999l0.17,2.848l-9.207-3.239l-0.88-14.73l3.102,1.091l0.71,11.882
			L110.083,404.999"/>
		<path id="path50_4_" class="st13" d="M114.15,409.219l-0.88-14.73l9.306,3.274l0.166,2.784l-6.204-2.183l0.173,2.891l5.508,1.938
			l0.162,2.721l-5.508-1.938l0.212,3.55l6.661,2.344l0.166,2.784L114.15,409.219"/>
	</g>
	<g>
		<g id="g12_2_" transform="scale(0.1)">
			<g id="g14_2_">
				<g>
					<defs>
						<polygon id="SVGID_1_" points="7847.422,3839.188 7835.975,4189.002 8936.486,3805.299 8947.934,3455.485 						"/>
					</defs>
					<clipPath id="SVGID_2_">
						<use xlink:href="#SVGID_1_"  style="overflow:visible;"/>
					</clipPath>
					<g id="g16_1_" class="st14">
						<path id="path24_1_" class="st9" d="M8047.097,3892.385l-64.493,61.632l15.782,4.479l64.495-61.632L8047.097,3892.385"/>
						<path id="path26_1_" class="st9" d="M8024.039,3885.843l-64.496,61.634l15.785,4.479l64.494-61.634L8024.039,3885.843"/>
						<path id="path28_1_" class="st9" d="M8000.978,3879.304l-64.494,61.631l19.583,5.135l64.492-61.631L8000.978,3879.304"/>
						<path id="path22_1_" class="st9" d="M8081.275,3986.946l-86.465,82.631l-82.996-23.546l3.475-106.176l86.471-82.63
							l82.991,23.546L8081.275,3986.946z M8149.648,3905.632l-24.203-5.559c-0.805-8.09-2.316-15.692-4.483-22.752l18.667-27.819
							c-5.938-14.244-14.343-26.252-24.745-35.683l-28.34,16.364c-4.028-2.564-8.302-4.759-12.812-6.553l2.025-30.625
							c-14.406-3.64-30.381-4.184-47.432-1.26l-18.439,30.75c-2.337,0.678-4.694,1.427-7.067,2.255
							c-2.375,0.828-4.734,1.723-7.081,2.678l-16.831-18.453c-17.251,9.035-33.632,20.86-48.61,34.744l0.042,29.904
							c-4.73,5.015-9.25,10.277-13.54,15.74l-27.914,3.251c-11.264,16.981-20.66,35.198-27.678,53.961l17.256,15.294
							c-2.683,8.751-4.734,17.594-6.092,26.438l-25.129,22.76c-0.071,1.324-0.132,2.648-0.175,3.971
							c-0.516,15.765,1.037,30.292,4.389,43.385l25.41-5.063c3.263,9.308,7.699,17.609,13.146,24.775l-10.878,30.193
							c8.898,8.723,19.387,15.453,31.154,19.933l21.873-22.033c10.11,2.647,21.145,3.492,32.868,2.33l6.97,23.621
							c6.83-1.363,13.819-3.251,20.946-5.736c7.125-2.484,14.152-5.478,21.048-8.905l8.696-29.083
							c11.918-7.082,23.263-15.728,33.782-25.568l20.918,7.114c12.334-12.884,23.512-27.167,33.192-42.368l-9.13-23.217
							c6.049-11.175,11.134-22.795,15.087-34.619l25.664-12.744c4.296-15.761,6.846-31.717,7.362-47.483
							C8149.608,3908.248,8149.634,3906.936,8149.648,3905.632"/>
						<path id="path30_1_" class="st9" d="M8015.78,4027.675l2.591-79.195l-16.445,15.716l-2.592,79.198L8015.78,4027.675"/>
						<path id="path32_1_" class="st9" d="M7991.909,4045.978l2.591-79.193l-15.783-4.475l-2.591,79.192L7991.909,4045.978"/>
						<path id="path34_1_" class="st9" d="M8039.804,4004.715l2.592-79.192l-16.446,15.715l-2.592,79.193L8039.804,4004.715"/>
						<path id="path36_1_" class="st9" d="M8063.827,3981.76l2.591-79.193l-16.444,15.714l-2.591,79.193L8063.827,3981.76"/>
						<path id="path38_1_" class="st9" d="M7968.851,4039.44l2.591-79.194l-15.783-4.481l-2.591,79.195L7968.851,4039.44"/>
						<path id="path40_1_" class="st9" d="M7945.792,4032.895l2.591-79.193l-15.785-4.476l-2.592,79.193L7945.792,4032.895"/>
					</g>
				</g>
			</g>
		</g>
		<path id="path42_2_" class="st9" d="M829.462,393.434c-2.192,0.764-3.84,0.685-4.945-0.238c-1.105-0.923-1.617-2.602-1.537-5.037
			c0.04-1.21,0.25-2.352,0.631-3.424c0.381-1.072,0.887-2.042,1.519-2.909c0.631-0.867,1.373-1.617,2.228-2.248
			c0.854-0.632,1.774-1.12,2.76-1.463c0.571-0.199,1.088-0.334,1.552-0.405c0.464-0.071,0.869-0.108,1.215-0.111
			c0.346-0.002,0.634,0.019,0.863,0.064c0.229,0.045,0.395,0.085,0.496,0.119l-0.962,2.966c-0.408-0.094-0.884-0.13-1.43-0.107
			c-0.546,0.023-1.169,0.157-1.869,0.401c-0.467,0.163-0.927,0.407-1.38,0.732c-0.453,0.325-0.858,0.734-1.213,1.227
			c-0.356,0.493-0.648,1.071-0.874,1.735c-0.227,0.664-0.354,1.418-0.382,2.262c-0.022,0.676,0.025,1.282,0.142,1.819
			c0.117,0.537,0.321,0.963,0.612,1.279c0.291,0.316,0.679,0.512,1.164,0.586c0.485,0.075,1.077-0.01,1.778-0.255
			c0.441-0.154,0.838-0.32,1.189-0.498c0.352-0.178,0.666-0.354,0.941-0.526c0.275-0.172,0.518-0.344,0.729-0.515
			c0.21-0.171,0.402-0.328,0.573-0.471l0.75,2.348c-0.437,0.431-1.048,0.894-1.834,1.391
			C831.392,392.649,830.487,393.077,829.462,393.434"/>
		<path id="path44_2_" class="st9" d="M843.487,379.72c0.578-1.187,1.13-2.365,1.656-3.533c0.526-1.169,1.013-2.331,1.462-3.487
			l3.347-1.167c-0.791,1.834-1.606,3.629-2.446,5.382c-0.84,1.754-1.725,3.531-2.656,5.33l-0.183,5.595l-3.035,1.058l0.182-5.553
			c-0.833-1.185-1.624-2.384-2.373-3.598c-0.749-1.214-1.467-2.48-2.155-3.799l3.521-1.228c0.381,0.866,0.795,1.714,1.242,2.544
			C842.496,378.095,842.975,378.913,843.487,379.72"/>
		<path id="path46_2_" class="st9" d="M858.257,383.394c-2.192,0.764-3.84,0.685-4.945-0.238c-1.104-0.923-1.617-2.602-1.537-5.037
			c0.04-1.21,0.25-2.352,0.631-3.424c0.381-1.072,0.887-2.042,1.518-2.909c0.631-0.867,1.373-1.617,2.228-2.248
			c0.854-0.632,1.774-1.12,2.76-1.463c0.571-0.199,1.088-0.334,1.552-0.405c0.463-0.071,0.869-0.108,1.215-0.111
			c0.346-0.002,0.634,0.019,0.863,0.064c0.23,0.045,0.394,0.085,0.496,0.119l-0.963,2.966c-0.407-0.095-0.884-0.13-1.429-0.107
			c-0.546,0.023-1.169,0.157-1.87,0.401c-0.467,0.163-0.927,0.407-1.38,0.732c-0.453,0.325-0.857,0.734-1.213,1.227
			c-0.356,0.493-0.648,1.071-0.874,1.735c-0.227,0.664-0.354,1.418-0.382,2.262c-0.022,0.676,0.026,1.282,0.143,1.818
			c0.117,0.537,0.321,0.963,0.612,1.279c0.291,0.316,0.679,0.512,1.164,0.586c0.485,0.075,1.078-0.01,1.778-0.255
			c0.441-0.154,0.837-0.32,1.19-0.498c0.352-0.178,0.665-0.354,0.94-0.526c0.275-0.172,0.518-0.344,0.728-0.515
			c0.21-0.171,0.402-0.328,0.573-0.471l0.75,2.348c-0.437,0.431-1.049,0.895-1.834,1.391
			C860.187,382.61,859.282,383.037,858.257,383.394"/>
		<path id="path48_2_" class="st9" d="M875.695,374.225l-0.093,2.829l-9.008,3.141l0.479-14.632l3.035-1.058l-0.386,11.803
			L875.695,374.225"/>
		<path id="path50_2_" class="st9" d="M879.415,375.725l0.479-14.632l9.106-3.175l-0.091,2.766l-6.07,2.116l-0.094,2.872
			l5.389-1.879l-0.088,2.703l-5.389,1.879l-0.115,3.526l6.517-2.272l-0.091,2.766L879.415,375.725"/>
	</g>
	<path class="st12" d="M173.471,285.241"/>
	<polyline class="st15" points="175.934,284.086 456.479,369.874 745.523,280.259 908.611,330.891 453.54,486.46 1.523,336.592 
		175.934,284.086 	"/>
	<path class="st1" d="M0.576,168.537l44.705-16.429c0,0-2.037,46.812-4.169,45.462C38.98,196.219,0.576,168.537,0.576,168.537z"/>
	<polygon class="st1" points="905.967,169.429 859.323,156.159 866.067,200.764 	"/>
	<g>
		<polygon class="st3" points="333.813,37.084 333.813,99.98 453.415,141.221 453.415,70.908 		"/>
		<polygon class="st0" points="453.415,141.221 572.105,98.556 572.105,37.084 453.415,70.908 		"/>
		<polygon class="st6" points="572.105,37.084 453.999,0 333.813,37.084 453.415,70.908 		"/>
	</g>
	<g>
		<polygon class="st3" points="182.838,86.268 182.838,149.164 302.439,190.404 302.439,120.091 		"/>
		<polygon class="st0" points="302.439,190.404 421.13,147.739 421.13,86.268 302.439,120.091 		"/>
		<polygon class="st6" points="421.13,86.268 303.024,49.183 182.838,86.268 302.439,120.091 		"/>
	</g>
	<g>
		<polygon class="st3" points="490.125,89.153 490.125,152.049 609.727,193.289 609.727,122.976 		"/>
		<polygon class="st0" points="609.727,193.289 728.417,150.624 728.417,89.153 609.727,122.976 		"/>
		<polygon class="st6" points="728.417,89.153 610.311,52.068 490.125,89.153 609.727,122.976 		"/>
	</g>
	<g>
		<polygon class="st3" points="330.736,139.59 330.736,202.486 450.338,243.727 450.338,173.414 		"/>
		<polygon class="st0" points="450.338,243.727 569.028,201.061 569.028,139.59 450.338,173.414 		"/>
		<polygon class="st6" points="569.028,139.59 450.922,102.506 330.736,139.59 450.338,173.414 		"/>
	</g>
	<g>
		<polygon class="st3" points="31.362,133.921 31.362,196.817 150.964,238.057 150.964,167.744 		"/>
		<polygon class="st0" points="150.964,238.057 269.654,195.392 269.654,133.921 150.964,167.744 		"/>
		<polygon class="st6" points="269.654,133.921 151.548,96.836 31.362,133.921 150.964,167.744 		"/>
	</g>
	<g>
		<polygon class="st3" points="182.383,192.176 182.383,255.072 301.984,296.313 301.984,226 		"/>
		<polygon class="st0" points="301.984,296.313 420.675,253.647 420.675,192.176 301.984,226 		"/>
		<polygon class="st6" points="420.675,192.176 302.569,155.092 182.383,192.176 301.984,226 		"/>
	</g>
	<g>
		<polygon class="st3" points="627.775,139.293 627.775,202.189 747.376,243.429 747.376,173.116 		"/>
		<polygon class="st0" points="747.376,243.429 866.067,200.764 866.067,139.293 747.376,173.116 		"/>
		<polygon class="st6" points="866.067,139.293 747.961,102.208 627.775,139.293 747.376,173.116 		"/>
	</g>
	<g>
		<polygon class="st3" points="479.811,193.289 479.811,256.185 599.413,297.425 599.413,227.112 		"/>
		<polygon class="st0" points="599.413,297.425 718.103,254.76 718.103,193.289 599.413,227.112 		"/>
		<polygon class="st6" points="718.103,193.289 599.997,156.205 479.811,193.289 599.413,227.112 		"/>
	</g>
	<g>
		<polygon class="st3" points="333.813,245.06 333.813,307.956 453.415,349.196 453.415,278.883 		"/>
		<polygon class="st0" points="453.415,349.196 572.105,306.531 572.105,245.06 453.415,278.883 		"/>
		<polygon class="st6" points="572.105,245.06 453.999,207.975 333.813,245.06 453.415,278.883 		"/>
	</g>
	<polygon class="st9" points="905.967,169.429 905.967,226.085 458.526,378.8 458.526,315.654 	"/>
	<g>
		<g>
			<path class="st12" d="M747.76,648.348l2.149-0.763l0.255,14.078l-2.149,0.763L747.76,648.348z"/>
			<path class="st12" d="M752.984,646.494l2.208-0.783l3.907,6.578l1.307,2.561l0.074-0.026c-0.13-1.419-0.333-3.14-0.361-4.707
				l-0.111-6.114l2.044-0.726l0.255,14.078l-2.208,0.783l-3.907-6.591L754.886,649l-0.074,0.025c0.13,1.454,0.332,3.09,0.36,4.657
				l0.112,6.164l-2.044,0.726L752.984,646.494z"/>
			<path class="st12" d="M765.135,642.182l7.32-2.598l0.038,2.101l-5.171,1.835l0.073,3.996l4.4-1.562l0.038,2.101l-4.4,1.562
				l0.106,5.881l-2.148,0.763L765.135,642.182z"/>
			<path class="st12" d="M774.581,638.83l4.082-1.448c2.519-0.894,4.479-0.548,4.536,2.593c0.055,3.027-1.861,5.09-4.38,5.983
				l-1.934,0.687l0.1,5.502l-2.148,0.762L774.581,638.83z M778.561,644.04c1.659-0.589,2.549-1.71,2.52-3.313
				c-0.029-1.617-0.943-1.857-2.603-1.269l-1.712,0.607l0.083,4.582L778.561,644.04z M778.403,645.434l1.529-2.041l3.921,6.315
				l-2.416,0.857L778.403,645.434z"/>
			<path class="st12" d="M787.917,634.099l2.519-0.894l4.204,12.676l-2.274,0.808l-1.98-6.836c-0.413-1.353-0.797-2.833-1.181-4.253
				l-0.074,0.026c-0.305,1.678-0.632,3.396-0.99,5.023l-1.724,8.15l-2.193,0.778L787.917,634.099z M786.453,642.976l5.705-2.024
				l0.036,1.959l-5.705,2.024L786.453,642.976z"/>
			<path class="st12" d="M795.275,643.841l1.221-2.157c0.884,0.652,2.059,0.886,3.185,0.486c1.363-0.484,2.099-1.469,2.079-2.567
				c-0.021-1.158-0.81-1.251-1.919-1.402l-1.671-0.247c-1.204-0.154-2.479-0.807-2.517-2.865c-0.041-2.242,1.632-4.573,3.996-5.412
				c1.415-0.502,2.798-0.309,3.766,0.472l-1.075,1.975c-0.784-0.488-1.615-0.646-2.652-0.276c-1.148,0.407-1.885,1.297-1.866,2.326
				c0.02,1.107,0.95,1.188,1.962,1.311l1.647,0.217c1.454,0.186,2.481,0.887,2.518,2.928c0.041,2.283-1.554,4.764-4.273,5.729
				C798.039,644.936,796.447,644.747,795.275,643.841z"/>
			<path class="st12" d="M808.46,628.923l-3.497,1.241l-0.038-2.101l9.142-3.244l0.038,2.101l-3.497,1.241l0.217,11.978
				l-2.148,0.762L808.46,628.923z"/>
			<path class="st12" d="M816.09,624.101l4.082-1.448c2.519-0.894,4.479-0.549,4.536,2.593c0.055,3.027-1.861,5.09-4.38,5.983
				l-1.934,0.686l0.1,5.502l-2.148,0.763L816.09,624.101z M820.07,629.31c1.659-0.588,2.548-1.71,2.519-3.312
				c-0.029-1.618-0.943-1.857-2.602-1.27l-1.712,0.607l0.083,4.582L820.07,629.31z M819.912,630.705l1.529-2.041l3.921,6.316
				l-2.416,0.857L819.912,630.705z"/>
			<path class="st12" d="M827.14,628.137l-0.144-7.905l2.148-0.763l0.147,8.094c0.056,3.066,1.059,3.725,2.526,3.203
				c1.482-0.525,2.486-1.896,2.431-4.961l-0.147-8.094l2.067-0.734l0.144,7.906c0.084,4.623-1.646,7.057-4.455,8.053
				C829.049,633.932,827.224,632.761,827.14,628.137z"/>
			<path class="st12" d="M838.679,623.219c-0.084-4.607,2.349-8.226,5.416-9.314c1.519-0.538,2.742-0.123,3.521,0.545l-1.119,2.017
				c-0.636-0.502-1.371-0.744-2.319-0.407c-1.971,0.699-3.351,3.139-3.293,6.3c0.058,3.211,1.397,4.694,3.427,3.974
				c1.074-0.381,1.894-1.252,2.56-2.363l1.177,1.16c-0.958,1.674-2.208,2.845-3.778,3.402
				C841.226,629.611,838.764,627.877,838.679,623.219z"/>
			<path class="st12" d="M852.34,613.353l-3.497,1.24l-0.038-2.101l9.142-3.244l0.038,2.101l-3.497,1.241l0.217,11.978l-2.148,0.762
				L852.34,613.353z"/>
			<path class="st12" d="M860.054,616.458l-0.144-7.905l2.148-0.763l0.147,8.094c0.056,3.065,1.059,3.724,2.526,3.203
				c1.482-0.525,2.486-1.896,2.431-4.962l-0.147-8.094l2.067-0.733l0.144,7.905c0.084,4.624-1.646,7.058-4.455,8.054
				S860.138,621.082,860.054,616.458z"/>
			<path class="st12" d="M872.102,604.226l4.083-1.449c2.519-0.894,4.479-0.548,4.536,2.594c0.055,3.027-1.861,5.089-4.38,5.982
				l-1.934,0.687l0.1,5.502l-2.149,0.763L872.102,604.226z M876.082,609.435c1.659-0.588,2.548-1.71,2.519-3.312
				c-0.029-1.618-0.943-1.857-2.603-1.27l-1.711,0.607l0.083,4.582L876.082,609.435z M875.924,610.83l1.529-2.041l3.921,6.316
				l-2.415,0.856L875.924,610.83z"/>
			<path class="st12" d="M883.068,600.336l7.29-2.587l0.038,2.101l-5.142,1.824l0.065,3.608l4.356-1.546l0.038,2.102l-4.356,1.546
				l0.076,4.167l5.327-1.891l0.038,2.101l-7.475,2.653L883.068,600.336z"/>
		</g>
	</g>
	<g>
		<g>
			<path class="st12" d="M790.118,230.758c-0.051-4.607,2.407-8.208,5.481-9.274c1.523-0.528,2.743-0.104,3.518,0.569l-1.133,2.008
				c-0.632-0.506-1.366-0.753-2.316-0.424c-1.976,0.686-3.373,3.115-3.337,6.276c0.035,3.212,1.364,4.705,3.399,3.999
				c1.077-0.374,1.903-1.239,2.576-2.346l1.168,1.168c-0.969,1.668-2.227,2.831-3.802,3.377
				C792.62,237.17,790.17,235.417,790.118,230.758z"/>
			<path class="st12" d="M800.812,226.944c-0.05-4.556,2.111-8.001,5.275-9.099s5.384,0.84,5.435,5.383
				c0.05,4.556-2.109,8.116-5.273,9.213S800.863,231.5,800.812,226.944z M809.309,223.997c-0.035-3.16-1.289-4.645-3.198-3.982
				s-3.121,3.002-3.085,6.162c0.035,3.161,1.291,4.757,3.199,4.095S809.344,227.158,809.309,223.997z"/>
			<path class="st12" d="M813.889,215.398l2.213-0.768l3.86,6.605l1.289,2.57l0.074-0.025c-0.12-1.42-0.31-3.144-0.328-4.711
				l-0.067-6.114l2.049-0.711l0.156,14.08l-2.213,0.768l-3.86-6.619l-1.289-2.557l-0.074,0.026c0.121,1.454,0.31,3.091,0.327,4.658
				l0.068,6.166l-2.049,0.711L813.889,215.398z"/>
			<path class="st12" d="M828.544,212.422l-3.506,1.216l-0.023-2.101l9.165-3.18l0.023,2.101l-3.505,1.216l0.133,11.979
				l-2.154,0.747L828.544,212.422z"/>
			<path class="st12" d="M838.584,206.83l2.525-0.876l4.114,12.707l-2.28,0.791l-1.932-6.851c-0.403-1.356-0.777-2.839-1.15-4.261
				l-0.074,0.026c-0.317,1.676-0.656,3.392-1.026,5.017l-1.781,8.139l-2.198,0.763L838.584,206.83z M837.057,215.698l5.719-1.984
				l0.021,1.959l-5.719,1.984L837.057,215.698z"/>
			<path class="st12" d="M846.569,204.06l2.154-0.747l0.156,14.08l-2.154,0.747L846.569,204.06z"/>
			<path class="st12" d="M851.805,202.244l2.213-0.768l3.861,6.605l1.288,2.571l0.074-0.026c-0.12-1.42-0.31-3.143-0.328-4.71
				l-0.067-6.114l2.05-0.711l0.156,14.08l-2.213,0.768l-3.86-6.619l-1.289-2.557l-0.074,0.026c0.12,1.454,0.31,3.091,0.327,4.659
				l0.068,6.166l-2.05,0.711L851.805,202.244z"/>
			<path class="st12" d="M863.986,198.018l7.309-2.535l0.023,2.101l-5.154,1.788l0.04,3.608l4.367-1.516l0.023,2.102l-4.367,1.516
				l0.046,4.168l5.34-1.853l0.023,2.102l-7.494,2.6L863.986,198.018z"/>
			<path class="st12" d="M873.976,194.553l4.092-1.419c2.525-0.876,4.482-0.517,4.517,2.625c0.034,3.027-1.897,5.077-4.422,5.953
				l-1.938,0.672l0.061,5.503l-2.154,0.747L873.976,194.553z M877.918,199.789c1.664-0.577,2.561-1.692,2.543-3.294
				c-0.018-1.618-0.93-1.864-2.594-1.288l-1.715,0.595l0.051,4.582L877.918,199.789z M877.75,201.182l1.543-2.03l3.877,6.345
				l-2.421,0.84L877.75,201.182z"/>
			<path class="st12" d="M884.272,203.304l1.236-2.148c0.88,0.658,2.053,0.899,3.182,0.508c1.367-0.475,2.108-1.453,2.096-2.552
				c-0.013-1.158-0.8-1.257-1.91-1.416l-1.669-0.26c-1.202-0.163-2.473-0.823-2.496-2.882c-0.025-2.242,1.664-4.562,4.034-5.384
				c1.418-0.492,2.799-0.289,3.762,0.498l-1.089,1.967c-0.781-0.494-1.61-0.656-2.649-0.296c-1.152,0.399-1.895,1.284-1.884,2.313
				c0.013,1.107,0.942,1.194,1.954,1.324l1.646,0.229c1.453,0.196,2.474,0.905,2.497,2.946c0.025,2.282-1.587,4.752-4.313,5.698
				C887.028,204.419,885.438,204.218,884.272,203.304z"/>
		</g>
	</g>
	<g>
		<g>
			<path class="st11" d="M12.532,607.338l2.11,0.75l0.347,14.076l-2.11-0.75L12.532,607.338z"/>
			<path class="st11" d="M17.664,609.16l2.168,0.771l3.891,9.225l1.304,3.441l0.073,0.026c-0.138-1.492-0.349-3.334-0.388-4.9
				l-0.151-6.112l2.008,0.714l0.347,14.076l-2.168-0.771l-3.891-9.237l-1.304-3.429l-0.073-0.026
				c0.139,1.525,0.348,3.281,0.387,4.849l0.152,6.164l-2.008-0.714L17.664,609.16z"/>
			<path class="st11" d="M29.6,613.4l7.188,2.553l0.052,2.101l-5.078-1.804l0.099,3.995l4.321,1.534l0.052,2.102l-4.321-1.535
				l0.145,5.88l-2.11-0.749L29.6,613.4z"/>
			<path class="st11" d="M38.88,616.696l4.009,1.424c2.474,0.878,4.405,2.588,4.483,5.73c0.075,3.026-1.798,3.723-4.271,2.844
				l-1.899-0.674l0.136,5.501l-2.11-0.749L38.88,616.696z M42.833,624.62c1.63,0.579,2.498,0.093,2.458-1.509
				c-0.04-1.618-0.941-2.492-2.571-3.071l-1.68-0.597l0.113,4.58L42.833,624.62z M42.688,625.887l1.491-0.947l3.903,8.978
				l-2.372-0.843L42.688,625.887z"/>
			<path class="st11" d="M51.98,621.349l2.474,0.879l4.225,15.453l-2.233-0.793l-1.996-8.134c-0.415-1.623-0.805-3.354-1.192-5.022
				l-0.073-0.026c-0.289,1.442-0.598,2.911-0.94,4.266l-1.642,6.842l-2.153-0.765L51.98,621.349z M50.599,629.09l5.602,1.989
				l0.048,1.958l-5.602-1.989L50.599,629.09z"/>
			<path class="st11" d="M59.294,636.111l1.188-1.277c0.875,1.264,2.033,2.314,3.139,2.707c1.339,0.476,2.056,0.018,2.029-1.08
				c-0.029-1.158-0.805-1.801-1.899-2.727l-1.646-1.413c-1.186-0.992-2.446-2.528-2.497-4.587c-0.056-2.242,1.575-3.373,3.896-2.549
				c1.39,0.493,2.752,1.651,3.711,3.097l-1.045,1.199c-0.776-1.031-1.594-1.765-2.613-2.127c-1.127-0.4-1.847-0.037-1.822,0.992
				c0.027,1.105,0.943,1.837,1.941,2.664l1.624,1.366c1.432,1.2,2.448,2.611,2.498,4.651c0.056,2.281-1.498,3.615-4.168,2.667
				C62.022,639.124,60.453,637.824,59.294,636.111z"/>
			<path class="st11" d="M72.176,630.603l-3.434-1.22l-0.052-2.101l8.978,3.189l0.052,2.1l-3.434-1.22l0.295,11.977l-2.11-0.75
				L72.176,630.603z"/>
			<path class="st11" d="M79.657,631.179l4.009,1.424c2.474,0.879,4.405,2.589,4.483,5.731c0.075,3.025-1.798,3.723-4.271,2.844
				l-1.899-0.675l0.136,5.502l-2.11-0.75L79.657,631.179z M83.61,639.102c1.63,0.579,2.498,0.093,2.458-1.508
				c-0.04-1.619-0.941-2.493-2.571-3.072l-1.68-0.597l0.113,4.58L83.61,639.102z M83.465,640.369l1.491-0.946l3.903,8.978
				l-2.372-0.843L83.465,640.369z"/>
			<path class="st11" d="M90.566,642.888l-0.195-7.903l2.11,0.749l0.2,8.093c0.076,3.065,1.068,4.416,2.509,4.928
				c1.456,0.517,2.435-0.134,2.359-3.198l-0.2-8.093l2.03,0.721l0.195,7.903c0.114,4.623-1.573,5.815-4.331,4.837
				C92.486,649.944,90.68,647.511,90.566,642.888z"/>
			<path class="st11" d="M101.897,646.1c-0.114-4.606,2.256-6.478,5.269-5.407c1.491,0.529,2.698,1.794,3.47,2.999l-1.088,1.209
				c-0.629-0.94-1.354-1.692-2.285-2.023c-1.936-0.688-3.277,0.756-3.2,3.916c0.079,3.211,1.408,5.611,3.402,6.319
				c1.055,0.375,1.855,0.088,2.503-0.545l1.167,1.968c-0.931,0.983-2.154,1.267-3.696,0.719
				C104.448,654.192,102.011,650.759,101.897,646.1z"/>
			<path class="st11" d="M115.281,645.913l-3.434-1.22l-0.052-2.1l8.978,3.188l0.052,2.101l-3.434-1.22l0.295,11.976l-2.11-0.749
				L115.281,645.913z"/>
			<path class="st11" d="M122.9,654.371l-0.195-7.902l2.11,0.749l0.2,8.093c0.076,3.064,1.068,4.416,2.509,4.927
				c1.455,0.518,2.434-0.133,2.358-3.198l-0.2-8.093l2.03,0.722l0.195,7.902c0.114,4.623-1.573,5.816-4.33,4.837
				C124.819,661.428,123.014,658.994,122.9,654.371z"/>
			<path class="st11" d="M134.682,650.723l4.009,1.424c2.474,0.878,4.405,2.588,4.483,5.73c0.075,3.025-1.798,3.723-4.271,2.844
				l-1.899-0.674l0.136,5.501l-2.11-0.749L134.682,650.723z M138.635,658.646c1.629,0.578,2.498,0.093,2.458-1.509
				c-0.04-1.618-0.941-2.493-2.571-3.071l-1.681-0.598l0.113,4.58L138.635,658.646z M138.49,659.913l1.491-0.947l3.903,8.978
				l-2.372-0.843L138.49,659.913z"/>
			<path class="st11" d="M145.454,654.548l7.159,2.543l0.052,2.101l-5.049-1.794l0.089,3.607l4.278,1.52l0.052,2.101l-4.278-1.519
				l0.103,4.166l5.231,1.858l0.052,2.101l-7.341-2.607L145.454,654.548z"/>
		</g>
	</g>
	<g>
		<g>
			<path class="st11" d="M11.836,190.898c-0.263-4.6,2.044-6.548,5.09-5.576c1.508,0.48,2.755,1.705,3.566,2.884l-1.048,1.244
				c-0.659-0.919-1.408-1.647-2.35-1.948c-1.957-0.624-3.251,0.863-3.071,4.018c0.184,3.207,1.59,5.562,3.605,6.205
				c1.067,0.34,1.858,0.027,2.484-0.625l1.229,1.929c-0.898,1.013-2.111,1.335-3.67,0.838
				C14.65,198.903,12.103,195.55,11.836,190.898z"/>
			<path class="st11" d="M22.427,194.175c-0.26-4.549,1.756-6.539,4.89-5.539c3.134,0.999,5.458,4.387,5.718,8.922
				c0.261,4.548-1.749,6.65-4.883,5.651C25.018,202.209,22.687,198.723,22.427,194.175z M30.842,196.859
				c-0.181-3.156-1.511-5.454-3.402-6.057s-3.002,0.916-2.821,4.072c0.181,3.155,1.517,5.565,3.408,6.168
				C29.917,201.644,31.023,200.014,30.842,196.859z"/>
			<path class="st11" d="M35.059,191.358l2.192,0.699l4.189,9.093l1.415,3.397l0.073,0.023c-0.186-1.486-0.457-3.32-0.547-4.885
				l-0.35-6.104l2.031,0.647l0.805,14.058l-2.192-0.699l-4.19-9.106l-1.415-3.384l-0.074-0.023c0.189,1.52,0.455,3.268,0.544,4.833
				l0.353,6.156l-2.03-0.647L35.059,191.358z"/>
			<path class="st11" d="M49.675,198.078l-3.472-1.107l-0.12-2.098l9.077,2.895l0.12,2.098l-3.472-1.107l0.685,11.96l-2.133-0.68
				L49.675,198.078z"/>
			<path class="st11" d="M59.526,199.161l2.501,0.797l4.726,15.308l-2.258-0.72l-2.26-8.064c-0.468-1.61-0.913-3.326-1.354-4.982
				l-0.074-0.023c-0.241,1.451-0.503,2.929-0.801,4.294l-1.418,6.892l-2.177-0.694L59.526,199.161z M58.397,206.942l5.664,1.807
				l0.112,1.957l-5.664-1.807L58.397,206.942z"/>
			<path class="st11" d="M67.437,201.684l2.133,0.68l0.805,14.058l-2.133-0.68L67.437,201.684z"/>
			<path class="st11" d="M72.625,203.338l2.192,0.699l4.189,9.093l1.415,3.396l0.073,0.023c-0.186-1.486-0.457-3.319-0.547-4.885
				l-0.35-6.104l2.031,0.647l0.805,14.058l-2.192-0.699l-4.19-9.106l-1.415-3.384l-0.074-0.023c0.189,1.521,0.455,3.269,0.544,4.833
				l0.353,6.156l-2.03-0.647L72.625,203.338z"/>
			<path class="st11" d="M84.693,207.187l7.238,2.309l0.12,2.098l-5.105-1.628l0.207,3.603l4.325,1.379l0.12,2.098l-4.325-1.379
				l0.238,4.161l5.289,1.687l0.12,2.098l-7.422-2.367L84.693,207.187z"/>
			<path class="st11" d="M94.59,210.344l4.053,1.292c2.501,0.797,4.487,2.444,4.667,5.582c0.173,3.022-1.675,3.779-4.176,2.981
				l-1.919-0.612l0.314,5.494l-2.134-0.68L94.59,210.344z M98.799,218.135c1.647,0.525,2.499,0.012,2.407-1.587
				c-0.092-1.617-1.022-2.461-2.669-2.987l-1.699-0.542l0.262,4.574L98.799,218.135z M98.695,219.405l1.459-0.995l4.193,8.846
				l-2.398-0.765L98.695,219.405z"/>
			<path class="st11" d="M105.359,225.81l1.145-1.314c0.916,1.233,2.107,2.246,3.225,2.603c1.354,0.432,2.056-0.049,1.993-1.146
				c-0.066-1.156-0.864-1.774-1.987-2.664l-1.692-1.358c-1.217-0.954-2.527-2.447-2.645-4.502c-0.128-2.24,1.464-3.424,3.812-2.676
				c1.405,0.448,2.805,1.562,3.81,2.975l-1.005,1.232c-0.809-1.005-1.651-1.712-2.681-2.04c-1.14-0.364-1.848,0.022-1.789,1.05
				c0.063,1.104,1.002,1.805,2.026,2.6l1.667,1.312c1.471,1.152,2.532,2.529,2.648,4.567c0.131,2.278-1.378,3.663-4.078,2.802
				C108.184,228.733,106.574,227.485,105.359,225.81z"/>
		</g>
	</g>
	<polygon class="st1" points="2.521,587.899 44.887,568.187 40.499,620.851 	"/>
	<polygon class="st1" points="908.611,576.943 867.51,564.052 869.366,595.279 	"/>
	<g>
		<g>
			<polygon class="st2" points="287.961,416.459 170.76,454.512 288.65,488.378 403.573,454.47 			"/>
			<polyline class="st3" points="288.65,488.378 287.028,696.83 170.597,657.914 170.76,454.512 			"/>
			<polygon class="st4" points="287.028,696.83 403.573,657.381 403.573,454.47 288.65,488.378 			"/>
		</g>
		<polygon class="st5" points="287.961,416.459 170.76,454.512 170.597,657.914 287.028,696.83 403.573,657.381 403.573,454.47 		
			"/>
	</g>
	<g>
		<g>
			<polygon class="st2" points="615.149,426.672 497.949,464.725 615.839,498.591 730.762,464.684 			"/>
			<polyline class="st3" points="615.839,498.591 614.217,707.043 497.786,668.128 497.949,464.725 			"/>
			<polygon class="st4" points="614.217,707.043 730.762,667.595 730.762,464.684 615.839,498.591 			"/>
		</g>
		<polygon class="st5" points="615.149,426.672 497.949,464.725 497.786,668.128 614.217,707.043 730.762,667.595 730.762,464.684 
					"/>
	</g>
	<g>
		<g>
			<polygon class="st2" points="450.676,484.725 333.476,522.778 451.366,556.644 566.289,522.737 			"/>
			<polyline class="st3" points="451.366,556.644 449.744,765.096 333.313,726.181 333.476,522.778 			"/>
			<polygon class="st4" points="449.744,765.096 566.289,725.648 566.289,522.737 451.366,556.644 			"/>
		</g>
		<polygon class="st5" points="450.676,484.725 333.476,522.778 333.313,726.181 449.744,765.096 566.289,725.648 566.289,522.737 
					"/>
	</g>
	<g>
		<polygon class="st6" points="757.538,477.156 640.338,515.21 758.228,549.075 873.151,515.168 		"/>
		<polyline class="st3" points="759.007,548.296 757.385,756.748 640.954,717.833 641.117,514.43 		"/>
		<polygon class="st0" points="757.385,756.748 873.93,717.3 873.232,515.087 758.31,548.994 		"/>
	</g>
	<g>
		<polygon class="st6" points="612.805,534.44 495.604,572.494 613.495,606.359 728.417,572.452 		"/>
		<polyline class="st3" points="614.274,605.58 612.652,814.032 496.221,775.117 496.383,571.715 		"/>
		<polygon class="st0" points="611.954,814.73 728.499,775.282 728.499,572.371 613.576,606.278 		"/>
	</g>
	<g>
		<polygon class="st6" points="149.818,470.103 32.618,508.156 150.508,542.022 265.431,508.115 		"/>
		<polyline class="st3" points="150.508,542.022 148.886,750.474 32.455,711.559 32.618,508.156 		"/>
		<polygon class="st0" points="148.886,750.474 265.431,711.026 265.431,508.115 150.508,542.022 		"/>
	</g>
	<g>
		<polygon class="st6" points="287.238,528.661 170.037,566.714 287.928,600.58 402.85,566.673 		"/>
		<polyline class="st3" points="288.707,599.801 287.085,808.253 170.654,769.338 170.816,565.935 		"/>
		<polygon class="st0" points="286.387,808.951 402.932,769.502 402.932,566.591 288.009,600.499 		"/>
	</g>
	<path class="st7" d="M148.943,729.8"/>
	<path class="st7" d="M182.812,716.707"/>
	<g>
		<polygon class="st6" points="448.332,579.288 331.131,617.342 449.022,651.208 563.944,617.3 		"/>
		<polyline class="st3" points="449.801,650.428 448.179,858.88 331.748,819.965 331.91,616.563 		"/>
		<polygon class="st0" points="447.481,859.578 564.026,820.13 564.026,617.219 449.103,651.126 		"/>
	</g>
	<path class="st7" d="M329.923,784.137"/>
	<path class="st7" d="M301.529,795.02"/>
	<line class="st7" x1="564.724" y1="789.579" x2="599.485" y2="800.89"/>
	<line class="st7" x1="757.442" y1="732.164" x2="715.494" y2="718.934"/>
	<polyline class="st8" points="460.948,897.224 458.101,898.941 2.521,732.145 2.521,587.899 455.66,742.474 474.777,738.398 	"/>
	<polygon class="st9" points="908.611,576.943 908.611,737.159 458.101,898.941 455.66,742.474 455.66,742.474 	"/>
	<path class="st10" d="M207.159,342.508l49.229,89.799l175.547,75.807l76.082-4.537c0,0,51.374-37.493,64.616-38.852
		S707.408,418.9,707.408,418.9l-12.962-42.633L207.159,342.508z"/>
	<polyline class="st15" points="175.934,284.086 456.479,369.874 745.523,280.259 908.611,330.891 452.959,498.591 1.523,336.592 
		175.934,284.086 	"/>
	<polygon class="st11" points="0.447,336.235 453.54,486.46 453.673,543.818 0,388.904 	"/>
	<polyline class="st12" points="453.673,543.818 908.611,382.224 908.611,330.891 453.54,486.46 453.54,542.639 	"/>
	<g>
		<g id="g16_3_">
			<path id="path24_3_" class="st13" d="M36.611,369.442l-6.221,1.714l1.707,1.596l6.221-1.713L36.611,369.442"/>
			<path id="path26_3_" class="st13" d="M34.116,367.111l-6.221,1.714l1.708,1.596l6.221-1.714L34.116,367.111"/>
			<path id="path28_3_" class="st13" d="M31.621,364.78l-6.221,1.713l2.115,1.937l6.221-1.714L31.621,364.78"/>
			<path id="path22_3_" class="st13" d="M41.112,381.641l-8.34,2.298l-8.979-8.391l-0.638-10.688l8.341-2.297l8.979,8.391
				L41.112,381.641z M47.556,378.178l-2.606-2.312c-0.161-0.891-0.393-1.783-0.688-2.666l1.706-1.524
				c-0.761-1.894-1.762-3.735-2.948-5.455l-2.835-0.351c-0.449-0.554-0.921-1.087-1.414-1.596l-0.076-3.009
				c-1.554-1.411-3.245-2.615-5.016-3.539l-1.654,1.842c-0.24-0.098-0.482-0.19-0.724-0.276c-0.243-0.085-0.483-0.163-0.722-0.233
				l-1.95-3.111c-1.735-0.309-3.351-0.268-4.8,0.085l0.288,3.084c-0.452,0.177-0.879,0.394-1.28,0.648l-2.914-1.671
				c-1.028,0.94-1.847,2.141-2.409,3.57l1.965,2.816c-0.2,0.709-0.333,1.472-0.393,2.286l-2.436,0.539
				c0.005,0.131,0.011,0.263,0.019,0.397c0.095,1.587,0.396,3.195,0.874,4.785l2.633,1.305c0.432,1.193,0.979,2.367,1.622,3.497
				l-0.862,2.329c1.021,1.538,2.192,2.985,3.476,4.293l2.099-0.698c1.092,0.999,2.264,1.88,3.49,2.603l0.959,2.934
				c0.708,0.35,1.427,0.658,2.156,0.915c0.728,0.256,1.441,0.453,2.136,0.595l0.642-2.371c1.19,0.127,2.305,0.052,3.322-0.206
				l2.274,2.236c1.179-0.441,2.224-1.109,3.101-1.979l-1.183-3.048c0.532-0.716,0.959-1.548,1.264-2.482l2.587,0.532
				c0.304-1.315,0.422-2.775,0.327-4.362C47.577,378.445,47.567,378.312,47.556,378.178"/>
			<path id="path30_3_" class="st13" d="M34.587,381.129l-0.476-7.972l-1.586,0.437l0.476,7.973L34.587,381.129"/>
			<path id="path32_3_" class="st13" d="M32.242,381.298l-0.476-7.972l-1.708-1.596l0.476,7.972L32.242,381.298"/>
			<path id="path34_3_" class="st13" d="M36.905,380.49l-0.476-7.972l-1.586,0.437l0.476,7.972L36.905,380.49"/>
			<path id="path36_3_" class="st13" d="M39.222,379.852l-0.476-7.972l-1.586,0.437l0.476,7.972L39.222,379.852"/>
			<path id="path38_3_" class="st13" d="M29.747,378.967l-0.476-7.972l-1.708-1.596l0.476,7.972L29.747,378.967"/>
			<path id="path40_3_" class="st13" d="M27.253,376.636l-0.476-7.972l-1.708-1.596l0.476,7.972L27.253,376.636"/>
		</g>
		<path id="path42_3_" class="st13" d="M63.124,391.556c-2.24-0.788-3.987-2.055-5.24-3.8c-1.253-1.744-1.952-3.843-2.099-6.294
			c-0.073-1.219,0.041-2.243,0.342-3.074c0.301-0.831,0.743-1.466,1.327-1.905c0.584-0.44,1.296-0.678,2.138-0.715
			c0.841-0.037,1.766,0.122,2.773,0.476c0.583,0.205,1.116,0.438,1.599,0.698c0.483,0.26,0.907,0.513,1.272,0.759
			c0.365,0.247,0.671,0.475,0.917,0.687c0.246,0.212,0.424,0.371,0.535,0.479l-0.735,2.364c-0.439-0.39-0.945-0.77-1.518-1.138
			c-0.574-0.368-1.218-0.678-1.934-0.93c-0.477-0.168-0.939-0.247-1.387-0.238c-0.447,0.009-0.836,0.14-1.164,0.392
			c-0.329,0.252-0.582,0.638-0.758,1.159c-0.177,0.52-0.239,1.206-0.189,2.056c0.041,0.68,0.148,1.339,0.322,1.976
			c0.174,0.637,0.43,1.223,0.767,1.758c0.337,0.535,0.765,1.015,1.283,1.44c0.518,0.425,1.136,0.764,1.852,1.016
			c0.45,0.158,0.853,0.273,1.208,0.342c0.355,0.07,0.669,0.114,0.943,0.134c0.274,0.02,0.513,0.018,0.72-0.007
			c0.206-0.025,0.393-0.049,0.56-0.073l1.014,2.958c-0.42,0.13-1.022,0.168-1.804,0.115
			C65.085,392.135,64.171,391.925,63.124,391.556"/>
		<path id="path44_3_" class="st13" d="M76.622,387.509c0.498-0.807,0.968-1.624,1.413-2.449c0.444-0.826,0.848-1.673,1.213-2.541
			l3.42,1.203c-0.661,1.321-1.351,2.583-2.071,3.787c-0.72,1.203-1.486,2.398-2.297,3.582l0.336,5.633l-3.102-1.092l-0.334-5.59
			c-0.991-1.819-1.939-3.623-2.844-5.412c-0.905-1.789-1.783-3.61-2.633-5.463l3.599,1.266c0.484,1.167,1.001,2.338,1.552,3.514
			C75.423,385.122,76.006,386.309,76.622,387.509"/>
		<path id="path46_3_" class="st13" d="M92.553,401.911c-2.24-0.788-3.987-2.055-5.24-3.8c-1.253-1.744-1.952-3.843-2.098-6.294
			c-0.073-1.219,0.041-2.243,0.342-3.074c0.3-0.831,0.743-1.466,1.327-1.905c0.584-0.44,1.296-0.678,2.138-0.715
			c0.841-0.037,1.766,0.122,2.773,0.476c0.583,0.205,1.116,0.438,1.6,0.698c0.482,0.26,0.906,0.513,1.272,0.759
			c0.365,0.247,0.671,0.475,0.917,0.687c0.246,0.212,0.424,0.371,0.535,0.479l-0.735,2.363c-0.439-0.39-0.945-0.77-1.518-1.138
			c-0.574-0.368-1.218-0.679-1.934-0.931c-0.477-0.168-0.939-0.247-1.387-0.238c-0.447,0.009-0.835,0.14-1.164,0.392
			c-0.329,0.252-0.582,0.638-0.758,1.159c-0.177,0.52-0.24,1.206-0.189,2.056c0.041,0.68,0.148,1.339,0.323,1.976
			c0.174,0.637,0.43,1.223,0.767,1.758s0.765,1.015,1.283,1.44c0.518,0.425,1.136,0.764,1.852,1.016
			c0.451,0.159,0.853,0.273,1.208,0.342c0.354,0.069,0.669,0.114,0.942,0.134c0.273,0.02,0.513,0.018,0.72-0.007
			c0.206-0.025,0.393-0.049,0.56-0.073l1.014,2.958c-0.421,0.13-1.022,0.168-1.804,0.115C94.515,402.49,93.6,402.28,92.553,401.911"
			/>
		<path id="path48_3_" class="st13" d="M110.083,404.999l0.17,2.848l-9.207-3.239l-0.88-14.73l3.102,1.091l0.71,11.882
			L110.083,404.999"/>
		<path id="path50_3_" class="st13" d="M114.15,409.219l-0.88-14.73l9.306,3.274l0.166,2.784l-6.204-2.183l0.173,2.891l5.508,1.938
			l0.162,2.721l-5.508-1.938l0.212,3.55l6.661,2.344l0.166,2.784L114.15,409.219"/>
	</g>
	<g>
		<g id="g12_1_" transform="scale(0.1)">
			<g id="g14_1_">
				<g>
					<defs>
						<polygon id="SVGID_3_" points="7847.422,3839.188 7835.975,4189.002 8936.486,3805.299 8947.934,3455.485 						"/>
					</defs>
					<clipPath id="SVGID_4_">
						<use xlink:href="#SVGID_3_"  style="overflow:visible;"/>
					</clipPath>
					<g id="g16_2_" class="st16">
						<path id="path24_2_" class="st9" d="M8047.097,3892.385l-64.493,61.632l15.782,4.479l64.495-61.632L8047.097,3892.385"/>
						<path id="path26_2_" class="st9" d="M8024.039,3885.843l-64.496,61.634l15.785,4.479l64.494-61.634L8024.039,3885.843"/>
						<path id="path28_2_" class="st9" d="M8000.978,3879.304l-64.494,61.631l19.583,5.135l64.492-61.631L8000.978,3879.304"/>
						<path id="path22_2_" class="st9" d="M8081.275,3986.946l-86.465,82.631l-82.996-23.546l3.475-106.176l86.471-82.63
							l82.991,23.546L8081.275,3986.946z M8149.648,3905.632l-24.203-5.559c-0.805-8.09-2.316-15.692-4.483-22.752l18.667-27.819
							c-5.938-14.244-14.343-26.252-24.745-35.683l-28.34,16.364c-4.028-2.564-8.302-4.759-12.812-6.553l2.025-30.625
							c-14.406-3.64-30.381-4.184-47.432-1.26l-18.439,30.75c-2.337,0.678-4.694,1.427-7.067,2.255
							c-2.375,0.828-4.734,1.723-7.081,2.678l-16.831-18.453c-17.251,9.035-33.632,20.86-48.61,34.744l0.042,29.904
							c-4.73,5.015-9.25,10.277-13.54,15.74l-27.914,3.251c-11.264,16.981-20.66,35.198-27.678,53.961l17.256,15.294
							c-2.683,8.751-4.734,17.594-6.092,26.438l-25.129,22.76c-0.071,1.324-0.132,2.648-0.175,3.971
							c-0.516,15.765,1.037,30.292,4.389,43.385l25.41-5.063c3.263,9.308,7.699,17.609,13.146,24.775l-10.878,30.193
							c8.898,8.723,19.387,15.453,31.154,19.933l21.873-22.033c10.11,2.647,21.145,3.492,32.868,2.33l6.97,23.621
							c6.83-1.363,13.819-3.251,20.946-5.736c7.125-2.484,14.152-5.478,21.048-8.905l8.696-29.083
							c11.918-7.082,23.263-15.728,33.782-25.568l20.918,7.114c12.334-12.884,23.512-27.167,33.192-42.368l-9.13-23.217
							c6.049-11.175,11.134-22.795,15.087-34.619l25.664-12.744c4.296-15.761,6.846-31.717,7.362-47.483
							C8149.608,3908.248,8149.634,3906.936,8149.648,3905.632"/>
						<path id="path30_2_" class="st9" d="M8015.78,4027.675l2.591-79.195l-16.445,15.716l-2.592,79.198L8015.78,4027.675"/>
						<path id="path32_2_" class="st9" d="M7991.909,4045.978l2.591-79.193l-15.783-4.475l-2.591,79.192L7991.909,4045.978"/>
						<path id="path34_2_" class="st9" d="M8039.804,4004.715l2.592-79.192l-16.446,15.715l-2.592,79.193L8039.804,4004.715"/>
						<path id="path36_2_" class="st9" d="M8063.827,3981.76l2.591-79.193l-16.444,15.714l-2.591,79.193L8063.827,3981.76"/>
						<path id="path38_2_" class="st9" d="M7968.851,4039.44l2.591-79.194l-15.783-4.481l-2.591,79.195L7968.851,4039.44"/>
						<path id="path40_2_" class="st9" d="M7945.792,4032.895l2.591-79.193l-15.785-4.476l-2.592,79.193L7945.792,4032.895"/>
					</g>
				</g>
			</g>
		</g>
		<path id="path42_1_" class="st9" d="M829.462,393.434c-2.192,0.764-3.84,0.685-4.945-0.238c-1.105-0.923-1.617-2.602-1.537-5.037
			c0.04-1.21,0.25-2.352,0.631-3.424c0.381-1.072,0.887-2.042,1.519-2.909c0.631-0.867,1.373-1.617,2.228-2.248
			c0.854-0.632,1.774-1.12,2.76-1.463c0.571-0.199,1.088-0.334,1.552-0.405c0.464-0.071,0.869-0.108,1.215-0.111
			c0.346-0.002,0.634,0.019,0.863,0.064c0.229,0.045,0.395,0.085,0.496,0.119l-0.962,2.966c-0.408-0.094-0.884-0.13-1.43-0.107
			c-0.546,0.023-1.169,0.157-1.869,0.401c-0.467,0.163-0.927,0.407-1.38,0.732c-0.453,0.325-0.858,0.734-1.213,1.227
			c-0.356,0.493-0.648,1.071-0.874,1.735c-0.227,0.664-0.354,1.418-0.382,2.262c-0.022,0.676,0.025,1.282,0.142,1.819
			c0.117,0.537,0.321,0.963,0.612,1.279c0.291,0.316,0.679,0.512,1.164,0.586c0.485,0.075,1.077-0.01,1.778-0.255
			c0.441-0.154,0.838-0.32,1.189-0.498c0.352-0.178,0.666-0.354,0.941-0.526c0.275-0.172,0.518-0.344,0.729-0.515
			c0.21-0.171,0.402-0.328,0.573-0.471l0.75,2.348c-0.437,0.431-1.048,0.894-1.834,1.391
			C831.392,392.649,830.487,393.077,829.462,393.434"/>
		<path id="path44_1_" class="st9" d="M843.487,379.72c0.578-1.187,1.13-2.365,1.656-3.533c0.526-1.169,1.013-2.331,1.462-3.487
			l3.347-1.167c-0.791,1.834-1.606,3.629-2.446,5.382c-0.84,1.754-1.725,3.531-2.656,5.33l-0.183,5.595l-3.035,1.058l0.182-5.553
			c-0.833-1.185-1.624-2.384-2.373-3.598c-0.749-1.214-1.467-2.48-2.155-3.799l3.521-1.228c0.381,0.866,0.795,1.714,1.242,2.544
			C842.496,378.095,842.975,378.913,843.487,379.72"/>
		<path id="path46_1_" class="st9" d="M858.257,383.394c-2.192,0.764-3.84,0.685-4.945-0.238c-1.104-0.923-1.617-2.602-1.537-5.037
			c0.04-1.21,0.25-2.352,0.631-3.424c0.381-1.072,0.887-2.042,1.518-2.909c0.631-0.867,1.373-1.617,2.228-2.248
			c0.854-0.632,1.774-1.12,2.76-1.463c0.571-0.199,1.088-0.334,1.552-0.405c0.463-0.071,0.869-0.108,1.215-0.111
			c0.346-0.002,0.634,0.019,0.863,0.064c0.23,0.045,0.394,0.085,0.496,0.119l-0.963,2.966c-0.407-0.095-0.884-0.13-1.429-0.107
			c-0.546,0.023-1.169,0.157-1.87,0.401c-0.467,0.163-0.927,0.407-1.38,0.732c-0.453,0.325-0.857,0.734-1.213,1.227
			c-0.356,0.493-0.648,1.071-0.874,1.735c-0.227,0.664-0.354,1.418-0.382,2.262c-0.022,0.676,0.026,1.282,0.143,1.818
			c0.117,0.537,0.321,0.963,0.612,1.279c0.291,0.316,0.679,0.512,1.164,0.586c0.485,0.075,1.078-0.01,1.778-0.255
			c0.441-0.154,0.837-0.32,1.19-0.498c0.352-0.178,0.665-0.354,0.94-0.526c0.275-0.172,0.518-0.344,0.728-0.515
			c0.21-0.171,0.402-0.328,0.573-0.471l0.75,2.348c-0.437,0.431-1.049,0.895-1.834,1.391
			C860.187,382.61,859.282,383.037,858.257,383.394"/>
		<path id="path48_1_" class="st9" d="M875.695,374.225l-0.093,2.829l-9.008,3.141l0.479-14.632l3.035-1.058l-0.386,11.803
			L875.695,374.225"/>
		<path id="path50_1_" class="st9" d="M879.415,375.725l0.479-14.632l9.106-3.175l-0.091,2.766l-6.07,2.116l-0.094,2.872
			l5.389-1.879l-0.088,2.703l-5.389,1.879l-0.115,3.526l6.517-2.272l-0.091,2.766L879.415,375.725"/>
	</g>
	<path class="st12" d="M173.471,285.241"/>
	<path class="st1" d="M0.576,168.537l44.705-16.429c0,0-2.037,46.812-4.169,45.462C38.98,196.219,0.576,168.537,0.576,168.537z"/>
	<polygon class="st1" points="905.967,169.429 859.323,156.159 866.067,200.764 	"/>
	<g>
		<polygon class="st3" points="333.813,37.084 333.813,99.98 453.415,141.221 453.415,70.908 		"/>
		<polygon class="st0" points="453.415,141.221 572.105,98.556 572.105,37.084 453.415,70.908 		"/>
		<polygon class="st6" points="572.105,37.084 453.999,0 333.813,37.084 453.415,70.908 		"/>
	</g>
	<g>
		<polygon class="st3" points="182.838,86.268 182.838,149.164 302.439,190.404 302.439,120.091 		"/>
		<polygon class="st0" points="302.439,190.404 421.13,147.739 421.13,86.268 302.439,120.091 		"/>
		<polygon class="st6" points="421.13,86.268 303.024,49.183 182.838,86.268 302.439,120.091 		"/>
	</g>
	<g>
		<polygon class="st3" points="490.125,89.153 490.125,152.049 609.727,193.289 609.727,122.976 		"/>
		<polygon class="st0" points="609.727,193.289 728.417,150.624 728.417,89.153 609.727,122.976 		"/>
		<polygon class="st6" points="728.417,89.153 610.311,52.068 490.125,89.153 609.727,122.976 		"/>
	</g>
	<g>
		<polygon class="st3" points="330.736,139.59 330.736,202.486 450.338,243.727 450.338,173.414 		"/>
		<polygon class="st0" points="450.338,243.727 569.028,201.061 569.028,139.59 450.338,173.414 		"/>
		<polygon class="st6" points="569.028,139.59 450.922,102.506 330.736,139.59 450.338,173.414 		"/>
	</g>
	<g>
		<polygon class="st3" points="31.362,133.921 31.362,196.817 150.964,238.057 150.964,167.744 		"/>
		<polygon class="st0" points="150.964,238.057 269.654,195.392 269.654,133.921 150.964,167.744 		"/>
		<polygon class="st6" points="269.654,133.921 151.548,96.836 31.362,133.921 150.964,167.744 		"/>
	</g>
	<g>
		<polygon class="st3" points="182.383,192.176 182.383,255.072 301.984,296.313 301.984,226 		"/>
		<polygon class="st0" points="301.984,296.313 420.675,253.647 420.675,192.176 301.984,226 		"/>
		<polygon class="st6" points="420.675,192.176 302.569,155.092 182.383,192.176 301.984,226 		"/>
	</g>
	<g>
		<polygon class="st3" points="627.775,139.293 627.775,202.189 747.376,243.429 747.376,173.116 		"/>
		<polygon class="st0" points="747.376,243.429 866.067,200.764 866.067,139.293 747.376,173.116 		"/>
		<polygon class="st6" points="866.067,139.293 747.961,102.208 627.775,139.293 747.376,173.116 		"/>
	</g>
	<g>
		<polygon class="st3" points="479.811,193.289 479.811,256.185 599.413,297.425 599.413,227.112 		"/>
		<polygon class="st0" points="599.413,297.425 718.103,254.76 718.103,193.289 599.413,227.112 		"/>
		<polygon class="st6" points="718.103,193.289 599.997,156.205 479.811,193.289 599.413,227.112 		"/>
	</g>
	<g>
		<polygon class="st3" points="333.813,245.06 333.813,307.956 453.415,349.196 453.415,278.883 		"/>
		<polygon class="st0" points="453.415,349.196 572.105,306.531 572.105,245.06 453.415,278.883 		"/>
		<polygon class="st6" points="572.105,245.06 453.999,207.975 333.813,245.06 453.415,278.883 		"/>
	</g>
	<polygon class="st8" points="458.813,378.492 457.952,378.8 0.576,225.193 0.576,168.537 458.167,315.561 458.813,315.346 	"/>
	<polygon class="st9" points="905.967,168.983 905.967,225.639 458.526,378.354 458.526,315.207 	"/>
	<g>
		<g>
			<path class="st12" d="M747.76,648.348l2.149-0.763l0.255,14.078l-2.149,0.763L747.76,648.348z"/>
			<path class="st12" d="M752.984,646.494l2.208-0.783l3.907,6.578l1.307,2.561l0.074-0.026c-0.13-1.419-0.333-3.14-0.361-4.707
				l-0.111-6.114l2.044-0.726l0.255,14.078l-2.208,0.783l-3.907-6.591L754.886,649l-0.074,0.025c0.13,1.454,0.332,3.09,0.36,4.657
				l0.112,6.164l-2.044,0.726L752.984,646.494z"/>
			<path class="st12" d="M765.135,642.182l7.32-2.598l0.038,2.101l-5.171,1.835l0.073,3.996l4.4-1.562l0.038,2.101l-4.4,1.562
				l0.106,5.881l-2.148,0.763L765.135,642.182z"/>
			<path class="st12" d="M774.581,638.83l4.082-1.448c2.519-0.894,4.479-0.548,4.536,2.593c0.055,3.027-1.861,5.09-4.38,5.983
				l-1.934,0.687l0.1,5.502l-2.148,0.762L774.581,638.83z M778.561,644.04c1.659-0.589,2.549-1.71,2.52-3.313
				c-0.029-1.617-0.943-1.857-2.603-1.269l-1.712,0.607l0.083,4.582L778.561,644.04z M778.403,645.434l1.529-2.041l3.921,6.315
				l-2.416,0.857L778.403,645.434z"/>
			<path class="st12" d="M787.917,634.099l2.519-0.894l4.204,12.676l-2.274,0.808l-1.98-6.836c-0.413-1.353-0.797-2.833-1.181-4.253
				l-0.074,0.026c-0.305,1.678-0.632,3.396-0.99,5.023l-1.724,8.15l-2.193,0.778L787.917,634.099z M786.453,642.976l5.705-2.024
				l0.036,1.959l-5.705,2.024L786.453,642.976z"/>
			<path class="st12" d="M795.275,643.841l1.221-2.157c0.884,0.652,2.059,0.886,3.185,0.486c1.363-0.484,2.099-1.469,2.079-2.567
				c-0.021-1.158-0.81-1.251-1.919-1.402l-1.671-0.247c-1.204-0.154-2.479-0.807-2.517-2.865c-0.041-2.242,1.632-4.573,3.996-5.412
				c1.415-0.502,2.798-0.309,3.766,0.472l-1.075,1.975c-0.784-0.488-1.615-0.646-2.652-0.276c-1.148,0.407-1.885,1.297-1.866,2.326
				c0.02,1.107,0.95,1.188,1.962,1.311l1.647,0.217c1.454,0.186,2.481,0.887,2.518,2.928c0.041,2.283-1.554,4.764-4.273,5.729
				C798.039,644.936,796.447,644.747,795.275,643.841z"/>
			<path class="st12" d="M808.46,628.923l-3.497,1.241l-0.038-2.101l9.142-3.244l0.038,2.101l-3.497,1.241l0.217,11.978
				l-2.148,0.762L808.46,628.923z"/>
			<path class="st12" d="M816.09,624.101l4.082-1.448c2.519-0.894,4.479-0.549,4.536,2.593c0.055,3.027-1.861,5.09-4.38,5.983
				l-1.934,0.686l0.1,5.502l-2.148,0.763L816.09,624.101z M820.07,629.31c1.659-0.588,2.548-1.71,2.519-3.312
				c-0.029-1.618-0.943-1.857-2.602-1.27l-1.712,0.607l0.083,4.582L820.07,629.31z M819.912,630.705l1.529-2.041l3.921,6.316
				l-2.416,0.857L819.912,630.705z"/>
			<path class="st12" d="M827.14,628.137l-0.144-7.905l2.148-0.763l0.147,8.094c0.056,3.066,1.059,3.725,2.526,3.203
				c1.482-0.525,2.486-1.896,2.431-4.961l-0.147-8.094l2.067-0.734l0.144,7.906c0.084,4.623-1.646,7.057-4.455,8.053
				C829.049,633.932,827.224,632.761,827.14,628.137z"/>
			<path class="st12" d="M838.679,623.219c-0.084-4.607,2.349-8.226,5.416-9.314c1.519-0.538,2.742-0.123,3.521,0.545l-1.119,2.017
				c-0.636-0.502-1.371-0.744-2.319-0.407c-1.971,0.699-3.351,3.139-3.293,6.3c0.058,3.211,1.397,4.694,3.427,3.974
				c1.074-0.381,1.894-1.252,2.56-2.363l1.177,1.16c-0.958,1.674-2.208,2.845-3.778,3.402
				C841.226,629.611,838.764,627.877,838.679,623.219z"/>
			<path class="st12" d="M852.34,613.353l-3.497,1.24l-0.038-2.101l9.142-3.244l0.038,2.101l-3.497,1.241l0.217,11.978l-2.148,0.762
				L852.34,613.353z"/>
			<path class="st12" d="M860.054,616.458l-0.144-7.905l2.148-0.763l0.147,8.094c0.056,3.065,1.059,3.724,2.526,3.203
				c1.482-0.525,2.486-1.896,2.431-4.962l-0.147-8.094l2.067-0.733l0.144,7.905c0.084,4.624-1.646,7.058-4.455,8.054
				S860.138,621.082,860.054,616.458z"/>
			<path class="st12" d="M872.102,604.226l4.083-1.449c2.519-0.894,4.479-0.548,4.536,2.594c0.055,3.027-1.861,5.089-4.38,5.982
				l-1.934,0.687l0.1,5.502l-2.149,0.763L872.102,604.226z M876.082,609.435c1.659-0.588,2.548-1.71,2.519-3.312
				c-0.029-1.618-0.943-1.857-2.603-1.27l-1.711,0.607l0.083,4.582L876.082,609.435z M875.924,610.83l1.529-2.041l3.921,6.316
				l-2.415,0.856L875.924,610.83z"/>
			<path class="st12" d="M883.068,600.336l7.29-2.587l0.038,2.101l-5.142,1.824l0.065,3.608l4.356-1.546l0.038,2.102l-4.356,1.546
				l0.076,4.167l5.327-1.891l0.038,2.101l-7.475,2.653L883.068,600.336z"/>
		</g>
	</g>
	<g>
		<g>
			<path class="st12" d="M790.118,230.758c-0.051-4.607,2.407-8.208,5.481-9.274c1.523-0.528,2.743-0.104,3.518,0.569l-1.133,2.008
				c-0.632-0.506-1.366-0.753-2.316-0.424c-1.976,0.686-3.373,3.115-3.337,6.276c0.035,3.212,1.364,4.705,3.399,3.999
				c1.077-0.374,1.903-1.239,2.576-2.346l1.168,1.168c-0.969,1.668-2.227,2.831-3.802,3.377
				C792.62,237.17,790.17,235.417,790.118,230.758z"/>
			<path class="st12" d="M800.812,226.944c-0.05-4.556,2.111-8.001,5.275-9.099s5.384,0.84,5.435,5.383
				c0.05,4.556-2.109,8.116-5.273,9.213S800.863,231.5,800.812,226.944z M809.309,223.997c-0.035-3.16-1.289-4.645-3.198-3.982
				s-3.121,3.002-3.085,6.162c0.035,3.161,1.291,4.757,3.199,4.095S809.344,227.158,809.309,223.997z"/>
			<path class="st12" d="M813.889,215.398l2.213-0.768l3.86,6.605l1.289,2.57l0.074-0.025c-0.12-1.42-0.31-3.144-0.328-4.711
				l-0.067-6.114l2.049-0.711l0.156,14.08l-2.213,0.768l-3.86-6.619l-1.289-2.557l-0.074,0.026c0.121,1.454,0.31,3.091,0.327,4.658
				l0.068,6.166l-2.049,0.711L813.889,215.398z"/>
			<path class="st12" d="M828.544,212.422l-3.506,1.216l-0.023-2.101l9.165-3.18l0.023,2.101l-3.505,1.216l0.133,11.979
				l-2.154,0.747L828.544,212.422z"/>
			<path class="st12" d="M838.584,206.83l2.525-0.876l4.114,12.707l-2.28,0.791l-1.932-6.851c-0.403-1.356-0.777-2.839-1.15-4.261
				l-0.074,0.026c-0.317,1.676-0.656,3.392-1.026,5.017l-1.781,8.139l-2.198,0.763L838.584,206.83z M837.057,215.698l5.719-1.984
				l0.021,1.959l-5.719,1.984L837.057,215.698z"/>
			<path class="st12" d="M846.569,204.06l2.154-0.747l0.156,14.08l-2.154,0.747L846.569,204.06z"/>
			<path class="st12" d="M851.805,202.244l2.213-0.768l3.861,6.605l1.288,2.571l0.074-0.026c-0.12-1.42-0.31-3.143-0.328-4.71
				l-0.067-6.114l2.05-0.711l0.156,14.08l-2.213,0.768l-3.86-6.619l-1.289-2.557l-0.074,0.026c0.12,1.454,0.31,3.091,0.327,4.659
				l0.068,6.166l-2.05,0.711L851.805,202.244z"/>
			<path class="st12" d="M863.986,198.018l7.309-2.535l0.023,2.101l-5.154,1.788l0.04,3.608l4.367-1.516l0.023,2.102l-4.367,1.516
				l0.046,4.168l5.34-1.853l0.023,2.102l-7.494,2.6L863.986,198.018z"/>
			<path class="st12" d="M873.976,194.553l4.092-1.419c2.525-0.876,4.482-0.517,4.517,2.625c0.034,3.027-1.897,5.077-4.422,5.953
				l-1.938,0.672l0.061,5.503l-2.154,0.747L873.976,194.553z M877.918,199.789c1.664-0.577,2.561-1.692,2.543-3.294
				c-0.018-1.618-0.93-1.864-2.594-1.288l-1.715,0.595l0.051,4.582L877.918,199.789z M877.75,201.182l1.543-2.03l3.877,6.345
				l-2.421,0.84L877.75,201.182z"/>
			<path class="st12" d="M884.272,203.304l1.236-2.148c0.88,0.658,2.053,0.899,3.182,0.508c1.367-0.475,2.108-1.453,2.096-2.552
				c-0.013-1.158-0.8-1.257-1.91-1.416l-1.669-0.26c-1.202-0.163-2.473-0.823-2.496-2.882c-0.025-2.242,1.664-4.562,4.034-5.384
				c1.418-0.492,2.799-0.289,3.762,0.498l-1.089,1.967c-0.781-0.494-1.61-0.656-2.649-0.296c-1.152,0.399-1.895,1.284-1.884,2.313
				c0.013,1.107,0.942,1.194,1.954,1.324l1.646,0.229c1.453,0.196,2.474,0.905,2.497,2.946c0.025,2.282-1.587,4.752-4.313,5.698
				C887.028,204.419,885.438,204.218,884.272,203.304z"/>
		</g>
	</g>
	<g>
		<g>
			<path class="st11" d="M12.532,607.338l2.11,0.75l0.347,14.076l-2.11-0.75L12.532,607.338z"/>
			<path class="st11" d="M17.664,609.16l2.168,0.771l3.891,9.225l1.304,3.441l0.073,0.026c-0.138-1.492-0.349-3.334-0.388-4.9
				l-0.151-6.112l2.008,0.714l0.347,14.076l-2.168-0.771l-3.891-9.237l-1.304-3.429l-0.073-0.026
				c0.139,1.525,0.348,3.281,0.387,4.849l0.152,6.164l-2.008-0.714L17.664,609.16z"/>
			<path class="st11" d="M29.6,613.4l7.188,2.553l0.052,2.101l-5.078-1.804l0.099,3.995l4.321,1.534l0.052,2.102l-4.321-1.535
				l0.145,5.88l-2.11-0.749L29.6,613.4z"/>
			<path class="st11" d="M38.88,616.696l4.009,1.424c2.474,0.878,4.405,2.588,4.483,5.73c0.075,3.026-1.798,3.723-4.271,2.844
				l-1.899-0.674l0.136,5.501l-2.11-0.749L38.88,616.696z M42.833,624.62c1.63,0.579,2.498,0.093,2.458-1.509
				c-0.04-1.618-0.941-2.492-2.571-3.071l-1.68-0.597l0.113,4.58L42.833,624.62z M42.688,625.887l1.491-0.947l3.903,8.978
				l-2.372-0.843L42.688,625.887z"/>
			<path class="st11" d="M51.98,621.349l2.474,0.879l4.225,15.453l-2.233-0.793l-1.996-8.134c-0.415-1.623-0.805-3.354-1.192-5.022
				l-0.073-0.026c-0.289,1.442-0.598,2.911-0.94,4.266l-1.642,6.842l-2.153-0.765L51.98,621.349z M50.599,629.09l5.602,1.989
				l0.048,1.958l-5.602-1.989L50.599,629.09z"/>
			<path class="st11" d="M59.294,636.111l1.188-1.277c0.875,1.264,2.033,2.314,3.139,2.707c1.339,0.476,2.056,0.018,2.029-1.08
				c-0.029-1.158-0.805-1.801-1.899-2.727l-1.646-1.413c-1.186-0.992-2.446-2.528-2.497-4.587c-0.056-2.242,1.575-3.373,3.896-2.549
				c1.39,0.493,2.752,1.651,3.711,3.097l-1.045,1.199c-0.776-1.031-1.594-1.765-2.613-2.127c-1.127-0.4-1.847-0.037-1.822,0.992
				c0.027,1.105,0.943,1.837,1.941,2.664l1.624,1.366c1.432,1.2,2.448,2.611,2.498,4.651c0.056,2.281-1.498,3.615-4.168,2.667
				C62.022,639.124,60.453,637.824,59.294,636.111z"/>
			<path class="st11" d="M72.176,630.603l-3.434-1.22l-0.052-2.101l8.978,3.189l0.052,2.1l-3.434-1.22l0.295,11.977l-2.11-0.75
				L72.176,630.603z"/>
			<path class="st11" d="M79.657,631.179l4.009,1.424c2.474,0.879,4.405,2.589,4.483,5.731c0.075,3.025-1.798,3.723-4.271,2.844
				l-1.899-0.675l0.136,5.502l-2.11-0.75L79.657,631.179z M83.61,639.102c1.63,0.579,2.498,0.093,2.458-1.508
				c-0.04-1.619-0.941-2.493-2.571-3.072l-1.68-0.597l0.113,4.58L83.61,639.102z M83.465,640.369l1.491-0.946l3.903,8.978
				l-2.372-0.843L83.465,640.369z"/>
			<path class="st11" d="M90.566,642.888l-0.195-7.903l2.11,0.749l0.2,8.093c0.076,3.065,1.068,4.416,2.509,4.928
				c1.456,0.517,2.435-0.134,2.359-3.198l-0.2-8.093l2.03,0.721l0.195,7.903c0.114,4.623-1.573,5.815-4.331,4.837
				C92.486,649.944,90.68,647.511,90.566,642.888z"/>
			<path class="st11" d="M101.897,646.1c-0.114-4.606,2.256-6.478,5.269-5.407c1.491,0.529,2.698,1.794,3.47,2.999l-1.088,1.209
				c-0.629-0.94-1.354-1.692-2.285-2.023c-1.936-0.688-3.277,0.756-3.2,3.916c0.079,3.211,1.408,5.611,3.402,6.319
				c1.055,0.375,1.855,0.088,2.503-0.545l1.167,1.968c-0.931,0.983-2.154,1.267-3.696,0.719
				C104.448,654.192,102.011,650.759,101.897,646.1z"/>
			<path class="st11" d="M115.281,645.913l-3.434-1.22l-0.052-2.1l8.978,3.188l0.052,2.101l-3.434-1.22l0.295,11.976l-2.11-0.749
				L115.281,645.913z"/>
			<path class="st11" d="M122.9,654.371l-0.195-7.902l2.11,0.749l0.2,8.093c0.076,3.064,1.068,4.416,2.509,4.927
				c1.455,0.518,2.434-0.133,2.358-3.198l-0.2-8.093l2.03,0.722l0.195,7.902c0.114,4.623-1.573,5.816-4.33,4.837
				C124.819,661.428,123.014,658.994,122.9,654.371z"/>
			<path class="st11" d="M134.682,650.723l4.009,1.424c2.474,0.878,4.405,2.588,4.483,5.73c0.075,3.025-1.798,3.723-4.271,2.844
				l-1.899-0.674l0.136,5.501l-2.11-0.749L134.682,650.723z M138.635,658.646c1.629,0.578,2.498,0.093,2.458-1.509
				c-0.04-1.618-0.941-2.493-2.571-3.071l-1.681-0.598l0.113,4.58L138.635,658.646z M138.49,659.913l1.491-0.947l3.903,8.978
				l-2.372-0.843L138.49,659.913z"/>
			<path class="st11" d="M145.454,654.548l7.159,2.543l0.052,2.101l-5.049-1.794l0.089,3.607l4.278,1.52l0.052,2.101l-4.278-1.519
				l0.103,4.166l5.231,1.858l0.052,2.101l-7.341-2.607L145.454,654.548z"/>
		</g>
	</g>
	<g>
		<g>
			<path class="st11" d="M11.836,190.898c-0.263-4.6,2.044-6.548,5.09-5.576c1.508,0.48,2.755,1.705,3.566,2.884l-1.048,1.244
				c-0.659-0.919-1.408-1.647-2.35-1.948c-1.957-0.624-3.251,0.863-3.071,4.018c0.184,3.207,1.59,5.562,3.605,6.205
				c1.067,0.34,1.858,0.027,2.484-0.625l1.229,1.929c-0.898,1.013-2.111,1.335-3.67,0.838
				C14.65,198.903,12.103,195.55,11.836,190.898z"/>
			<path class="st11" d="M22.427,194.175c-0.26-4.549,1.756-6.539,4.89-5.539c3.134,0.999,5.458,4.387,5.718,8.922
				c0.261,4.548-1.749,6.65-4.883,5.651C25.018,202.209,22.687,198.723,22.427,194.175z M30.842,196.859
				c-0.181-3.156-1.511-5.454-3.402-6.057s-3.002,0.916-2.821,4.072c0.181,3.155,1.517,5.565,3.408,6.168
				C29.917,201.644,31.023,200.014,30.842,196.859z"/>
			<path class="st11" d="M35.059,191.358l2.192,0.699l4.189,9.093l1.415,3.397l0.073,0.023c-0.186-1.486-0.457-3.32-0.547-4.885
				l-0.35-6.104l2.031,0.647l0.805,14.058l-2.192-0.699l-4.19-9.106l-1.415-3.384l-0.074-0.023c0.189,1.52,0.455,3.268,0.544,4.833
				l0.353,6.156l-2.03-0.647L35.059,191.358z"/>
			<path class="st11" d="M49.675,198.078l-3.472-1.107l-0.12-2.098l9.077,2.895l0.12,2.098l-3.472-1.107l0.685,11.96l-2.133-0.68
				L49.675,198.078z"/>
			<path class="st11" d="M59.526,199.161l2.501,0.797l4.726,15.308l-2.258-0.72l-2.26-8.064c-0.468-1.61-0.913-3.326-1.354-4.982
				l-0.074-0.023c-0.241,1.451-0.503,2.929-0.801,4.294l-1.418,6.892l-2.177-0.694L59.526,199.161z M58.397,206.942l5.664,1.807
				l0.112,1.957l-5.664-1.807L58.397,206.942z"/>
			<path class="st11" d="M67.437,201.684l2.133,0.68l0.805,14.058l-2.133-0.68L67.437,201.684z"/>
			<path class="st11" d="M72.625,203.338l2.192,0.699l4.189,9.093l1.415,3.396l0.073,0.023c-0.186-1.486-0.457-3.319-0.547-4.885
				l-0.35-6.104l2.031,0.647l0.805,14.058l-2.192-0.699l-4.19-9.106l-1.415-3.384l-0.074-0.023c0.189,1.521,0.455,3.269,0.544,4.833
				l0.353,6.156l-2.03-0.647L72.625,203.338z"/>
			<path class="st11" d="M84.693,207.187l7.238,2.309l0.12,2.098l-5.105-1.628l0.207,3.603l4.325,1.379l0.12,2.098l-4.325-1.379
				l0.238,4.161l5.289,1.687l0.12,2.098l-7.422-2.367L84.693,207.187z"/>
			<path class="st11" d="M94.59,210.344l4.053,1.292c2.501,0.797,4.487,2.444,4.667,5.582c0.173,3.022-1.675,3.779-4.176,2.981
				l-1.919-0.612l0.314,5.494l-2.134-0.68L94.59,210.344z M98.799,218.135c1.647,0.525,2.499,0.012,2.407-1.587
				c-0.092-1.617-1.022-2.461-2.669-2.987l-1.699-0.542l0.262,4.574L98.799,218.135z M98.695,219.405l1.459-0.995l4.193,8.846
				l-2.398-0.765L98.695,219.405z"/>
			<path class="st11" d="M105.359,225.81l1.145-1.314c0.916,1.233,2.107,2.246,3.225,2.603c1.354,0.432,2.056-0.049,1.993-1.146
				c-0.066-1.156-0.864-1.774-1.987-2.664l-1.692-1.358c-1.217-0.954-2.527-2.447-2.645-4.502c-0.128-2.24,1.464-3.424,3.812-2.676
				c1.405,0.448,2.805,1.562,3.81,2.975l-1.005,1.232c-0.809-1.005-1.651-1.712-2.681-2.04c-1.14-0.364-1.848,0.022-1.789,1.05
				c0.063,1.104,1.002,1.805,2.026,2.6l1.667,1.312c1.471,1.152,2.532,2.529,2.648,4.567c0.131,2.278-1.378,3.663-4.078,2.802
				C108.184,228.733,106.574,227.485,105.359,225.81z"/>
		</g>
	</g>
</g>
</svg>
