<svg enable-background="new 0 0 193.882 192.592" height="192.592" viewBox="0 0 193.882 192.592" width="193.882" xmlns="http://www.w3.org/2000/svg"><path d="m193.851 93.309-15.809-8.362c-.693-5.001-1.835-9.857-3.389-14.527l11.512-12.73c-4.152-9.747-9.856-18.672-16.8-26.472l-18.027 3.872c-2.666-2.37-5.484-4.572-8.445-6.583l.663-17.874c-9.417-5.175-19.786-8.827-30.779-10.633l-11.302 14.53c-1.501-.081-3.013-.125-4.534-.125-1.522 0-3.033.044-4.534.125l-11.303-14.53c-10.993 1.806-21.362 5.458-30.779 10.632l.662 17.874c-2.96 2.011-5.779 4.213-8.444 6.583l-18.028-3.872c-6.943 7.799-12.648 16.725-16.8 26.472l11.512 12.731c-1.553 4.669-2.696 9.525-3.389 14.526l-15.809 8.363c-.018.776-.029 1.555-.029 2.336 0 9.311 1.315 18.313 3.766 26.834l16.367 2.268c2.313 6.24 5.365 12.122 9.049 17.539l-6.412 15.771c5.954 7.066 12.897 13.271 20.621 18.398l13.713-8.607c6.611 3.688 13.783 6.49 21.359 8.239l5.02 15.562c4.399.609 8.89.936 13.458.936 4.567 0 9.059-.324 13.457-.936l5.021-15.562c7.577-1.749 14.749-4.552 21.36-8.239l13.713 8.607c7.723-5.127 14.667-11.332 20.62-18.398l-6.411-15.771c3.684-5.417 6.735-11.299 9.047-17.539l16.368-2.268c2.451-8.521 3.766-17.523 3.766-26.834-.002-.781-.012-1.56-.031-2.336zm-42.603 34.337-54.305 31.354-54.309-31.354v-62.708l54.309-31.353 54.305 31.353z" fill="#fff"/><g fill="#488dbe"><path d="m127.083 64.035-40.506 23.386 10.327 5.963 40.506-23.386z"/><path d="m111.995 55.324-40.507 23.386 10.329 5.964 40.506-23.387z"/><path d="m96.905 46.613-40.506 23.386 10.33 5.963 40.505-23.385z"/><path d="m109.649 138.335v-46.772l-10.329 5.963v46.774z"/><path d="m94.561 144.298v-46.772l-10.328-5.961v46.77z"/><path d="m124.738 129.623v-46.771l-10.329 5.963v46.772z"/><path d="m139.825 120.913v-46.772l-10.328 5.963v46.771z"/><path d="m79.473 135.589v-46.772l-10.328-5.965v46.772z"/><path d="m64.384 126.876v-46.772l-10.329-5.963v46.772z"/></g></svg>