<?xml version="1.0" encoding="UTF-8" standalone="no"?>
<svg
   xmlns:dc="http://purl.org/dc/elements/1.1/"
   xmlns:cc="http://creativecommons.org/ns#"
   xmlns:rdf="http://www.w3.org/1999/02/22-rdf-syntax-ns#"
   xmlns:svg="http://www.w3.org/2000/svg"
   xmlns="http://www.w3.org/2000/svg"
   viewBox="0 0 805.71997 232"
   height="232"
   width="805.71997"
   xml:space="preserve"
   id="svg2"
   version="1.1"><metadata
     id="metadata8"><rdf:RDF><cc:Work
         rdf:about=""><dc:format>image/svg+xml</dc:format><dc:type
           rdf:resource="http://purl.org/dc/dcmitype/StillImage" /></cc:Work></rdf:RDF></metadata><defs
     id="defs6"><clipPath
       id="clipPath20"
       clipPathUnits="userSpaceOnUse"><path
         id="path18"
         d="M 0,1740 V 0 h 6042.93 v 1740 z" /></clipPath></defs><g
     transform="matrix(1.3333333,0,0,-1.3333333,0,232)"
     id="g10"><g
       transform="scale(0.1)"
       id="g12"><g
         id="g14"><g
           clip-path="url(#clipPath20)"
           id="g16"><path
             id="path22"
             style="fill:#ffffff;fill-opacity:1;fill-rule:nonzero;stroke:none"
             d="m 1359.22,604.891 -465.9,-269 -465.929,269 v 537.989 l 465.929,268.98 465.9,-268.98 z m 365.5,294.586 -135.63,71.738 c -5.94,42.905 -15.74,84.565 -29.07,124.635 l 98.76,109.21 c -35.62,83.62 -84.56,160.19 -144.13,227.11 l -154.66,-33.22 c -22.87,20.34 -47.05,39.23 -72.45,56.48 l 5.69,153.35 c -80.79,44.4 -169.75,75.73 -264.06,91.22 l -96.967,-124.66 c -12.879,0.7 -25.851,1.08 -38.898,1.08 -13.059,0 -26.024,-0.38 -38.899,-1.08 L 757.434,1700 c -94.313,-15.49 -183.27,-46.82 -264.063,-91.21 l 5.68,-153.35 c -25.395,-17.25 -49.578,-36.14 -72.442,-56.48 l -154.668,33.22 C 212.375,1365.27 163.43,1288.69 127.809,1205.07 l 98.765,-109.22 C 213.25,1055.79 203.445,1014.13 197.5,971.227 L 61.8672,899.477 c -0.1524,-6.657 -0.2461,-13.34 -0.2461,-20.043 0,-79.879 11.2812,-157.114 32.3086,-230.215 L 234.348,629.762 c 19.843,-53.532 46.027,-104 77.632,-150.473 L 256.969,343.988 C 308.051,283.359 367.617,230.129 433.883,186.141 l 117.648,73.847 C 608.25,228.352 669.777,204.309 734.777,189.301 L 777.844,55.7891 c 37.742,-5.2188 76.269,-8.0274 115.461,-8.0274 39.179,0 77.718,2.7774 115.455,8.0274 l 43.07,133.5119 c 65.01,15.008 126.54,39.051 183.25,70.687 l 117.65,-73.847 c 66.26,43.988 125.83,97.218 176.91,157.847 l -55,135.301 c 31.6,46.473 57.78,96.941 77.61,150.473 l 140.43,19.457 c 21.03,73.101 32.31,150.336 32.31,230.215 -0.02,6.703 -0.11,13.386 -0.27,20.043" /><path
             id="path24"
             style="fill:#4a9dd7;fill-opacity:1;fill-rule:nonzero;stroke:none"
             d="m 1151.9,1150.62 -347.513,-200.628 88.597,-51.16 347.516,200.638 -88.6,51.15" /><path
             id="path26"
             style="fill:#4a9dd7;fill-opacity:1;fill-rule:nonzero;stroke:none"
             d="m 1022.46,1225.36 -347.526,-200.63 88.617,-51.171 347.509,200.641 -88.6,51.16" /><path
             id="path28"
             style="fill:#4a9dd7;fill-opacity:1;fill-rule:nonzero;stroke:none"
             d="m 892.996,1300.09 -347.512,-200.63 88.621,-51.16 347.504,200.63 -88.613,51.16" /><path
             id="path30"
             style="fill:#4a9dd7;fill-opacity:1;fill-rule:nonzero;stroke:none"
             d="m 1002.33,513.191 v 401.266 l -88.615,-51.16 V 462.012 l 88.615,51.179" /><path
             id="path32"
             style="fill:#4a9dd7;fill-opacity:1;fill-rule:nonzero;stroke:none"
             d="m 872.887,462.031 v 401.266 l -88.61,51.141 V 513.191 l 88.61,-51.16" /><path
             id="path34"
             style="fill:#4a9dd7;fill-opacity:1;fill-rule:nonzero;stroke:none"
             d="m 1131.78,587.93 v 401.261 l -88.61,-51.16 V 536.762 l 88.61,51.168" /><path
             id="path36"
             style="fill:#4a9dd7;fill-opacity:1;fill-rule:nonzero;stroke:none"
             d="m 1261.22,662.648 v 401.282 l -88.61,-51.16 V 611.5 l 88.61,51.148" /><path
             id="path38"
             style="fill:#4a9dd7;fill-opacity:1;fill-rule:nonzero;stroke:none"
             d="m 743.441,536.738 v 401.278 l -88.605,51.175 V 587.922 l 88.605,-51.184" /><path
             id="path40"
             style="fill:#4a9dd7;fill-opacity:1;fill-rule:nonzero;stroke:none"
             d="m 613.988,611.5 v 401.27 l -88.617,51.16 V 662.648 L 613.988,611.5" /><path
             id="path42"
             style="fill:#ffffff;fill-opacity:1;fill-rule:nonzero;stroke:none"
             d="m 2536.34,493.262 c -120.54,0 -212.36,33.519 -275.49,100.578 -63.12,67.019 -94.68,162.25 -94.68,285.648 0,61.332 9.63,116.074 28.88,164.222 19.26,48.15 45.64,88.81 79.17,121.97 33.52,33.16 73.46,58.31 119.82,75.42 46.36,17.12 96.64,25.68 150.85,25.68 31.38,0 59.91,-2.32 85.59,-6.97 25.68,-4.64 48.15,-9.99 67.4,-16.04 19.26,-6.06 35.3,-12.3 48.13,-18.73 12.84,-6.42 22.1,-11.41 27.82,-14.97 l -48.14,-134.8 c -22.84,12.12 -49.4,22.46 -79.71,31.02 -30.33,8.56 -64.72,12.84 -103.24,12.84 -25.68,0 -50.82,-4.28 -75.42,-12.84 -24.61,-8.56 -46.37,-22.3 -65.26,-41.19 -18.91,-18.91 -34.07,-43.33 -45.47,-73.284 -11.42,-29.953 -17.12,-66.328 -17.12,-109.128 0,-34.235 3.74,-66.157 11.23,-95.754 7.49,-29.598 19.61,-55.094 36.38,-76.493 16.75,-21.402 38.68,-38.363 65.79,-50.82 27.09,-12.492 59.91,-18.73 98.43,-18.73 24.24,0 46,1.418 65.25,4.281 19.26,2.84 36.38,6.238 51.36,10.168 14.98,3.91 28.17,8.39 39.58,13.379 11.41,4.98 21.75,9.633 31.04,13.91 l 45.99,-133.738 c -23.53,-14.27 -56.69,-27.11 -99.49,-38.512 -42.77,-11.391 -92.35,-17.117 -148.69,-17.117" /><path
             id="path44"
             style="fill:#ffffff;fill-opacity:1;fill-rule:nonzero;stroke:none"
             d="m 3291.43,945.555 c 30,50.507 58.55,100.995 85.69,151.505 27.13,50.5 52.12,101.36 74.99,152.58 h 184.01 c -40.64,-79.89 -82.74,-157.26 -126.24,-232.16 -43.51,-74.882 -89.52,-150.14 -138.01,-225.734 V 508.238 h -166.91 v 281.371 c -48.49,75.602 -94.67,151.203 -138.52,226.811 -43.86,75.59 -86.12,153.34 -126.77,233.23 h 193.63 c 22.79,-51.22 47.36,-102.08 73.73,-152.58 26.33,-50.51 54.48,-101.008 84.4,-151.515" /><path
             id="path46"
             style="fill:#ffffff;fill-opacity:1;fill-rule:nonzero;stroke:none"
             d="m 4119.69,493.262 c -120.53,0 -212.36,33.519 -275.48,100.578 -63.11,67.019 -94.67,162.25 -94.67,285.648 0,61.332 9.64,116.074 28.89,164.222 19.23,48.15 45.62,88.81 79.16,121.97 33.53,33.16 73.45,58.31 119.83,75.42 46.34,17.12 96.65,25.68 150.84,25.68 31.38,0 59.91,-2.32 85.61,-6.97 25.65,-4.64 48.12,-9.99 67.38,-16.04 19.27,-6.06 35.31,-12.3 48.14,-18.73 12.85,-6.42 22.1,-11.41 27.83,-14.97 l -48.15,-134.8 c -22.83,12.12 -49.4,22.46 -79.7,31.02 -30.33,8.56 -64.73,12.84 -103.25,12.84 -25.67,0 -50.81,-4.28 -75.42,-12.84 -24.6,-8.56 -46.34,-22.3 -65.24,-41.19 -18.91,-18.91 -34.09,-43.33 -45.47,-73.284 -11.42,-29.953 -17.12,-66.328 -17.12,-109.128 0,-34.235 3.76,-66.157 11.25,-95.754 7.49,-29.598 19.6,-55.094 36.36,-76.493 16.75,-21.402 38.69,-38.363 65.8,-50.82 27.09,-12.492 59.92,-18.73 98.43,-18.73 24.24,0 45.99,1.418 65.26,4.281 19.25,2.84 36.38,6.238 51.34,10.168 14.96,3.91 28.17,8.39 39.58,13.379 11.39,4.98 21.74,9.633 31.03,13.91 l 45.99,-133.738 c -23.54,-14.27 -56.7,-27.11 -99.5,-38.512 -42.8,-11.391 -92.38,-17.117 -148.72,-17.117" /><path
             id="path48"
             style="fill:#ffffff;fill-opacity:1;fill-rule:nonzero;stroke:none"
             d="M 5072.93,651.602 V 508.238 H 4577.6 v 741.412 h 166.89 V 651.602 h 328.44" /><path
             id="path50"
             style="fill:#ffffff;fill-opacity:1;fill-rule:nonzero;stroke:none"
             d="m 5282.6,508.238 v 741.412 h 500.69 V 1109.5 H 5449.51 V 964 h 296.34 V 827.059 H 5449.51 V 648.398 h 358.38 V 508.238 H 5282.6" /></g></g></g></g></svg>