<?xml version="1.0" encoding="utf-8"?>
<!-- Generator: Adobe Illustrator 24.0.3, SVG Export Plug-In . SVG Version: 6.00 Build 0)  -->
<svg version="1.1" id="Layer_1" xmlns="http://www.w3.org/2000/svg" xmlns:xlink="http://www.w3.org/1999/xlink" x="0px" y="0px"
	 viewBox="0 0 560 288" style="enable-background:new 0 0 560 288;" xml:space="preserve">
<style type="text/css">
	.st0{fill:#28282A;}
	.st1{fill:#4A9DD7;}
</style>
<g>
	<path id="path22" class="st0" d="M359.7,192.1l-78.5,45.3l-78.5-45.3v-90.7l78.5-45.3l78.5,45.3V192.1z M421.3,142.5l-22.9-12.1
		c-1-7.2-2.7-14.3-4.9-21L410.2,91c-6-14.1-14.3-27-24.3-38.3l-26.1,5.6c-3.9-3.4-7.9-6.6-12.2-9.5l1-25.8
		C335,15.4,320,10.1,304.1,7.5l-16.3,21c-2.2-0.1-4.4-0.2-6.6-0.2c-2.2,0-4.4,0.1-6.6,0.2l-16.3-21c-15.9,2.6-30.9,7.9-44.5,15.4
		l1,25.8c-4.3,2.9-8.4,6.1-12.2,9.5l-26.1-5.6c-10,11.3-18.3,24.2-24.3,38.3l16.6,18.4c-2.2,6.8-3.9,13.8-4.9,21l-22.9,12.1
		c0,1.1,0,2.2,0,3.4c0,13.5,1.9,26.5,5.4,38.8l23.7,3.3c3.3,9,7.8,17.5,13.1,25.4l-9.3,22.8c8.6,10.2,18.6,19.2,29.8,26.6l19.8-12.4
		c9.6,5.3,19.9,9.4,30.9,11.9l7.3,22.5c6.4,0.9,12.9,1.4,19.5,1.4c6.6,0,13.1-0.5,19.5-1.4l7.3-22.5c11-2.5,21.3-6.6,30.9-11.9
		l19.8,12.4c11.2-7.4,21.2-16.4,29.8-26.6l-9.3-22.8c5.3-7.8,9.7-16.3,13.1-25.4l23.7-3.3c3.5-12.3,5.4-25.3,5.4-38.8
		C421.4,144.7,421.3,143.6,421.3,142.5"/>
	<path id="path24" class="st1" d="M324.8,100.1l-58.6,33.8l14.9,8.6l58.6-33.8L324.8,100.1"/>
	<path id="path26" class="st1" d="M303,87.5l-58.6,33.8l14.9,8.6l58.6-33.8L303,87.5"/>
	<path id="path28" class="st1" d="M281.1,74.9l-58.6,33.8l14.9,8.6l58.6-33.8L281.1,74.9"/>
	<path id="path30" class="st1" d="M299.6,207.6v-67.6l-14.9,8.6v67.6L299.6,207.6"/>
	<path id="path32" class="st1" d="M277.8,216.2v-67.6l-14.9-8.6v67.6L277.8,216.2"/>
	<path id="path34" class="st1" d="M321.4,195v-67.6l-14.9,8.6v67.6L321.4,195"/>
	<path id="path36" class="st1" d="M343.2,182.4v-67.6l-14.9,8.6V191L343.2,182.4"/>
	<path id="path38" class="st1" d="M255.9,203.6V136l-14.9-8.6V195L255.9,203.6"/>
	<path id="path40" class="st1" d="M234.1,191v-67.6l-14.9-8.6v67.6L234.1,191"/>
</g>
</svg>
