<?xml version="1.0" encoding="UTF-8" standalone="no"?>
<svg
   xmlns:dc="http://purl.org/dc/elements/1.1/"
   xmlns:cc="http://creativecommons.org/ns#"
   xmlns:rdf="http://www.w3.org/1999/02/22-rdf-syntax-ns#"
   xmlns:svg="http://www.w3.org/2000/svg"
   xmlns="http://www.w3.org/2000/svg"
   viewBox="0 0 770.71997 236"
   height="236"
   width="771.71997"
   xml:space="preserve"
   id="svg2"
   version="1.1"><metadata
     id="metadata8"><rdf:RDF><cc:Work
         rdf:about=""><dc:format>image/svg+xml</dc:format><dc:type
           rdf:resource="http://purl.org/dc/dcmitype/StillImage" /></cc:Work></rdf:RDF></metadata><defs
     id="defs6"><clipPath
       id="clipPath20"
       clipPathUnits="userSpaceOnUse"><path
         id="path18"
         d="M 0,1769.98 V 0 h 6042.93 v 1769.98 z" /></clipPath></defs><g
     transform="matrix(1.3333333,0,0,-1.3333333,0,236)"
     id="g10"><g
       transform="scale(0.1)"
       id="g12"><g
         id="g14"><g
           clip-path="url(#clipPath20)"
           id="g16"><path
             id="path22"
             style="fill:#28282a;fill-opacity:1;fill-rule:nonzero;stroke:none"
             d="M 1325.77,596.422 860.527,327.801 395.254,596.422 v 537.228 l 465.273,268.61 465.243,-268.61 z m 364.99,294.168 -135.44,71.64 c -5.94,42.84 -15.72,84.45 -29.04,124.45 l 98.63,109.07 c -35.57,83.5 -84.44,159.96 -143.93,226.79 l -154.44,-33.18 c -22.84,20.31 -46.98,39.17 -72.35,56.4 l 5.68,153.13 c -80.68,44.34 -169.51,75.63 -263.686,91.09 L 899.355,1565.5 c -12.859,0.7 -25.812,1.07 -38.843,1.07 -13.039,0 -25.985,-0.37 -38.844,-1.07 l -96.836,124.48 c -94.18,-15.46 -183.012,-46.75 -263.687,-91.08 l 5.671,-153.13 c -25.359,-17.23 -49.511,-36.09 -72.343,-56.4 l -154.45,33.17 C 180.543,1355.73 131.668,1279.26 96.0977,1195.75 l 98.6253,-109.07 c -13.309,-40 -23.098,-81.6 -29.035,-124.442 L 30.25,890.59 C 30.0938,883.941 30,877.27 30,870.578 30,790.809 41.2656,713.691 62.2656,640.691 L 202.484,621.262 C 222.301,567.801 248.445,517.398 280.008,471 L 225.074,335.879 C 276.086,275.352 335.566,222.191 401.738,178.262 L 519.223,252 c 56.636,-31.59 118.078,-55.602 182.984,-70.578 L 745.215,48.0898 c 37.687,-5.2109 76.164,-8.0195 115.297,-8.0195 39.125,0 77.609,2.7813 115.289,8.0195 l 43.019,133.3322 c 64.91,14.976 126.35,38.988 182.99,70.578 l 117.48,-73.738 c 66.17,43.929 125.66,97.09 176.66,157.617 L 1441.02,471 c 31.57,46.398 57.7,96.801 77.51,150.262 l 140.23,19.429 c 21,73 32.26,150.118 32.26,229.887 -0.01,6.692 -0.1,13.363 -0.26,20.012" /><path
             id="path24"
             style="fill:#4a9dd7;fill-opacity:1;fill-rule:nonzero;stroke:none"
             d="m 1118.74,1141.39 -347.017,-200.355 88.472,-51.086 347.025,200.351 -88.48,51.09" /><path
             id="path26"
             style="fill:#4a9dd7;fill-opacity:1;fill-rule:nonzero;stroke:none"
             d="m 989.48,1216.02 -347.031,-200.36 88.492,-51.094 347.019,200.364 -88.48,51.09" /><path
             id="path28"
             style="fill:#4a9dd7;fill-opacity:1;fill-rule:nonzero;stroke:none"
             d="m 860.203,1290.64 -347.023,-200.35 88.5,-51.09 347.015,200.35 -88.492,51.09" /><path
             id="path30"
             style="fill:#4a9dd7;fill-opacity:1;fill-rule:nonzero;stroke:none"
             d="m 969.383,504.84 v 400.711 l -88.488,-51.09 V 453.738 l 88.488,51.102" /><path
             id="path32"
             style="fill:#4a9dd7;fill-opacity:1;fill-rule:nonzero;stroke:none"
             d="m 840.121,453.762 v 400.699 l -88.48,51.07 V 504.84 l 88.48,-51.078" /><path
             id="path34"
             style="fill:#4a9dd7;fill-opacity:1;fill-rule:nonzero;stroke:none"
             d="M 1098.65,579.48 V 980.176 L 1010.16,929.09 V 528.391 l 88.49,51.089" /><path
             id="path36"
             style="fill:#4a9dd7;fill-opacity:1;fill-rule:nonzero;stroke:none"
             d="M 1227.91,654.102 V 1054.8 l -88.48,-51.08 v -400.7 l 88.48,51.082" /><path
             id="path38"
             style="fill:#4a9dd7;fill-opacity:1;fill-rule:nonzero;stroke:none"
             d="m 710.859,528.371 v 400.703 l -88.48,51.102 V 579.469 l 88.48,-51.098" /><path
             id="path40"
             style="fill:#4a9dd7;fill-opacity:1;fill-rule:nonzero;stroke:none"
             d="m 581.59,603.02 v 400.7 l -88.492,51.08 V 654.102 L 581.59,603.02" /><path
             id="path42"
             style="fill:#28282a;fill-opacity:1;fill-rule:nonzero;stroke:none"
             d="m 2501.23,484.949 c -120.37,0 -212.06,33.473 -275.1,100.43 -63.03,66.93 -94.55,162.031 -94.55,285.25 0,61.246 9.62,115.914 28.85,163.991 19.22,48.08 45.57,88.68 79.06,121.79 33.47,33.13 73.35,58.23 119.65,75.32 46.28,17.1 96.5,25.65 150.63,25.65 31.33,0 59.83,-2.33 85.47,-6.96 25.64,-4.63 48.08,-9.98 67.3,-16.02 19.24,-6.06 35.26,-12.29 48.06,-18.7 12.83,-6.41 22.07,-11.4 27.79,-14.95 l -48.07,-134.62 c -22.81,12.11 -49.33,22.44 -79.6,30.98 -30.29,8.55 -64.63,12.83 -103.1,12.83 -25.64,0 -50.74,-4.28 -75.31,-12.83 -24.57,-8.54 -46.31,-22.27 -65.17,-41.13 -18.88,-18.88 -34.02,-43.27 -45.41,-73.179 -11.4,-29.91 -17.09,-66.235 -17.09,-108.977 0,-34.183 3.74,-66.062 11.21,-95.617 7.48,-29.559 19.59,-55.016 36.33,-76.387 16.73,-21.371 38.63,-38.3 65.7,-50.75 27.06,-12.468 59.83,-18.699 98.29,-18.699 24.2,0 45.94,1.418 65.16,4.27 19.24,2.839 36.33,6.23 51.29,10.16 14.96,3.898 28.12,8.371 39.53,13.359 11.38,4.981 21.71,9.61 30.98,13.891 L 2749.06,540.5 c -23.5,-14.262 -56.61,-27.07 -99.35,-38.461 -42.71,-11.367 -92.22,-17.09 -148.48,-17.09" /><path
             id="path44"
             style="fill:#28282a;fill-opacity:1;fill-rule:nonzero;stroke:none"
             d="m 3255.26,936.605 c 29.95,50.434 58.47,100.855 85.57,151.285 27.09,50.44 52.04,101.22 74.88,152.37 h 183.76 c -40.59,-79.78 -82.63,-157.05 -126.07,-231.83 -43.45,-74.782 -89.39,-149.934 -137.81,-225.418 V 499.898 h -166.68 v 280.981 c -48.42,75.492 -94.53,150.988 -138.32,226.491 -43.81,75.49 -86.01,153.12 -126.6,232.9 h 193.36 c 22.76,-51.15 47.29,-101.93 73.63,-152.37 26.29,-50.44 54.4,-100.861 84.28,-151.295" /><path
             id="path46"
             style="fill:#28282a;fill-opacity:1;fill-rule:nonzero;stroke:none"
             d="m 4082.35,484.949 c -120.36,0 -212.06,33.473 -275.09,100.43 -63.02,66.93 -94.53,162.031 -94.53,285.25 0,61.246 9.62,115.914 28.84,163.991 19.21,48.08 45.56,88.68 79.05,121.79 33.48,33.13 73.34,58.23 119.66,75.32 46.28,17.1 96.52,25.65 150.63,25.65 31.34,0 59.83,-2.33 85.49,-6.96 25.61,-4.63 48.05,-9.98 67.29,-16.02 19.24,-6.06 35.25,-12.29 48.07,-18.7 12.83,-6.41 22.06,-11.4 27.79,-14.95 l -48.09,-134.62 c -22.79,12.11 -49.33,22.44 -79.58,30.98 -30.29,8.55 -64.64,12.83 -103.11,12.83 -25.63,0 -50.73,-4.28 -75.31,-12.83 -24.56,-8.54 -46.28,-22.27 -65.15,-41.13 -18.88,-18.88 -34.04,-43.27 -45.4,-73.179 -11.41,-29.91 -17.1,-66.235 -17.1,-108.977 0,-34.183 3.75,-66.062 11.23,-95.617 7.48,-29.559 19.58,-55.016 36.31,-76.387 16.73,-21.371 38.64,-38.3 65.71,-50.75 27.05,-12.468 59.83,-18.699 98.29,-18.699 24.21,0 45.93,1.418 65.17,4.27 19.22,2.839 36.32,6.23 51.27,10.16 14.94,3.898 28.12,8.371 39.52,13.359 11.37,4.981 21.71,9.61 30.98,13.891 L 4330.22,540.5 c -23.51,-14.262 -56.62,-27.07 -99.36,-38.461 -42.74,-11.367 -92.25,-17.09 -148.51,-17.09" /><path
             id="path48"
             style="fill:#28282a;fill-opacity:1;fill-rule:nonzero;stroke:none"
             d="M 5034.25,643.07 V 499.91 h -494.64 v 740.36 h 166.66 v -597.2 h 327.98" /><path
             id="path50"
             style="fill:#28282a;fill-opacity:1;fill-rule:nonzero;stroke:none"
             d="m 5243.62,499.91 v 740.36 h 499.99 V 1100.32 H 5410.3 V 955.023 h 295.92 V 818.273 H 5410.3 V 639.859 h 357.87 V 499.91 h -524.55" /></g></g></g></g></svg>