<svg id="Layer_1" data-name="Layer 1" xmlns="http://www.w3.org/2000/svg" viewBox="0 0 104.06 94.3"><defs><style>.cls-1{fill:#fff;}</style></defs><polygon class="cls-1" points="71.47 6.5 71.47 19.04 68.61 20.04 68.61 5.5 60.01 2.5 60.01 23.04 57.15 24.04 57.15 1.5 52.85 0 48.55 1.5 48.55 24.04 45.69 23.04 45.69 2.5 37.1 5.5 37.1 20.04 34.23 19.04 34.23 6.5 31.37 7.5 31.37 21.08 39.96 24.07 39.96 7.53 42.83 6.54 42.83 25.07 51.42 28.07 51.42 3.53 52.85 3.03 54.28 3.53 54.28 28.07 62.88 25.07 62.88 6.54 65.74 7.53 65.74 24.07 74.33 21.08 74.33 7.5 71.47 6.5"/><polygon class="cls-1" points="1.87 44.39 6.97 44.39 6.97 43 1.87 43 1.87 40.02 9.47 40.02 9.47 38.63 0.33 38.63 0.33 49.18 9.74 49.18 9.74 47.82 1.87 47.82 1.87 44.39"/><path class="cls-1" d="M296.05,390.59a2.94,2.94,0,0,1-3.1,3.13,2.85,2.85,0,0,1-2.93-3.13v-6.31H288.5v6.38a4.24,4.24,0,0,0,4.43,4.45c3.49,0,4.63-2.38,4.63-4.45v-6.38h-1.51Z" transform="translate(-253.96 -345.61)"/><rect class="cls-1" x="52.09" y="38.63" width="1.51" height="10.55"/><polygon class="cls-1" points="71.68 46.9 64.2 38.63 62.7 38.63 62.7 49.18 64.22 49.18 64.22 40.85 71.71 49.18 73.19 49.18 73.19 38.63 71.68 38.63 71.68 46.9"/><rect class="cls-1" x="82.37" y="38.63" width="1.51" height="10.55"/><polygon class="cls-1" points="98.61 43.46 103 38.62 101.13 38.62 97.64 42.41 94.25 38.62 92.28 38.62 96.51 43.46 91.22 49.18 93.15 49.18 97.5 44.48 101.64 49.18 103.74 49.18 98.61 43.46"/><path class="cls-1" d="M275.2,383.82a5.51,5.51,0,0,0-5.56,5.72v0a5.44,5.44,0,0,0,5.6,5.6,6,6,0,0,0,2.46-.58l.86,1h1.76l-1.51-1.72a5.37,5.37,0,0,0,2-4.4v0a5.47,5.47,0,0,0-5.62-5.6m4.05,5.7a4.12,4.12,0,0,1-1.36,3.28l-.82-.94h-1.76l1.44,1.65a3.93,3.93,0,0,1-1.48.31,4.08,4.08,0,0,1-4-4.28v0a4,4,0,0,1,3.95-4.32,4.1,4.1,0,0,1,4.08,4.3Z" transform="translate(-253.96 -345.61)"/><path class="cls-1" d="M333.77,365.74a2.6,2.6,0,0,0,2.58-2.6h0a2.58,2.58,0,1,0-5.16,0v0a2.57,2.57,0,0,0,2.58,2.58m0-.28a2.27,2.27,0,0,1-2.28-2.3v0a2.29,2.29,0,1,1,4.57,0h0a2.3,2.3,0,0,1-2.29,2.32m-1.06-1h.65v-.84h.41l.58.84h.79l-.68-1a.83.83,0,0,0,.59-.83c0-.61-.46-.89-1.09-.89h-1.25Zm.65-1.37v-.75h.56c.28,0,.46.14.46.37s-.16.38-.46.38Z" transform="translate(-253.96 -345.61)"/><path class="cls-1" d="M273.72,428.37H276l3.69,5.46,3.69-5.46h2.26v11.54H283.5v-8.28l-3.82,5.45h-.07l-3.8-5.41v8.24h-2.09Z" transform="translate(-253.96 -345.61)"/><path class="cls-1" d="M290.14,428.37h9v1.81h-6.86v3h6.08V435h-6.08v3.09h7v1.81h-9.08Z" transform="translate(-253.96 -345.61)"/><path class="cls-1" d="M306.08,430.25h-3.86v-1.88h9.85v1.88h-3.86v9.66h-2.13Z" transform="translate(-253.96 -345.61)"/><path class="cls-1" d="M318.43,428.28h2l5.33,11.63h-2.25l-1.23-2.78h-5.73l-1.25,2.78H313.1Zm3.05,7.05-2.09-4.62-2.08,4.62Z" transform="translate(-253.96 -345.61)"/><path class="cls-1" d="M329.21,428.37h2.13v9.7h6.37v1.84h-8.5Z" transform="translate(-253.96 -345.61)"/><rect class="cls-1" y="65.52" width="104.06" height="0.5"/></svg>