<svg id="Layer_1" data-name="Layer 1" xmlns="http://www.w3.org/2000/svg" viewBox="0 0 210.55 49.97"><defs><style>.cls-1{fill:#ec2027;}.cls-2{fill:#6e6f72;}</style></defs><polygon class="cls-1" points="71.14 6.5 71.14 19.04 68.28 20.04 68.28 5.5 59.68 2.5 59.68 23.04 56.82 24.04 56.82 1.5 52.52 0 48.23 1.5 48.23 24.04 45.36 23.04 45.36 2.5 36.77 5.5 36.77 20.04 33.91 19.04 33.91 6.5 31.04 7.5 31.04 21.08 39.63 24.07 39.63 7.53 42.5 6.54 42.5 25.07 51.09 28.07 51.09 3.53 52.52 3.03 53.95 3.53 53.95 28.07 62.55 25.07 62.55 6.54 65.41 7.53 65.41 24.07 74 21.08 74 7.5 71.14 6.5"/><polygon points="1.54 44.39 6.64 44.39 6.64 43 1.54 43 1.54 40.02 9.14 40.02 9.14 38.63 0 38.63 0 49.18 9.41 49.18 9.41 47.82 1.54 47.82 1.54 44.39"/><path d="M237,415.53a3,3,0,0,1-3.1,3.13,2.85,2.85,0,0,1-2.92-3.13v-6.32h-1.53v6.39a4.24,4.24,0,0,0,4.44,4.44c3.48,0,4.62-2.38,4.62-4.44v-6.39H237Z" transform="translate(-195.21 -370.55)"/><rect x="51.77" y="38.63" width="1.51" height="10.55"/><polygon points="71.36 46.9 63.87 38.63 62.38 38.63 62.38 49.18 63.89 49.18 63.89 40.85 71.39 49.18 72.86 49.18 72.86 38.63 71.36 38.63 71.36 46.9"/><rect x="82.05" y="38.63" width="1.51" height="10.55"/><polygon points="98.28 43.46 102.67 38.62 100.8 38.62 97.32 42.41 93.93 38.62 91.95 38.62 96.19 43.46 90.89 49.18 92.82 49.18 97.17 44.49 101.31 49.18 103.41 49.18 98.28 43.46"/><path d="M216.13,408.75a5.51,5.51,0,0,0-5.57,5.72v0a5.44,5.44,0,0,0,5.6,5.6,5.81,5.81,0,0,0,2.46-.58l.86,1h1.76l-1.5-1.73a5.4,5.4,0,0,0,2-4.4v0a5.47,5.47,0,0,0-5.62-5.6m4,5.7a4.15,4.15,0,0,1-1.36,3.29l-.82-.95h-1.76l1.44,1.65a3.89,3.89,0,0,1-1.48.31,4.08,4.08,0,0,1-4.05-4.28v0a4,4,0,0,1,4-4.32,4.1,4.1,0,0,1,4.08,4.3Z" transform="translate(-195.21 -370.55)"/><path class="cls-1" d="M274.7,390.67a2.6,2.6,0,0,0,2.58-2.6h0a2.58,2.58,0,1,0-5.16,0v0a2.57,2.57,0,0,0,2.58,2.58m0-.28a2.27,2.27,0,0,1-2.29-2.3v0a2.29,2.29,0,0,1,2.29-2.31,2.27,2.27,0,0,1,2.28,2.3h0a2.29,2.29,0,0,1-2.28,2.32m-1.07-1h.65v-.84h.42l.57.84h.79l-.68-1a.82.82,0,0,0,.59-.83c0-.61-.46-.89-1.08-.89h-1.26Zm.65-1.37v-.75h.56c.28,0,.47.14.47.37s-.17.38-.47.38Z" transform="translate(-195.21 -370.55)"/><path class="cls-2" d="M341.75,389.66H344l3.69,5.46,3.69-5.46h2.27V401.2h-2.13v-8.28l-3.83,5.45h-.07L343.85,393v8.25h-2.1Z" transform="translate(-195.21 -370.55)"/><path class="cls-2" d="M358.18,389.66h9v1.81h-6.86v3h6.08v1.83h-6.08v3.09h6.94v1.81h-9.07Z" transform="translate(-195.21 -370.55)"/><path class="cls-2" d="M374.12,391.54h-3.87v-1.88h9.86v1.88h-3.86v9.66h-2.13Z" transform="translate(-195.21 -370.55)"/><path class="cls-2" d="M386.47,389.57h2l5.34,11.63h-2.25l-1.23-2.79h-5.74l-1.24,2.79h-2.18Zm3,7.05-2.1-4.62-2.08,4.62Z" transform="translate(-195.21 -370.55)"/><path class="cls-2" d="M397.25,389.66h2.13v9.69h6.37v1.85h-8.5Z" transform="translate(-195.21 -370.55)"/><rect class="cls-2" x="125.73" width="0.5" height="49.19"/></svg>